<?xml version="1.0" encoding="utf-8"?>
<!-- Generator: Adobe Illustrator 25.3.1, SVG Export Plug-In . SVG Version: 6.00 Build 0)  -->
<svg version="1.1" id="Calque_1" xmlns="http://www.w3.org/2000/svg" xmlns:xlink="http://www.w3.org/1999/xlink" x="0px" y="0px"
	 viewBox="0 0 452.3 1361.9" style="enable-background:new 0 0 452.3 1361.9;" xml:space="preserve">
<style type="text/css">
	.st0{fill:#EB6762;}
	.st1{fill:#FFFFFF;}
	.st2{font-family:'Montserrat-Bold';}
	.st3{font-size:13px;}
	.st4{font-family:'Montserrat-Regular';}
	.st5{enable-background:new    ;}
</style>
<g>
	<polygon class="st0" points="235.9,1118.7 230.2,1124.4 230.2,1359 235.9,1353.4 241.6,1359.1 241.6,1124.4 	"/>
	<g>
		<polygon class="st0" points="241.6,1110.3 241.6,723.1 235.9,717.4 230.2,723 230.2,1110.2 235.9,1104.6 		"/>
		<polygon class="st0" points="235.9,321.7 230.2,327.4 230.2,708.9 235.9,703.2 241.6,709 241.6,327.4 		"/>
		<polygon class="st0" points="235.9,307.6 241.6,313.3 241.6,4.3 230.2,4.3 230.2,313.2 		"/>
	</g>
	<g>
		<path class="st1" d="M235.9,58.3c-6.2,0-11.3,5-11.3,11.3c0,6.2,5,11.3,11.3,11.3c6.2,0,11.3-5,11.3-11.3l0,0
			C247.2,63.3,242.1,58.3,235.9,58.3z"/>
		<text transform="matrix(1 0 0 1 135.078 74.6862)" class="st1 st2 st3">2021 - 2023</text>
		<text transform="matrix(1 0 0 1 144.6864 90.2858)" class="st1 st2 st3">MSc Pro </text>
		<text transform="matrix(0.583 0 0 0.583 204.0697 85.9567)" class="st0 st2 st3">5</text>
		<text transform="matrix(1 0 0 1 45.4706 105.8864)" class="st1 st4 st3">Epitech, Marseille (2ème)</text>
	</g>
	<g>
		<path class="st1" d="M235.9,256.4c-6.2,0-11.3,5-11.3,11.3c0,6.2,5,11.3,11.3,11.3c6.2,0,11.3-5,11.3-11.3l0,0
			C247.2,261.4,242.1,256.4,235.9,256.4z"/>
		<text transform="matrix(1 0 0 1 133.9472 272.773)" class="st1 st2 st3">2020 - 2021</text>
		<text transform="matrix(1 0 0 1 115.6342 288.3726)" class="st1 st2 st3">Pré-MSc Pro </text>
		<text transform="matrix(0.583 0 0 0.583 203.3568 284.0435)" class="st0 st2 st3">4</text>
		<text transform="matrix(1 0 0 1 45.4706 303.9732)" class="st1 st4 st3">Epitech, Marseille (2ème)</text>
	</g>
	<g>
		<path class="st1" d="M235.9,438.8c-6.2,0-11.3,5-11.3,11.3c0,6.2,5,11.3,11.3,11.3c6.2,0,11.3-5,11.3-11.3l0,0
			C247.2,443.9,242.1,438.8,235.9,438.8z"/>
		<text transform="matrix(1 0 0 1 133.3363 455.2594)" class="st5"><tspan x="0" y="0" class="st1 st2 st3">2019 - 2020</tspan><tspan x="-76.8" y="15.6" class="st1 st2 st3">3ème année Bachelor </tspan><tspan x="-71.5" y="31.2" class="st1 st2 st3">Chef de Projet Digital</tspan><tspan x="-65.9" y="46.8" class="st1 st4 st3">ECV, Aix-en-Provence</tspan></text>
	</g>
	<g>
		<path class="st1" d="M235.9,636.9c-6.2,0-11.3,5-11.3,11.3c0,6.2,5,11.3,11.3,11.3c6.2,0,11.3-5,11.3-11.3l0,0
			C247.2,642,242.1,636.9,235.9,636.9z"/>
		<text transform="matrix(1 0 0 1 136.6772 653.3452)" class="st1 st2 st3">2017 - 2019</text>
		<text transform="matrix(1 0 0 1 133.1396 668.9448)" class="st1 st2 st3">BTS ERPC </text>
		<text transform="matrix(0.583 0 0 0.583 204.0927 664.6157)" class="st0 st2 st3">3</text>
		<text transform="matrix(1 0 0 1 54.8695 684.5453)" class="st1 st4 st3">Lycée Léonard de Vinci,</text>
		<text transform="matrix(1 0 0 1 101.6166 700.145)" class="st1 st4 st3">Marseille (7ème)</text>
	</g>
	<g>
		<path class="st1" d="M235.9,835c-6.2,0-11.3,5-11.3,11.3c0,6.2,5,11.3,11.3,11.3c6.2,0,11.3-5,11.3-11.3l0,0
			C247.2,840.1,242.1,835,235.9,835z"/>
		<text transform="matrix(1 0 0 1 136.6772 851.4308)" class="st1 st2 st3">2016 - 2017</text>
		<text transform="matrix(1 0 0 1 3.5126 867.0305)" class="st1 st2 st3">Terminale Baccalauréat RPIP </text>
		<text transform="matrix(0.583 0 0 0.583 205.6083 862.7014)" class="st0 st2 st3">1</text>
		<text transform="matrix(1 0 0 1 130.203 882.631)" class="st1 st2 st3">Option PG </text>
		<text transform="matrix(0.583 0 0 0.583 204.1073 878.3019)" class="st0 st2 st3">2</text>
		<text transform="matrix(1 0 0 1 93.8163 898.2307)" class="st1 st4 st3">Lycée Don Bosco,</text>
		<text transform="matrix(1 0 0 1 101.3564 913.8312)" class="st1 st4 st3">Marseille (6ème)</text>
	</g>
	<g>
		<path class="st1" d="M235.9,1048.7c-6.2,0-11.3,5-11.3,11.3c0,6.2,5,11.3,11.3,11.3c6.2,0,11.3-5,11.3-11.3l0,0
			C247.2,1053.7,242.1,1048.7,235.9,1048.7z"/>
		<text transform="matrix(1 0 0 1 137.0023 1065.1178)" class="st1 st2 st3">2015 - 2016</text>
		<text transform="matrix(1 0 0 1 53.12 1080.7174)" class="st1 st2 st3">1er Baccalauréat RPIP </text>
		<text transform="matrix(0.583 0 0 0.583 205.6078 1076.3883)" class="st0 st2 st3">1</text>
		<text transform="matrix(1 0 0 1 93.8163 1096.318)" class="st1 st4 st3">Lycée Don Bosco,</text>
		<text transform="matrix(1 0 0 1 101.3564 1111.9176)" class="st1 st4 st3">Marseille (6ème)</text>
	</g>
	<g>
		<path class="st1" d="M235.9,1246.8c-6.2,0-11.3,5-11.3,11.3c0,6.2,5,11.3,11.3,11.3c6.2,0,11.3-5,11.3-11.3l0,0
			C247.2,1251.8,242.1,1246.8,235.9,1246.8z"/>
		<text transform="matrix(1 0 0 1 137.5873 1263.2046)" class="st5"><tspan x="0" y="0" class="st1 st2 st3">2013 - 2015</tspan><tspan x="-40.5" y="15.6" class="st1 st2 st3">CAP Sérigraphie</tspan><tspan x="-86.1" y="31.2" class="st1 st4 st3">Lycée Léonard de Vinci, </tspan><tspan x="-36" y="46.8" class="st1 st4 st3">Marseille (7ème)</tspan></text>
	</g>
	<g>
		<path class="st1" d="M235.9,157.3c-6.2,0-11.3,5-11.3,11.3c0,6.2,5,11.3,11.3,11.3c6.2,0,11.3-5,11.3-11.3l0,0
			C247.2,162.3,242.1,157.3,235.9,157.3z"/>
		<text transform="matrix(1 0 0 1 263.2563 173.7036)" class="st1 st2 st3">2021</text>
		<text transform="matrix(1 0 0 1 263.2563 189.3032)" class="st1 st2 st3">Obtention du diplôme </text>
		<text transform="matrix(1 0 0 1 263.2563 204.9037)" class="st1 st2 st3">de Pré-MSc </text>
		<text transform="matrix(0.583 0 0 0.583 344.5439 200.5746)" class="st0 st2 st3">4</text>
	</g>
	<g>
		<path class="st1" d="M235.9,355.4c-6.2,0-11.3,5-11.3,11.3c0,6.2,5,11.3,11.3,11.3c6.2,0,11.3-5,11.3-11.3l0,0
			C247.2,360.4,242.1,355.4,235.9,355.4z"/>
		<text transform="matrix(1 0 0 1 263.2563 371.7906)" class="st5"><tspan x="0" y="0" class="st1 st2 st3">2020</tspan><tspan x="0" y="15.6" class="st1 st2 st3">Obtention du Bachelor</tspan></text>
	</g>
	<g>
		<path class="st1" d="M235.9,553.5c-6.2,0-11.3,5-11.3,11.3c0,6.2,5,11.3,11.3,11.3c6.2,0,11.3-5,11.3-11.3l0,0
			C247.2,558.5,242.1,553.5,235.9,553.5z"/>
		<text transform="matrix(1 0 0 1 263.2563 569.8764)" class="st5"><tspan x="0" y="0" class="st1 st2 st3">2019</tspan><tspan x="0" y="15.6" class="st1 st2 st3">Obtention du BTS</tspan></text>
	</g>
	<g>
		<path class="st1" d="M235.9,751.6c-6.2,0-11.3,5-11.3,11.3c0,6.2,5,11.3,11.3,11.3c6.2,0,11.3-5,11.3-11.3l0,0
			C247.2,756.6,242.1,751.6,235.9,751.6z"/>
		<text transform="matrix(1 0 0 1 263.2563 767.9622)" class="st5"><tspan x="0" y="0" class="st1 st2 st3">2017</tspan><tspan x="0" y="15.6" class="st1 st2 st3">Obtention du Baccalauréat</tspan></text>
	</g>
	<g>
		<path class="st1" d="M235.9,965.2c-6.2,0-11.3,5-11.3,11.3c0,6.2,5,11.3,11.3,11.3c6.2,0,11.3-5,11.3-11.3l0,0
			C247.2,970.3,242.1,965.2,235.9,965.2z"/>
		<text transform="matrix(1 0 0 1 263.2563 981.6486)" class="st5"><tspan x="0" y="0" class="st1 st2 st3">2016</tspan><tspan x="0" y="15.6" class="st1 st2 st3">Obtention du BEP</tspan></text>
	</g>
	<g>
		<path class="st1" d="M235.9,1163.3c-6.2,0-11.3,5-11.3,11.3c0,6.2,5,11.3,11.3,11.3c6.2,0,11.3-5,11.3-11.3l0,0
			C247.2,1168.4,242.1,1163.3,235.9,1163.3z"/>
		<text transform="matrix(1 0 0 1 263.2563 1179.7354)" class="st5"><tspan x="0" y="0" class="st1 st2 st3">2015</tspan><tspan x="0" y="15.6" class="st1 st2 st3">Obtention du CAP</tspan></text>
	</g>
</g>
</svg>
