<?xml version="1.0" encoding="utf-8"?>
<!-- Generator: Adobe Illustrator 25.3.1, SVG Export Plug-In . SVG Version: 6.00 Build 0)  -->
<svg version="1.1" id="Calque_1" xmlns="http://www.w3.org/2000/svg" xmlns:xlink="http://www.w3.org/1999/xlink" x="0px" y="0px"
	 viewBox="0 0 943.8 1474.9" style="enable-background:new 0 0 943.8 1474.9;" xml:space="preserve">
<style type="text/css">
	.st0{fill:#EB6762;}
	.st1{fill:#FFFFFF;}
	.st2{font-family:'Montserrat-Bold';}
	.st3{font-size:26px;}
	.st4{font-size:16px;}
	.st5{font-family:'Montserrat-Regular';}
	.st6{enable-background:new    ;}
</style>
<g>
	<path class="st0" d="M681,499.7l5.7,5.7l-5.6,5.6h159.6c9,0,16.3-8.9,16.3-19.8V345.9l-5.9-5.9l-5.5,5.5v145.7c0,4.8-2.7,8.5-5,8.5
		H681z"/>
	<path class="st0" d="M78.6,519.5v27.8l5.7-5.7l5.6,5.7v-27.8c0-4.8,2.7-8.5,5-8.5H661l5.6-5.6l-5.7-5.7h-566
		C85.9,499.7,78.6,508.6,78.6,519.5z"/>
	<path class="st0" d="M78.7,567.5V718c0,10.9,7.3,19.8,16.3,19.8h159.2l-5.7-5.7l5.7-5.7H95.1c-2.3,0-5-3.7-5-8.5V567.5l-5.7-5.7
		L78.7,567.5z"/>
	<path class="st0" d="M681.1,953.2l5.7,5.7l-5.6,5.6h159.6c9,0,16.3-8.9,16.3-19.8V799.4l-5.9-5.9l-5.5,5.5v145.7
		c0,4.8-2.7,8.5-5,8.5H681.1z"/>
	<path class="st0" d="M857,779.3v-33.1c0-10.9-7.3-19.8-16.3-19.8H274.2l-5.7,5.7l5.7,5.7h566.5c2.3,0,5,3.7,5,8.5V779l5.4-5.5
		L857,779.3z"/>
	<polygon class="st0" points="206.1,1406.7 213,1412.4 206.1,1418.1 660,1418.1 666.8,1412.5 659.8,1406.7 	"/>
	<path class="st0" d="M78.7,973v27.8l5.7-5.7l5.6,5.7V973c0-4.8,2.7-8.5,5-8.5h566.1l5.6-5.6l-5.7-5.7H95
		C86,953.2,78.7,962.1,78.7,973z"/>
	<path class="st0" d="M681,1406.7l5.8,5.8l-5.6,5.6h159.6c9,0,16.3-8.9,16.3-19.9V1252l-5.9-5.9l-5.5,5.5v146.6c0,4.8-2.7,8.5-5,8.5
		H681z"/>
	<path class="st0" d="M254.1,1180h-159c-2.3,0-5-3.7-5-8.5v-150.6l-5.7-5.7l-5.7,5.7v150.6c0,11,7.3,19.9,16.3,19.9h159.2l-5.8-5.8
		L254.1,1180z"/>
	<path class="st0" d="M857,1231.9v-32.2c0-10.9-7.3-19.8-16.3-19.8H274l-5.6,5.6l5.8,5.8h566.5c2.3,0,5,3.7,5,8.5v31.8l5.4-5.5
		L857,1231.9z"/>
	<path class="st1" d="M467.3,1398.2c-7.8,0-14.2,6.3-14.2,14.2c0,7.8,6.3,14.2,14.2,14.2c7.8,0,14.2-6.3,14.2-14.2l0,0
		C481.4,1404.6,475.1,1398.2,467.3,1398.2L467.3,1398.2z"/>
	<text transform="matrix(1 0 0 1 396.3531 1382.7881)" class="st1 st2 st3">2013 - 2015</text>
	<text transform="matrix(1 0 0 1 398.9372 1451.498)" class="st1 st2 st4">CAP Sérigraphie</text>
	<text transform="matrix(1 0 0 1 304.8263 1470.6981)" class="st1 st5 st4">Lycée Léonard de Vinci, Marseille (7ème)</text>
	<path class="st1" d="M851.2,1284.8c-7.8,0-14.2,6.3-14.2,14.2c0,7.8,6.3,14.2,14.2,14.2c7.8,0,14.2-6.3,14.2-14.2l0,0
		C865.4,1291.1,859,1284.8,851.2,1284.8z"/>
	<text transform="matrix(1 0 0 1 877.6439 1307.368)" class="st1 st2 st3">2015</text>
	<text transform="matrix(1 0 0 1 674.8888 1304.4481)" class="st1 st2 st4">Obtention du CAP</text>
	<path class="st1" d="M467.4,491.2c-7.8,0-14.2,6.3-14.2,14.2c0,7.8,6.3,14.2,14.2,14.2c7.8,0,14.2-6.3,14.2-14.2l0,0
		C481.5,497.5,475.2,491.2,467.4,491.2z"/>
	<text transform="matrix(1 0 0 1 392.2019 475.7482)" class="st1 st2 st3">2019 - 2020</text>
	<text transform="matrix(1 0 0 1 283.6068 544.458)" class="st6"><tspan x="0" y="0" class="st1 st2 st4">3ème année Bachelor Chef de Projet Digital</tspan><tspan x="97" y="19.2" class="st1 st5 st4">ECV, Aix-en-Provence</tspan></text>
	<path class="st1" d="M467.4,718c-7.8,0-14.2,6.3-14.2,14.2c0,7.8,6.3,14.2,14.2,14.2c7.8,0,14.2-6.3,14.2-14.2l0,0
		C481.5,724.3,475.2,718,467.4,718z"/>
	<text transform="matrix(1 0 0 1 395.5423 702.528)" class="st1 st2 st3">2017 - 2019</text>
	<text transform="matrix(1 0 0 1 421.0207 771.238)" class="st1 st2 st4">BTS ERPC </text>
	<text transform="matrix(0.583 0 0 0.583 508.3473 765.9099)" class="st0 st2 st4">3</text>
	<text transform="matrix(1 0 0 1 304.9357 790.4382)" class="st1 st5 st4">Lycée Léonard de Vinci, Marseille (7ème)</text>
	<text transform="matrix(1 0 0 1 627.6945 790.438)" class="st1 st2 st4"> </text>
	<path class="st1" d="M467.4,1171.6c-7.8,0-14.2,6.3-14.2,14.2c0,7.8,6.3,14.2,14.2,14.2s14.2-6.3,14.2-14.2l0,0
		C481.5,1177.9,475.2,1171.6,467.4,1171.6z"/>
	<text transform="matrix(1 0 0 1 395.868 1156.118)" class="st1 st2 st3">2015 - 2016</text>
	<text transform="matrix(1 0 0 1 371.778 1224.818)" class="st1 st2 st4">1er Baccalauréat RPIP </text>
	<text transform="matrix(0.583 0 0 0.583 559.4557 1219.4899)" class="st0 st2 st4">1</text>
	<text transform="matrix(1 0 0 1 328.7428 1244.0182)" class="st1 st5 st4">Lycée Don Bosco, Marseille (6ème)</text>
	<path class="st1" d="M467.4,944.7c-7.8,0-14.2,6.3-14.2,14.2c0,7.8,6.3,14.2,14.2,14.2c7.8,0,14.2-6.3,14.2-14.2l0,0
		C481.5,951.1,475.2,944.7,467.4,944.7L467.4,944.7z"/>
	<text transform="matrix(1 0 0 1 395.7505 929.2881)" class="st1 st2 st3">2016 - 2017</text>
	<text transform="matrix(1 0 0 1 341.2503 997.998)" class="st1 st2 st4">Terminale Baccalauréat RPIP </text>
	<text transform="matrix(0.583 0 0 0.583 589.9832 992.6699)" class="st0 st2 st4">1</text>
	<text transform="matrix(1 0 0 1 419.2137 1017.1982)" class="st1 st2 st4">Option PG </text>
	<text transform="matrix(0.583 0 0 0.583 510.1726 1011.8701)" class="st0 st2 st4">2</text>
	<text transform="matrix(1 0 0 1 328.743 1036.3984)" class="st1 st5 st4">Lycée Don Bosco, Marseille (6ème)</text>
	<g>
		<path class="st1" d="M851.3,831.3c-7.8,0-14.2,6.3-14.2,14.2c0,7.8,6.3,14.2,14.2,14.2c7.8,0,14.2-6.3,14.2-14.2l0,0
			C865.5,837.6,859.1,831.3,851.3,831.3z"/>
		<text transform="matrix(1 0 0 1 877.7623 853.868)" class="st1 st2 st3">2017</text>
		<text transform="matrix(1 0 0 1 600.0216 850.948)" class="st1 st2 st4">Obtention du Baccalauréat</text>
	</g>
	<g>
		<path class="st1" d="M84.2,604.7c-7.8,0-14.2,6.3-14.2,14.2s6.3,14.2,14.2,14.2s14.2-6.3,14.2-14.2l0,0
			C98.4,611.1,92,604.7,84.2,604.7z"/>
		<text transform="matrix(1 0 0 1 3.640747e-02 627.3381)" class="st1 st2 st3">2019</text>
		<text transform="matrix(1 0 0 1 107.4322 624.418)" class="st1 st2 st4">Obtention du BTS</text>
	</g>
	<g>
		<path class="st1" d="M84.5,1057.3c-7.8,0-14.2,6.3-14.2,14.2s6.3,14.2,14.2,14.2c7.9,0,14.2-6.3,14.2-14.2l0,0
			C98.6,1063.6,92.3,1057.3,84.5,1057.3z"/>
		<text transform="matrix(1 0 0 1 3.640747e-02 1079.8781)" class="st1 st2 st3">2016</text>
		<text transform="matrix(1 0 0 1 108.9822 1076.958)" class="st1 st2 st4">Obtention du BEP</text>
	</g>
	<g>
		<path class="st1" d="M851.3,377.7c-7.8,0-14.2,6.3-14.2,14.2c0,7.8,6.3,14.2,14.2,14.2c7.8,0,14.2-6.3,14.2-14.2
			C865.5,384.1,859.1,377.7,851.3,377.7L851.3,377.7z"/>
		<text transform="matrix(1 0 0 1 878.0822 400.3182)" class="st1 st2 st3">2020</text>
		<text transform="matrix(1 0 0 1 636.7433 397.5167)" class="st1 st2 st4">Obtention du Bachelor</text>
	</g>
	<g>
		<path class="st0" d="M78.7,113.9v150.5c0,10.9,7.3,19.8,16.3,19.8h159.2l-5.7-5.7l5.7-5.7H95.1c-2.3,0-5-3.7-5-8.5V113.9l-5.7-5.7
			L78.7,113.9z"/>
		<path class="st0" d="M857,325.7v-33.1c0-10.9-7.3-19.8-16.3-19.8H274.2l-5.7,5.7l5.7,5.7h566.5c2.3,0,5,3.7,5,8.5v32.7l5.4-5.5
			L857,325.7z"/>
		<g>
			<path class="st0" d="M94.9,46.1c-9,0-16.3,8.9-16.3,19.8v27.8l5.7-5.7l5.6,5.7V65.9c0-4.8,2.7-8.5,5-8.5l677.7,0.1V46.1H94.9z"/>
		</g>
		<path class="st1" d="M467.4,37.6c-7.8,0-14.2,6.3-14.2,14.2c0,7.8,6.3,14.2,14.2,14.2c7.8,0,14.2-6.3,14.2-14.2l0,0
			C481.5,43.9,475.2,37.6,467.4,37.6z"/>
		<text transform="matrix(1 0 0 1 393.8974 22.1098)" class="st1 st2 st3">2021 - 2023</text>
		<text transform="matrix(1 0 0 1 428.088 90.8198)" class="st1 st2 st4">MSc Pro </text>
		<text transform="matrix(0.583 0 0 0.583 501.175 85.4916)" class="st0 st2 st4">5</text>
		<text transform="matrix(1 0 0 1 367.0319 110.02)" class="st1 st5 st4">Epitech, Marseille (2ème)</text>
		<path class="st1" d="M467.4,264.4c-7.8,0-14.2,6.3-14.2,14.2c0,7.8,6.3,14.2,14.2,14.2c7.8,0,14.2-6.3,14.2-14.2l0,0
			C481.5,270.7,475.2,264.4,467.4,264.4z"/>
		<text transform="matrix(1 0 0 1 392.7665 248.8899)" class="st1 st2 st3">2020 - 2021</text>
		<text transform="matrix(1 0 0 1 427.0102 317.6)" class="st1 st2 st4">Pré-MSc </text>
		<text transform="matrix(0.583 0 0 0.583 501.3607 312.2719)" class="st0 st2 st4">4</text>
		<text transform="matrix(1 0 0 1 367.0243 336.8002)" class="st1 st5 st4">Epitech, Marseille (2ème)</text>
		<path class="st1" d="M84.2,151.1c-7.8,0-14.2,6.3-14.2,14.2s6.3,14.2,14.2,14.2s14.2-6.3,14.2-14.2l0,0
			C98.4,157.5,92,151.1,84.2,151.1z"/>
		<text transform="matrix(1 0 0 1 -9.613037e-03 173.7)" class="st1 st2 st3">2021</text>
		<text transform="matrix(1 0 0 1 107.3861 170.7798)" class="st1 st2 st4">Obtention du diplôme de Pré-MSc (BAC +3)</text>
	</g>
</g>
</svg>
