<?xml version="1.0" encoding="utf-8"?>
<!-- Generator: Adobe Illustrator 25.3.1, SVG Export Plug-In . SVG Version: 6.00 Build 0)  -->
<svg version="1.1" id="Calque_1" focusable="false" xmlns="http://www.w3.org/2000/svg" xmlns:xlink="http://www.w3.org/1999/xlink"
	 x="0px" y="0px" viewBox="0 0 320.1 398.6" style="enable-background:new 0 0 320.1 398.6;" xml:space="preserve">
<style type="text/css">
	.st0{opacity:0.65;fill:#FFFFFF;enable-background:new    ;}
	.st1{fill:#FFFFFF;}
</style>
<g>
	<path class="st0" d="M143.1,199.5L7,63.6c-9.3-9.4-9.3-24.6,0-34L29.6,7.1c9.4-9.4,24.6-9.4,33.9,0l96.4,96.4l96.4-96.4
		c9.4-9.4,24.6-9.4,33.9,0L313,29.6c9.4,9.4,9.4,24.6,0,33.9l-136,136C167.7,209,152.4,209,143.1,199.5L143.1,199.5z"/>
	<path class="st1" d="M177.1,391.5l136-136c9.4-9.4,9.4-24.6,0-33.9L290.4,199c-9.4-9.4-24.6-9.4-33.9,0L160,295.3L63.6,199
		c-9.4-9.4-24.6-9.4-33.9,0L7,221.5c-9.4,9.4-9.4,24.6,0,33.9l136,136C152.4,400.9,167.7,400.9,177.1,391.5z"/>
</g>
</svg>
