<svg id="Calque_1" data-name="Calque 1" xmlns="http://www.w3.org/2000/svg" viewBox="0 0 224.26 213.35"><defs><style>.cls-1{fill:#fff;}</style></defs><path class="cls-1" d="M143.24,10.62H119q-5.54,0-7.59,5.38L87.72,73.25q-2.85,7.27-7.27,19.61h-.64L72.38,72.93,48.82,16c-1.38-3.59-3.85-5.38-7.44-5.38H17c-1.38,0-2.06.63-2.06,1.9v8.06c0,1.27.68,1.9,2.06,1.9h12v89.83H17c-1.38,0-2.06.64-2.06,1.9v8.07c0,1.26.68,1.9,2.06,1.9H53.4c1.37,0,2.06-.64,2.06-1.9v-8.07c0-1.26-.69-1.9-2.06-1.9H42.81V33.55h.31L73.17,108.2a7.47,7.47,0,0,0,13.92,0l30.05-74.65h.16V93.37L0,213.35,131.06,85.11V22.48h12.18a1.67,1.67,0,0,0,1.89-1.9V12.52A1.67,1.67,0,0,0,143.24,10.62Z"/><path class="cls-1" d="M193,157.51l-6.64-4.43c-1.16-.94-2.16-.63-3,.95q-3.63,6.18-11.38,12.18Q162,174,144.78,174q-16,0-27.83-11.78t-11.86-33.06a68,68,0,0,1,.39-7.42l37.08-37.08.8,0q14.71,0,24.59,7.83t9.89,15.11V109c0,1.37.63,2.05,1.9,2.05h10a1.82,1.82,0,0,0,2.06-2.05V74.48c0-1.26-.69-1.9-2.06-1.9h-8.86c-1.47,0-2.11.64-1.89,1.9l.15,14.08q-8.4-12.84-24.54-15.94L224.26,0,90.42,131.25q.7,24.5,15.38,39.86,15.42,16.14,38.51,16.14a64.17,64.17,0,0,0,17.79-2.38,55.3,55.3,0,0,0,13.37-5.45,50.13,50.13,0,0,0,9.33-7.36,51.75,51.75,0,0,0,5.93-6.72,30.9,30.9,0,0,0,2.37-4,5.92,5.92,0,0,0,.71-2.37A1.89,1.89,0,0,0,193,157.51Z"/></svg>