<?xml version="1.0" encoding="utf-8"?>
<!-- Generator: Adobe Illustrator 25.3.1, SVG Export Plug-In . SVG Version: 6.00 Build 0)  -->
<svg version="1.1" id="Calque_1" xmlns="http://www.w3.org/2000/svg" xmlns:xlink="http://www.w3.org/1999/xlink" x="0px" y="0px"
	 viewBox="0 0 750 403.52" style="enable-background:new 0 0 750 403.52;" xml:space="preserve">
<style type="text/css">
	.st0{clip-path:url(#SVGID_2_);fill:url(#SVGID_3_);}
	.st1{display:none;}
	.st2{display:inline;fill:#FFFFFF;}
	.st3{display:inline;}
	.st4{fill:#FFFFFF;}
	.st5{opacity:0.2;fill:#FFFFFF;enable-background:new    ;}
	.st6{opacity:0.84;fill:#FFFFFF;enable-background:new    ;}
	.st7{opacity:0.1;}
	.st8{fill:#041B38;}
	.st9{fill:#000A63;}
	.st10{fill:url(#SVGID_4_);}
	.st11{opacity:0.45;fill:url(#SVGID_5_);enable-background:new    ;}
	.st12{fill:url(#SVGID_6_);}
	.st13{opacity:0.45;fill:url(#SVGID_7_);enable-background:new    ;}
	.st14{fill:url(#SVGID_8_);}
	.st15{opacity:0.45;fill:url(#SVGID_9_);enable-background:new    ;}
	.st16{opacity:0.45;fill:url(#SVGID_10_);enable-background:new    ;}
	.st17{opacity:0.45;fill:url(#SVGID_11_);enable-background:new    ;}
	.st18{opacity:0.45;fill:url(#SVGID_12_);enable-background:new    ;}
	.st19{fill:none;stroke:#000A63;stroke-width:2;stroke-linecap:round;stroke-linejoin:round;stroke-miterlimit:10;}
	.st20{opacity:0.45;fill:url(#SVGID_13_);enable-background:new    ;}
	.st21{fill:#02CBBE;}
	.st22{opacity:0.51;fill:url(#SVGID_14_);enable-background:new    ;}
	.st23{opacity:0.45;fill:url(#SVGID_15_);enable-background:new    ;}
	.st24{opacity:0.51;fill:url(#SVGID_16_);enable-background:new    ;}
	.st25{display:inline;fill:#000A63;}
	.st26{fill:none;stroke:#FF895B;stroke-width:2;stroke-linecap:round;stroke-linejoin:round;stroke-miterlimit:10;}
	.st27{fill:#FF895B;}
	.st28{fill:none;stroke:#000A63;stroke-width:0.75;stroke-linecap:round;stroke-linejoin:round;stroke-miterlimit:10;}
	.st29{fill:none;stroke:#000A63;stroke-width:1.2;stroke-linecap:round;stroke-linejoin:round;stroke-miterlimit:10;}
	.st30{opacity:0.5;fill:url(#SVGID_17_);enable-background:new    ;}
	.st31{opacity:0.5;fill:url(#SVGID_18_);enable-background:new    ;}
	.st32{opacity:0.5;fill:url(#SVGID_19_);enable-background:new    ;}
	.st33{opacity:0.5;fill:url(#SVGID_20_);enable-background:new    ;}
	.st34{opacity:0.5;fill:url(#SVGID_21_);enable-background:new    ;}
	.st35{opacity:0.5;fill:url(#SVGID_22_);enable-background:new    ;}
	.st36{opacity:0.5;fill:url(#SVGID_23_);enable-background:new    ;}
	.st37{opacity:0.5;fill:url(#SVGID_24_);enable-background:new    ;}
	.st38{opacity:0.5;fill:url(#SVGID_25_);enable-background:new    ;}
	.st39{fill:url(#SVGID_26_);}
	.st40{fill:#041D38;}
	.st41{opacity:0.76;fill:#F9FBFC;enable-background:new    ;}
	.st42{opacity:0.91;fill:#F9FBFC;enable-background:new    ;}
	.st43{opacity:0.8;fill:#F9FBFC;enable-background:new    ;}
	.st44{opacity:0.3;}
	.st45{fill:#043CC8;}
	.st46{display:none;opacity:0.78;fill:url(#SVGID_27_);enable-background:new    ;}
	.st47{fill:none;stroke:#F9FBFC;stroke-width:0.5;stroke-linecap:round;stroke-linejoin:round;stroke-miterlimit:10;}
	.st48{fill:none;stroke:#F9FBFC;stroke-linecap:round;stroke-linejoin:round;stroke-miterlimit:10;}
</style>
<g>
	<defs>
		<rect id="SVGID_1_" x="-0.08" y="0" width="750.47" height="404.12"/>
	</defs>
	<clipPath id="SVGID_2_">
		<use xlink:href="#SVGID_1_"  style="overflow:visible;"/>
	</clipPath>
	
		<linearGradient id="SVGID_3_" gradientUnits="userSpaceOnUse" x1="375.155" y1="981.77" x2="375.155" y2="1602.6001" gradientTransform="matrix(1 0 0 1 0 -876)">
		<stop  offset="0" style="stop-color:#041D38"/>
		<stop  offset="0.0913" style="stop-color:#0D203A"/>
		<stop  offset="0.2402" style="stop-color:#25283E"/>
		<stop  offset="0.4284" style="stop-color:#4D3445"/>
		<stop  offset="0.6484" style="stop-color:#84464F"/>
		<stop  offset="0.8923" style="stop-color:#CA5C5C"/>
		<stop  offset="1" style="stop-color:#EB6762"/>
	</linearGradient>
	<rect x="-0.08" y="0" class="st0" width="750.47" height="843.31"/>
</g>
<g id="stars" class="st1">
	<path class="st2" d="M127.47,87.39c-0.74,0-0.74,1.15,0,1.15C128.21,88.54,128.22,87.39,127.47,87.39z"/>
	<path class="st2" d="M35.06,184.72c-0.74,0-0.74,1.15,0,1.15C35.8,185.87,35.8,184.72,35.06,184.72z"/>
	<path class="st2" d="M24.35,230.74c-0.74,0-0.74,1.15,0,1.15S25.1,230.74,24.35,230.74z"/>
	<path class="st2" d="M71.88,321.91c-0.74,0-0.74,1.15,0,1.15C72.62,323.06,72.62,321.91,71.88,321.91z"/>
	<path class="st2" d="M164.68,321.34c-0.74,0-0.74,1.15,0,1.15S165.42,321.34,164.68,321.34z"/>
	<path class="st2" d="M57.85,26.57c-0.74,0-0.74,1.15,0,1.15S58.59,26.57,57.85,26.57z"/>
	<path class="st2" d="M19.06,31.89c-0.74,0-0.74,1.15,0,1.15S19.8,31.89,19.06,31.89z"/>
	<path class="st2" d="M131.1,36.07c-0.74,0-0.74,1.15,0,1.15C131.84,37.23,131.84,36.07,131.1,36.07z"/>
	<path class="st2" d="M67.25,72.43c-0.74,0-0.74,1.15,0,1.15S67.99,72.43,67.25,72.43z"/>
	<path class="st2" d="M115.06,144.85c-0.74,0-0.74,1.15,0,1.15C115.8,146,115.8,144.85,115.06,144.85z"/>
	<path class="st2" d="M49.68,105.22c-0.74,0-0.74,1.15,0,1.15C50.42,106.37,50.42,105.22,49.68,105.22z"/>
	<path class="st2" d="M130.54,214.29c-0.74,0-0.74,1.15,0,1.15C131.28,215.44,131.28,214.29,130.54,214.29z"/>
	<path class="st2" d="M103.31,234.62c-0.74,0-0.74,1.15,0,1.15C104.05,235.77,104.05,234.62,103.31,234.62z"/>
	<path class="st2" d="M97.69,296.33c-0.74,0-0.74,1.15,0,1.15C98.43,297.48,98.43,296.33,97.69,296.33z"/>
	<path class="st2" d="M131.1,281.71c-0.74,0-0.74,1.15,0,1.15C131.84,282.86,131.84,281.71,131.1,281.71z"/>
	<path class="st2" d="M181.94,222.73c-0.74,0-0.74,1.15,0,1.15C182.68,223.88,182.68,222.73,181.94,222.73z"/>
	<path class="st2" d="M164.68,125.31c-0.74,0-0.74,1.15,0,1.15S165.42,125.31,164.68,125.31z"/>
	<path class="st2" d="M183.48,68.21c-0.74,0-0.74,1.15,0,1.15S184.22,68.21,183.48,68.21z"/>
	<path class="st2" d="M221.04,262.79c-0.32-1.07-1.02-1.76-2.09-2.09c-0.32-0.09-0.32-0.17,0-0.27c1.07-0.32,1.76-1.02,2.09-2.09
		c0.09-0.32,0.17-0.32,0.27,0c0.32,1.07,1.02,1.76,2.09,2.09c0.32,0.09,0.32,0.17,0,0.27c-1.07,0.32-1.76,1.02-2.09,2.09
		C221.22,263.11,221.14,263.11,221.04,262.79z"/>
	<path class="st2" d="M43.12,311.09c-0.32-1.07-1.02-1.76-2.09-2.09c-0.32-0.09-0.32-0.17,0-0.27c1.07-0.32,1.76-1.02,2.09-2.09
		c0.09-0.32,0.17-0.32,0.27,0c0.32,1.07,1.02,1.76,2.09,2.09c0.32,0.09,0.32,0.17,0,0.27c-1.07,0.32-1.76,1.02-2.09,2.09
		C43.29,311.41,43.21,311.41,43.12,311.09z"/>
	<path class="st2" d="M170.1,188.13c-0.32-1.07-1.02-1.76-2.09-2.09c-0.32-0.09-0.32-0.17,0-0.27c1.07-0.32,1.76-1.02,2.09-2.09
		c0.09-0.32,0.17-0.32,0.27,0c0.32,1.07,1.02,1.76,2.09,2.09c0.32,0.09,0.32,0.17,0,0.27c-1.07,0.32-1.76,1.02-2.09,2.09
		C170.27,188.45,170.19,188.45,170.1,188.13z"/>
	<path class="st2" d="M112.19,110.48c-0.32-1.07-1.02-1.76-2.09-2.09c-0.32-0.09-0.32-0.17,0-0.27c1.07-0.32,1.76-1.02,2.09-2.09
		c0.09-0.32,0.17-0.32,0.27,0c0.32,1.07,1.02,1.76,2.09,2.09c0.32,0.09,0.32,0.17,0,0.27c-1.07,0.32-1.76,1.02-2.09,2.09
		C112.37,110.8,112.29,110.8,112.19,110.48z"/>
	<path class="st2" d="M27.73,152.69c-0.22-0.71-0.68-1.17-1.39-1.39c-0.21-0.06-0.21-0.12,0-0.18c0.71-0.22,1.17-0.68,1.39-1.39
		c0.06-0.21,0.12-0.21,0.18,0c0.22,0.71,0.68,1.17,1.39,1.39c0.21,0.06,0.21,0.12,0,0.18c-0.71,0.22-1.17,0.68-1.39,1.39
		C27.85,152.9,27.79,152.9,27.73,152.69z"/>
	<path class="st2" d="M133.7,322.81c-0.22-0.71-0.68-1.17-1.39-1.39c-0.21-0.06-0.21-0.12,0-0.18c0.71-0.22,1.17-0.68,1.39-1.39
		c0.06-0.21,0.12-0.21,0.18,0c0.22,0.71,0.68,1.17,1.39,1.39c0.21,0.06,0.21,0.12,0,0.18c-0.71,0.22-1.17,0.68-1.39,1.39
		C133.82,323.03,133.76,323.03,133.7,322.81z"/>
	<path class="st2" d="M46.57,223.87c-0.17-0.55-0.52-0.91-1.07-1.07c-0.16-0.05-0.16-0.09,0-0.14c0.55-0.17,0.91-0.52,1.07-1.07
		c0.05-0.16,0.09-0.16,0.14,0c0.17,0.55,0.52,0.91,1.07,1.07c0.16,0.05,0.16,0.09,0,0.14c-0.55,0.17-0.91,0.52-1.07,1.07
		C46.66,224.04,46.62,224.04,46.57,223.87z"/>
	<path class="st2" d="M124.35,187.05c-0.17-0.55-0.52-0.91-1.07-1.07c-0.16-0.05-0.16-0.09,0-0.14c0.55-0.17,0.91-0.52,1.07-1.07
		c0.05-0.16,0.09-0.16,0.14,0c0.17,0.55,0.52,0.91,1.07,1.07c0.16,0.05,0.16,0.09,0,0.14c-0.55,0.17-0.91,0.52-1.07,1.07
		C124.44,187.22,124.4,187.22,124.35,187.05z"/>
	<path class="st2" d="M48.41,379.11c-0.17-0.55-0.52-0.91-1.07-1.07c-0.16-0.05-0.16-0.09,0-0.14c0.55-0.17,0.91-0.52,1.07-1.07
		c0.05-0.16,0.09-0.16,0.14,0c0.17,0.55,0.52,0.91,1.07,1.07c0.16,0.05,0.16,0.09,0,0.14c-0.55,0.17-0.91,0.52-1.07,1.07
		C48.5,379.27,48.46,379.27,48.41,379.11z"/>
	<path class="st2" d="M17.68,310.01c-0.17-0.55-0.52-0.91-1.07-1.07c-0.16-0.05-0.16-0.09,0-0.14c0.55-0.17,0.91-0.52,1.07-1.07
		c0.05-0.16,0.09-0.16,0.14,0c0.17,0.55,0.52,0.91,1.07,1.07c0.16,0.05,0.16,0.09,0,0.14c-0.55,0.17-0.91,0.52-1.07,1.07
		C17.77,310.17,17.73,310.17,17.68,310.01z"/>
	<path class="st2" d="M154.11,57.6c-0.17-0.55-0.52-0.91-1.07-1.07c-0.16-0.05-0.16-0.09,0-0.14c0.55-0.17,0.91-0.52,1.07-1.07
		c0.05-0.16,0.09-0.16,0.14,0c0.17,0.55,0.52,0.91,1.07,1.07c0.16,0.05,0.16,0.09,0,0.14c-0.55,0.17-0.91,0.52-1.07,1.07
		C154.2,57.77,154.16,57.77,154.11,57.6z"/>
	<path class="st2" d="M33.72,91.02c-0.17-0.55-0.52-0.91-1.07-1.07c-0.16-0.05-0.16-0.09,0-0.14c0.55-0.17,0.91-0.52,1.07-1.07
		c0.05-0.16,0.09-0.16,0.14,0c0.17,0.55,0.52,0.91,1.07,1.07c0.16,0.05,0.16,0.09,0,0.14c-0.55,0.17-0.91,0.52-1.07,1.07
		C33.81,91.18,33.77,91.18,33.72,91.02z"/>
	<path class="st2" d="M100.09,29.87c-0.17-0.55-0.52-0.91-1.07-1.07c-0.16-0.05-0.16-0.09,0-0.14c0.55-0.17,0.91-0.52,1.07-1.07
		c0.05-0.16,0.09-0.16,0.14,0c0.17,0.55,0.52,0.91,1.07,1.07c0.16,0.05,0.16,0.09,0,0.14c-0.55,0.17-0.91,0.52-1.07,1.07
		C100.18,30.04,100.14,30.04,100.09,29.87z"/>
	<path class="st2" d="M13.5,72.26c-0.17-0.55-0.52-0.91-1.07-1.07c-0.16-0.05-0.16-0.09,0-0.14c0.55-0.17,0.91-0.52,1.07-1.07
		c0.05-0.16,0.09-0.16,0.14,0c0.17,0.55,0.52,0.91,1.07,1.07c0.16,0.05,0.16,0.09,0,0.14c-0.55,0.17-0.91,0.52-1.07,1.07
		C13.59,72.43,13.54,72.43,13.5,72.26z"/>
	<path class="st2" d="M224.45,353.18c-0.74,0-0.74,1.15,0,1.15S225.19,353.18,224.45,353.18z"/>
	<path class="st2" d="M86.51,377.39c-0.74,0-0.74,1.15,0,1.15S87.25,377.39,86.51,377.39z"/>
	<path class="st2" d="M96.23,357.92c-0.74,0-0.74,1.15,0,1.15S96.97,357.92,96.23,357.92z"/>
	<path class="st2" d="M185.66,358.5c-0.74,0-0.74,1.15,0,1.15C186.4,359.65,186.4,358.5,185.66,358.5z"/>
	<path class="st2" d="M240.3,366.39c-0.74,0-0.74,1.15,0,1.15C241.04,367.54,241.04,366.39,240.3,366.39z"/>
	<path class="st2" d="M127.03,372.9c-0.32-1.07-1.02-1.76-2.09-2.09c-0.32-0.09-0.32-0.17,0-0.27c1.07-0.32,1.76-1.02,2.09-2.09
		c0.09-0.32,0.17-0.32,0.27,0c0.32,1.07,1.02,1.76,2.09,2.09c0.32,0.09,0.32,0.17,0,0.27c-1.07,0.32-1.76,1.02-2.09,2.09
		C127.2,373.22,127.12,373.22,127.03,372.9z"/>
	<path class="st2" d="M112.77,345.7c-0.32-1.07-1.02-1.76-2.09-2.09c-0.32-0.09-0.32-0.17,0-0.27c1.07-0.32,1.76-1.02,2.09-2.09
		c0.09-0.32,0.17-0.32,0.27,0c0.32,1.07,1.02,1.76,2.09,2.09c0.32,0.09,0.32,0.17,0,0.27c-1.07,0.32-1.76,1.02-2.09,2.09
		C112.95,346.03,112.87,346.03,112.77,345.7z"/>
	<path class="st2" d="M161.02,353.97c-0.32-1.07-1.02-1.76-2.09-2.09c-0.32-0.09-0.32-0.17,0-0.27c1.07-0.32,1.76-1.02,2.09-2.09
		c0.09-0.32,0.17-0.32,0.27,0c0.32,1.07,1.02,1.76,2.09,2.09c0.32,0.09,0.32,0.17,0,0.27c-1.07,0.32-1.76,1.02-2.09,2.09
		C161.19,354.29,161.11,354.29,161.02,353.97z"/>
	<path class="st2" d="M206.77,384.98c-0.17-0.55-0.52-0.91-1.07-1.07c-0.16-0.05-0.16-0.09,0-0.14c0.55-0.17,0.91-0.52,1.07-1.07
		c0.05-0.16,0.09-0.16,0.14,0c0.17,0.55,0.52,0.91,1.07,1.07c0.16,0.05,0.16,0.09,0,0.14c-0.55,0.17-0.91,0.52-1.07,1.07
		C206.86,385.14,206.81,385.14,206.77,384.98z"/>
	<path class="st2" d="M230.65,317.9c-0.17-0.55-0.52-0.91-1.07-1.07c-0.16-0.05-0.16-0.09,0-0.14c0.55-0.17,0.91-0.52,1.07-1.07
		c0.05-0.16,0.09-0.16,0.14,0c0.17,0.55,0.52,0.91,1.07,1.07c0.16,0.05,0.16,0.09,0,0.14c-0.55,0.17-0.91,0.52-1.07,1.07
		C230.74,318.07,230.7,318.07,230.65,317.9z"/>
	<path class="st2" d="M180.1,391.58c-0.17-0.55-0.52-0.91-1.07-1.07c-0.16-0.05-0.16-0.09,0-0.14c0.55-0.17,0.91-0.52,1.07-1.07
		c0.05-0.16,0.09-0.16,0.14,0c0.17,0.55,0.52,0.91,1.07,1.07c0.16,0.05,0.16,0.09,0,0.14c-0.55,0.17-0.91,0.52-1.07,1.07
		C180.19,391.75,180.15,391.75,180.1,391.58z"/>
	<path class="st2" d="M226.77,160.26c-0.74,0-0.74,1.15,0,1.15C227.51,161.41,227.52,160.26,226.77,160.26z"/>
	<path class="st2" d="M216.07,220.47c-0.74,0-0.74,1.15,0,1.15C216.81,221.62,216.81,220.47,216.07,220.47z"/>
	<path class="st2" d="M241.39,15.73c-0.74,0-0.74,1.15,0,1.15C242.14,16.88,242.14,15.73,241.39,15.73z"/>
	<path class="st2" d="M210.77,21.62c-0.74,0-0.74,1.15,0,1.15C211.51,22.77,211.52,21.62,210.77,21.62z"/>
	<path class="st2" d="M241.39,94.95c-0.74,0-0.74,1.15,0,1.15C242.14,96.1,242.14,94.95,241.39,94.95z"/>
	<path class="st2" d="M219.45,142.42c-0.22-0.71-0.68-1.17-1.39-1.39c-0.21-0.06-0.21-0.12,0-0.18c0.71-0.22,1.17-0.68,1.39-1.39
		c0.06-0.21,0.12-0.21,0.18,0c0.22,0.71,0.68,1.17,1.39,1.39c0.21,0.06,0.21,0.12,0,0.18c-0.71,0.22-1.17,0.68-1.39,1.39
		C219.56,142.64,219.51,142.64,219.45,142.42z"/>
	<path class="st2" d="M241.7,212.46c-0.17-0.55-0.52-0.91-1.07-1.07c-0.16-0.05-0.16-0.09,0-0.14c0.55-0.17,0.91-0.52,1.07-1.07
		c0.05-0.16,0.09-0.16,0.14,0c0.17,0.55,0.52,0.91,1.07,1.07c0.16,0.05,0.16,0.09,0,0.14c-0.55,0.17-0.91,0.52-1.07,1.07
		C241.79,212.62,241.75,212.62,241.7,212.46z"/>
	<path class="st2" d="M225.44,80.75c-0.17-0.55-0.52-0.91-1.07-1.07c-0.16-0.05-0.16-0.09,0-0.14c0.55-0.17,0.91-0.52,1.07-1.07
		c0.05-0.16,0.09-0.16,0.14,0c0.17,0.55,0.52,0.91,1.07,1.07c0.16,0.05,0.16,0.09,0,0.14c-0.55,0.17-0.91,0.52-1.07,1.07
		C225.53,80.92,225.49,80.92,225.44,80.75z"/>
	<path class="st2" d="M205.21,61.99c-0.17-0.55-0.52-0.91-1.07-1.07c-0.16-0.05-0.16-0.09,0-0.14c0.55-0.17,0.91-0.52,1.07-1.07
		c0.05-0.16,0.09-0.16,0.14,0c0.17,0.55,0.52,0.91,1.07,1.07c0.16,0.05,0.16,0.09,0,0.14c-0.55,0.17-0.91,0.52-1.07,1.07
		C205.3,62.16,205.26,62.16,205.21,61.99z"/>
	<path class="st2" d="M156.24,89.68c-0.17-0.55-0.52-0.91-1.07-1.07c-0.16-0.05-0.16-0.09,0-0.14c0.55-0.17,0.91-0.52,1.07-1.07
		c0.05-0.16,0.09-0.16,0.14,0c0.17,0.55,0.52,0.91,1.07,1.07c0.16,0.05,0.16,0.09,0,0.14c-0.55,0.17-0.91,0.52-1.07,1.07
		C156.33,89.85,156.29,89.85,156.24,89.68z"/>
	<path class="st2" d="M189.22,260.44c-0.17-0.55-0.52-0.91-1.07-1.07c-0.16-0.05-0.16-0.09,0-0.14c0.55-0.17,0.91-0.52,1.07-1.07
		c0.05-0.16,0.09-0.16,0.14,0c0.17,0.55,0.52,0.91,1.07,1.07c0.16,0.05,0.16,0.09,0,0.14c-0.55,0.17-0.91,0.52-1.07,1.07
		C189.31,260.61,189.27,260.61,189.22,260.44z"/>
	<path class="st2" d="M411.32,87.04c-0.74,0-0.74,1.15,0,1.15S412.06,87.04,411.32,87.04z"/>
	<path class="st2" d="M350.33,162.16c-0.74,0-0.74,1.15,0,1.15C351.07,163.31,351.07,162.16,350.33,162.16z"/>
	<path class="st2" d="M404.41,232.74c-0.74,0-0.74,1.15,0,1.15S405.15,232.74,404.41,232.74z"/>
	<path class="st2" d="M445.86,160.97c-0.74,0-0.74,1.15,0,1.15C446.6,162.12,446.6,160.97,445.86,160.97z"/>
	<path class="st2" d="M435.16,221.18c-0.74,0-0.74,1.15,0,1.15C435.9,222.33,435.9,221.18,435.16,221.18z"/>
	<path class="st2" d="M416.88,21.05c-0.74,0-0.74,1.15,0,1.15C417.62,22.2,417.62,21.05,416.88,21.05z"/>
	<path class="st2" d="M379.32,146.65c-0.74,0-0.74,1.15,0,1.15C380.06,147.8,380.06,146.65,379.32,146.65z"/>
	<path class="st2" d="M404.79,273.85c-0.74,0-0.74,1.15,0,1.15C405.54,275,405.54,273.85,404.79,273.85z"/>
	<path class="st2" d="M374.56,32.22c-0.32-1.07-1.02-1.76-2.09-2.09c-0.32-0.09-0.32-0.17,0-0.27c1.07-0.32,1.76-1.02,2.09-2.09
		c0.09-0.32,0.17-0.32,0.27,0c0.32,1.07,1.02,1.76,2.09,2.09c0.32,0.09,0.32,0.17,0,0.27c-1.07,0.32-1.76,1.02-2.09,2.09
		C374.74,32.54,374.66,32.54,374.56,32.22z"/>
	<path class="st2" d="M418.43,195.73c-0.32-1.07-1.02-1.76-2.09-2.09c-0.32-0.09-0.32-0.17,0-0.27c1.07-0.32,1.76-1.02,2.09-2.09
		c0.09-0.32,0.17-0.32,0.27,0c0.32,1.07,1.02,1.76,2.09,2.09c0.32,0.09,0.32,0.17,0,0.27c-1.07,0.32-1.76,1.02-2.09,2.09
		C418.6,196.05,418.52,196.05,418.43,195.73z"/>
	<path class="st2" d="M438.53,143.13c-0.22-0.71-0.68-1.17-1.39-1.39c-0.21-0.06-0.21-0.12,0-0.18c0.71-0.22,1.17-0.68,1.39-1.39
		c0.06-0.21,0.12-0.21,0.18,0c0.22,0.71,0.68,1.17,1.39,1.39c0.21,0.06,0.21,0.12,0,0.18c-0.71,0.22-1.17,0.68-1.39,1.39
		C438.65,143.35,438.6,143.35,438.53,143.13z"/>
	<path class="st2" d="M384.18,199.86c-0.17-0.55-0.52-0.91-1.07-1.07c-0.16-0.05-0.16-0.09,0-0.14c0.55-0.17,0.91-0.52,1.07-1.07
		c0.05-0.16,0.09-0.16,0.14,0c0.17,0.55,0.52,0.91,1.07,1.07c0.16,0.05,0.16,0.09,0,0.14c-0.55,0.17-0.91,0.52-1.07,1.07
		C384.27,200.02,384.23,200.02,384.18,199.86z"/>
	<path class="st2" d="M350.55,368.4c-0.74,0-0.74,1.15,0,1.15C351.29,369.56,351.29,368.4,350.55,368.4z"/>
	<path class="st2" d="M401.95,376.84c-0.74,0-0.74,1.15,0,1.15S402.69,376.84,401.95,376.84z"/>
	<path class="st2" d="M390.1,342.24c-0.32-1.07-1.02-1.76-2.09-2.09c-0.32-0.09-0.32-0.17,0-0.27c1.07-0.32,1.76-1.02,2.09-2.09
		c0.09-0.32,0.17-0.32,0.27,0c0.32,1.07,1.02,1.76,2.09,2.09c0.32,0.09,0.32,0.17,0,0.27c-1.07,0.32-1.76,1.02-2.09,2.09
		C390.28,342.56,390.2,342.56,390.1,342.24z"/>
	<path class="st2" d="M354.58,291.13c-0.17-0.55-0.52-0.91-1.07-1.07c-0.16-0.05-0.16-0.09,0-0.14c0.55-0.17,0.91-0.52,1.07-1.07
		c0.05-0.16,0.09-0.16,0.14,0c0.17,0.55,0.52,0.91,1.07,1.07c0.16,0.05,0.16,0.09,0,0.14c-0.55,0.17-0.91,0.52-1.07,1.07
		C354.67,291.29,354.63,291.29,354.58,291.13z"/>
	<path class="st2" d="M428.48,300.45c-0.17-0.55-0.52-0.91-1.07-1.07c-0.16-0.05-0.16-0.09,0-0.14c0.55-0.17,0.91-0.52,1.07-1.07
		c0.05-0.16,0.09-0.16,0.14,0c0.17,0.55,0.52,0.91,1.07,1.07c0.16,0.05,0.16,0.09,0,0.14c-0.55,0.17-0.91,0.52-1.07,1.07
		C428.57,300.61,428.53,300.61,428.48,300.45z"/>
	<path class="st2" d="M444.53,81.46c-0.17-0.55-0.52-0.91-1.07-1.07c-0.16-0.05-0.16-0.09,0-0.14c0.55-0.17,0.91-0.52,1.07-1.07
		c0.05-0.16,0.09-0.16,0.14,0c0.17,0.55,0.52,0.91,1.07,1.07c0.16,0.05,0.16,0.09,0,0.14c-0.55,0.17-0.91,0.52-1.07,1.07
		C444.62,81.62,444.58,81.62,444.53,81.46z"/>
	<path class="st2" d="M424.3,62.7c-0.17-0.55-0.52-0.91-1.07-1.07c-0.16-0.05-0.16-0.09,0-0.14c0.55-0.17,0.91-0.52,1.07-1.07
		c0.05-0.16,0.09-0.16,0.14,0c0.17,0.55,0.52,0.91,1.07,1.07c0.16,0.05,0.16,0.09,0,0.14c-0.55,0.17-0.91,0.52-1.07,1.07
		C424.39,62.87,424.35,62.87,424.3,62.7z"/>
	<path class="st2" d="M384.56,69.35c-0.17-0.55-0.52-0.91-1.07-1.07c-0.16-0.05-0.16-0.09,0-0.14c0.55-0.17,0.91-0.52,1.07-1.07
		c0.05-0.16,0.09-0.16,0.14,0c0.17,0.55,0.52,0.91,1.07,1.07c0.16,0.05,0.16,0.09,0,0.14c-0.55,0.17-0.91,0.52-1.07,1.07
		C384.65,69.52,384.61,69.52,384.56,69.35z"/>
	<path class="st2" d="M331.52,96.6c-0.74,0-0.74,1.15,0,1.15C332.26,97.75,332.26,96.6,331.52,96.6z"/>
	<path class="st2" d="M270.53,185.91c-0.74,0-0.74,1.15,0,1.15S271.28,185.91,270.53,185.91z"/>
	<path class="st2" d="M324.62,242.29c-0.74,0-0.74,1.15,0,1.15C325.36,243.45,325.36,242.29,324.62,242.29z"/>
	<path class="st2" d="M366.07,184.72c-0.74,0-0.74,1.15,0,1.15S366.81,184.72,366.07,184.72z"/>
	<path class="st2" d="M355.36,230.74c-0.74,0-0.74,1.15,0,1.15C356.1,231.89,356.11,230.74,355.36,230.74z"/>
	<path class="st2" d="M256.34,220.43c-0.74,0-0.74,1.15,0,1.15C257.08,221.58,257.08,220.43,256.34,220.43z"/>
	<path class="st2" d="M255.79,79.66c-0.74,0-0.74,1.15,0,1.15C256.53,80.81,256.53,79.66,255.79,79.66z"/>
	<path class="st2" d="M260.64,31.31c-0.74,0-0.74,1.15,0,1.15C261.38,32.47,261.38,31.31,260.64,31.31z"/>
	<path class="st2" d="M350.07,31.89c-0.74,0-0.74,1.15,0,1.15S350.81,31.89,350.07,31.89z"/>
	<path class="st2" d="M380.69,105.22c-0.74,0-0.74,1.15,0,1.15S381.43,105.22,380.69,105.22z"/>
	<path class="st2" d="M299.53,156.21c-0.74,0-0.74,1.15,0,1.15S300.27,156.21,299.53,156.21z"/>
	<path class="st2" d="M265.16,134.51c-0.74,0-0.74,1.15,0,1.15C265.9,135.66,265.91,134.51,265.16,134.51z"/>
	<path class="st2" d="M325,283.41c-0.74,0-0.74,1.15,0,1.15S325.74,283.41,325,283.41z"/>
	<path class="st2" d="M299.95,71.7c-0.32-1.07-1.02-1.76-2.09-2.09c-0.32-0.09-0.32-0.17,0-0.27c1.07-0.32,1.76-1.02,2.09-2.09
		c0.09-0.32,0.17-0.32,0.27,0c0.32,1.07,1.02,1.76,2.09,2.09c0.32,0.09,0.32,0.17,0,0.27c-1.07,0.32-1.76,1.02-2.09,2.09
		C300.12,72.02,300.04,72.02,299.95,71.7z"/>
	<path class="st2" d="M294.47,26.86c-0.32-1.07-1.02-1.76-2.09-2.09c-0.32-0.09-0.32-0.17,0-0.27c1.07-0.32,1.76-1.02,2.09-2.09
		c0.09-0.32,0.17-0.32,0.27,0c0.32,1.07,1.02,1.76,2.09,2.09c0.32,0.09,0.32,0.17,0,0.27c-1.07,0.32-1.76,1.02-2.09,2.09
		C294.65,27.18,294.57,27.18,294.47,26.86z"/>
	<path class="st2" d="M358.74,152.69c-0.22-0.71-0.68-1.17-1.39-1.39c-0.21-0.06-0.21-0.12,0-0.18c0.71-0.22,1.17-0.68,1.39-1.39
		c0.06-0.21,0.12-0.21,0.18,0c0.22,0.71,0.68,1.17,1.39,1.39c0.21,0.06,0.21,0.12,0,0.18c-0.71,0.22-1.17,0.68-1.39,1.39
		C358.86,152.9,358.8,152.9,358.74,152.69z"/>
	<path class="st2" d="M287.72,238.98c-0.17-0.55-0.52-0.91-1.07-1.07c-0.16-0.05-0.16-0.09,0-0.14c0.55-0.17,0.91-0.52,1.07-1.07
		c0.05-0.16,0.09-0.16,0.14,0c0.17,0.55,0.52,0.91,1.07,1.07c0.16,0.05,0.16,0.09,0,0.14c-0.55,0.17-0.91,0.52-1.07,1.07
		C287.81,239.14,287.76,239.14,287.72,238.98z"/>
	<path class="st2" d="M304.39,209.42c-0.17-0.55-0.52-0.91-1.07-1.07c-0.16-0.05-0.16-0.09,0-0.14c0.55-0.17,0.91-0.52,1.07-1.07
		c0.05-0.16,0.09-0.16,0.14,0c0.17,0.55,0.52,0.91,1.07,1.07c0.16,0.05,0.16,0.09,0,0.14c-0.55,0.17-0.91,0.52-1.07,1.07
		C304.48,209.58,304.43,209.58,304.39,209.42z"/>
	<path class="st2" d="M377.58,223.87c-0.17-0.55-0.52-0.91-1.07-1.07c-0.16-0.05-0.16-0.09,0-0.14c0.55-0.17,0.91-0.52,1.07-1.07
		c0.05-0.16,0.09-0.16,0.14,0c0.17,0.55,0.52,0.91,1.07,1.07c0.16,0.05,0.16,0.09,0,0.14c-0.55,0.17-0.91,0.52-1.07,1.07
		C377.67,224.04,377.63,224.04,377.58,223.87z"/>
	<path class="st2" d="M252.09,319.67c-0.74,0-0.74,1.15,0,1.15C252.83,320.83,252.83,319.67,252.09,319.67z"/>
	<path class="st2" d="M270.76,377.96c-0.74,0-0.74,1.15,0,1.15S271.5,377.96,270.76,377.96z"/>
	<path class="st2" d="M322.16,386.4c-0.74,0-0.74,1.15,0,1.15S322.9,386.4,322.16,386.4z"/>
	<path class="st2" d="M310.31,351.8c-0.32-1.07-1.02-1.76-2.09-2.09c-0.32-0.09-0.32-0.17,0-0.27c1.07-0.32,1.76-1.02,2.09-2.09
		c0.09-0.32,0.17-0.32,0.27,0c0.32,1.07,1.02,1.76,2.09,2.09c0.32,0.09,0.32,0.17,0,0.27c-1.07,0.32-1.76,1.02-2.09,2.09
		C310.49,352.12,310.41,352.12,310.31,351.8z"/>
	<path class="st2" d="M274.78,300.69c-0.17-0.55-0.52-0.91-1.07-1.07c-0.16-0.05-0.16-0.09,0-0.14c0.55-0.17,0.91-0.52,1.07-1.07
		c0.05-0.16,0.09-0.16,0.14,0c0.17,0.55,0.52,0.91,1.07,1.07c0.16,0.05,0.16,0.09,0,0.14c-0.55,0.17-0.91,0.52-1.07,1.07
		C274.87,300.85,274.83,300.85,274.78,300.69z"/>
	<path class="st2" d="M379.42,379.11c-0.17-0.55-0.52-0.91-1.07-1.07c-0.16-0.05-0.16-0.09,0-0.14c0.55-0.17,0.91-0.52,1.07-1.07
		c0.05-0.16,0.09-0.16,0.14,0c0.17,0.55,0.52,0.91,1.07,1.07c0.16,0.05,0.16,0.09,0,0.14c-0.55,0.17-0.91,0.52-1.07,1.07
		C379.51,379.27,379.47,379.27,379.42,379.11z"/>
	<path class="st2" d="M339.17,408.31c-0.74,0-0.74,1.15,0,1.15C339.92,409.46,339.92,408.31,339.17,408.31z"/>
	<path class="st2" d="M390.57,416.74c-0.74,0-0.74,1.15,0,1.15C391.31,417.89,391.32,416.74,390.57,416.74z"/>
	<path class="st2" d="M368.04,419.01c-0.17-0.55-0.52-0.91-1.07-1.07c-0.16-0.05-0.16-0.09,0-0.14c0.55-0.17,0.91-0.52,1.07-1.07
		c0.05-0.16,0.09-0.16,0.14,0c0.17,0.55,0.52,0.91,1.07,1.07c0.16,0.05,0.16,0.09,0,0.14c-0.55,0.17-0.91,0.52-1.07,1.07
		C368.13,419.17,368.09,419.17,368.04,419.01z"/>
	<path class="st2" d="M305.71,441.71c-0.74,0-0.74,1.15,0,1.15C306.45,442.86,306.45,441.71,305.71,441.71z"/>
	<path class="st2" d="M277.32,459.71c-0.74,0-0.74,1.15,0,1.15S278.06,459.71,277.32,459.71z"/>
	<path class="st2" d="M265.47,425.11c-0.32-1.07-1.02-1.76-2.09-2.09c-0.32-0.09-0.32-0.17,0-0.27c1.07-0.32,1.76-1.02,2.09-2.09
		c0.09-0.32,0.17-0.32,0.27,0c0.32,1.07,1.02,1.76,2.09,2.09c0.32,0.09,0.32,0.17,0,0.27c-1.07,0.32-1.76,1.02-2.09,2.09
		C265.65,425.43,265.57,425.43,265.47,425.11z"/>
	<path class="st2" d="M334.58,452.41c-0.17-0.55-0.52-0.91-1.07-1.07c-0.16-0.05-0.16-0.09,0-0.14c0.55-0.17,0.91-0.52,1.07-1.07
		c0.05-0.16,0.09-0.16,0.14,0c0.17,0.55,0.52,0.91,1.07,1.07c0.16,0.05,0.16,0.09,0,0.14c-0.55,0.17-0.91,0.52-1.07,1.07
		C334.67,452.58,334.63,452.58,334.58,452.41z"/>
	<path class="st2" d="M383.25,467.66c-0.74,0-0.74,1.15,0,1.15S383.99,467.66,383.25,467.66z"/>
	<path class="st2" d="M434.65,476.1c-0.74,0-0.74,1.15,0,1.15C435.39,477.25,435.39,476.1,434.65,476.1z"/>
	<path class="st2" d="M422.81,441.5c-0.32-1.07-1.02-1.76-2.09-2.09c-0.32-0.09-0.32-0.17,0-0.27c1.07-0.32,1.76-1.02,2.09-2.09
		c0.09-0.32,0.17-0.32,0.27,0c0.32,1.07,1.02,1.76,2.09,2.09c0.32,0.09,0.32,0.17,0,0.27c-1.07,0.32-1.76,1.02-2.09,2.09
		C422.98,441.82,422.9,441.82,422.81,441.5z"/>
	<path class="st2" d="M354.86,485.66c-0.74,0-0.74,1.15,0,1.15C355.6,486.81,355.6,485.66,354.86,485.66z"/>
	<path class="st2" d="M412.12,478.36c-0.17-0.55-0.52-0.91-1.07-1.07c-0.16-0.05-0.16-0.09,0-0.14c0.55-0.17,0.91-0.52,1.07-1.07
		c0.05-0.16,0.09-0.16,0.14,0c0.17,0.55,0.52,0.91,1.07,1.07c0.16,0.05,0.16,0.09,0,0.14c-0.55,0.17-0.91,0.52-1.07,1.07
		C412.21,478.53,412.17,478.53,412.12,478.36z"/>
	<path class="st2" d="M118.04,408.31c-0.74,0-0.74,1.15,0,1.15S118.78,408.31,118.04,408.31z"/>
	<path class="st2" d="M169.44,416.74c-0.74,0-0.74,1.15,0,1.15C170.18,417.89,170.18,416.74,169.44,416.74z"/>
	<path class="st2" d="M146.91,419.01c-0.17-0.55-0.52-0.91-1.07-1.07c-0.16-0.05-0.16-0.09,0-0.14c0.55-0.17,0.91-0.52,1.07-1.07
		c0.05-0.16,0.09-0.16,0.14,0c0.17,0.55,0.52,0.91,1.07,1.07c0.16,0.05,0.16,0.09,0,0.14c-0.55,0.17-0.91,0.52-1.07,1.07
		C147,419.17,146.96,419.17,146.91,419.01z"/>
	<path class="st2" d="M84.58,441.71c-0.74,0-0.74,1.15,0,1.15S85.32,441.71,84.58,441.71z"/>
	<path class="st2" d="M56.18,459.71c-0.74,0-0.74,1.15,0,1.15C56.92,460.86,56.92,459.71,56.18,459.71z"/>
	<path class="st2" d="M44.34,425.11c-0.32-1.07-1.02-1.76-2.09-2.09c-0.32-0.09-0.32-0.17,0-0.27c1.07-0.32,1.76-1.02,2.09-2.09
		c0.09-0.32,0.17-0.32,0.27,0c0.32,1.07,1.02,1.76,2.09,2.09c0.32,0.09,0.32,0.17,0,0.27c-1.07,0.32-1.76,1.02-2.09,2.09
		C44.51,425.43,44.43,425.43,44.34,425.11z"/>
	<path class="st2" d="M113.44,452.41c-0.17-0.55-0.52-0.91-1.07-1.07c-0.16-0.05-0.16-0.09,0-0.14c0.55-0.17,0.91-0.52,1.07-1.07
		c0.05-0.16,0.09-0.16,0.14,0c0.17,0.55,0.52,0.91,1.07,1.07c0.16,0.05,0.16,0.09,0,0.14c-0.55,0.17-0.91,0.52-1.07,1.07
		C113.53,452.58,113.49,452.58,113.44,452.41z"/>
	<path class="st2" d="M54.72,486.13c-0.74,0-0.74,1.15,0,1.15C55.46,487.28,55.46,486.13,54.72,486.13z"/>
	<path class="st2" d="M12.26,469.96c-0.74,0-0.74,1.15,0,1.15S13.01,469.96,12.26,469.96z"/>
	<path class="st2" d="M162.12,467.66c-0.74,0-0.74,1.15,0,1.15S162.86,467.66,162.12,467.66z"/>
	<path class="st2" d="M213.52,476.1c-0.74,0-0.74,1.15,0,1.15C214.26,477.25,214.26,476.1,213.52,476.1z"/>
	<path class="st2" d="M201.67,441.5c-0.32-1.07-1.02-1.76-2.09-2.09c-0.32-0.09-0.32-0.17,0-0.27c1.07-0.32,1.76-1.02,2.09-2.09
		c0.09-0.32,0.17-0.32,0.27,0c0.32,1.07,1.02,1.76,2.09,2.09c0.32,0.09,0.32,0.17,0,0.27c-1.07,0.32-1.76,1.02-2.09,2.09
		C201.85,441.82,201.77,441.82,201.67,441.5z"/>
	<path class="st2" d="M133.72,485.66c-0.74,0-0.74,1.15,0,1.15S134.46,485.66,133.72,485.66z"/>
	<path class="st2" d="M190.98,478.36c-0.17-0.55-0.52-0.91-1.07-1.07c-0.16-0.05-0.16-0.09,0-0.14c0.55-0.17,0.91-0.52,1.07-1.07
		c0.05-0.16,0.09-0.16,0.14,0c0.17,0.55,0.52,0.91,1.07,1.07c0.16,0.05,0.16,0.09,0,0.14c-0.55,0.17-0.91,0.52-1.07,1.07
		C191.07,478.53,191.03,478.53,190.98,478.36z"/>
	<path class="st2" d="M264.56,350.72c-0.17-0.55-0.52-0.91-1.07-1.07c-0.16-0.05-0.16-0.09,0-0.14c0.55-0.17,0.91-0.52,1.07-1.07
		c0.05-0.16,0.09-0.16,0.14,0c0.17,0.55,0.52,0.91,1.07,1.07c0.16,0.05,0.16,0.09,0,0.14c-0.55,0.17-0.91,0.52-1.07,1.07
		C264.65,350.89,264.61,350.89,264.56,350.72z"/>
	<path class="st2" d="M348.69,310.01c-0.17-0.55-0.52-0.91-1.07-1.07c-0.16-0.05-0.16-0.09,0-0.14c0.55-0.17,0.91-0.52,1.07-1.07
		c0.05-0.16,0.09-0.16,0.14,0c0.17,0.55,0.52,0.91,1.07,1.07c0.16,0.05,0.16,0.09,0,0.14c-0.55,0.17-0.91,0.52-1.07,1.07
		C348.78,310.17,348.74,310.17,348.69,310.01z"/>
	<path class="st2" d="M251.35,244.59c-0.17-0.55-0.52-0.91-1.07-1.07c-0.16-0.05-0.16-0.09,0-0.14c0.55-0.17,0.91-0.52,1.07-1.07
		c0.05-0.16,0.09-0.16,0.14,0c0.17,0.55,0.52,0.91,1.07,1.07c0.16,0.05,0.16,0.09,0,0.14c-0.55,0.17-0.91,0.52-1.07,1.07
		C251.44,244.75,251.4,244.75,251.35,244.59z"/>
	<path class="st2" d="M364.73,91.02c-0.17-0.55-0.52-0.91-1.07-1.07c-0.16-0.05-0.16-0.09,0-0.14c0.55-0.17,0.91-0.52,1.07-1.07
		c0.05-0.16,0.09-0.16,0.14,0c0.17,0.55,0.52,0.91,1.07,1.07c0.16,0.05,0.16,0.09,0,0.14c-0.55,0.17-0.91,0.52-1.07,1.07
		C364.82,91.18,364.78,91.18,364.73,91.02z"/>
	<path class="st2" d="M344.51,72.26c-0.17-0.55-0.52-0.91-1.07-1.07c-0.16-0.05-0.16-0.09,0-0.14c0.55-0.17,0.91-0.52,1.07-1.07
		c0.05-0.16,0.09-0.16,0.14,0c0.17,0.55,0.52,0.91,1.07,1.07c0.16,0.05,0.16,0.09,0,0.14c-0.55,0.17-0.91,0.52-1.07,1.07
		C344.6,72.43,344.55,72.43,344.51,72.26z"/>
	<path class="st2" d="M294.54,127.6c-0.17-0.55-0.52-0.91-1.07-1.07c-0.16-0.05-0.16-0.09,0-0.14c0.55-0.17,0.91-0.52,1.07-1.07
		c0.05-0.16,0.09-0.16,0.14,0c0.17,0.55,0.52,0.91,1.07,1.07c0.16,0.05,0.16,0.09,0,0.14c-0.55,0.17-0.91,0.52-1.07,1.07
		C294.63,127.76,294.59,127.76,294.54,127.6z"/>
	<path class="st2" d="M577.06,87.39c-0.74,0-0.74,1.15,0,1.15S577.8,87.39,577.06,87.39z"/>
	<path class="st2" d="M450.09,96.6c-0.74,0-0.74,1.15,0,1.15S450.83,96.6,450.09,96.6z"/>
	<path class="st2" d="M443.19,242.29c-0.74,0-0.74,1.15,0,1.15C443.93,243.45,443.93,242.29,443.19,242.29z"/>
	<path class="st2" d="M484.64,184.72c-0.74,0-0.74,1.15,0,1.15S485.38,184.72,484.64,184.72z"/>
	<path class="st2" d="M523.91,161.59c-0.74,0-0.74,1.15,0,1.15C524.65,162.74,524.66,161.59,523.91,161.59z"/>
	<path class="st2" d="M473.94,230.74c-0.74,0-0.74,1.15,0,1.15S474.68,230.74,473.94,230.74z"/>
	<path class="st2" d="M521.46,321.91c-0.74,0-0.74,1.15,0,1.15S522.2,321.91,521.46,321.91z"/>
	<path class="st2" d="M614.26,321.34c-0.74,0-0.74,1.15,0,1.15S615,321.34,614.26,321.34z"/>
	<path class="st2" d="M507.43,26.57c-0.74,0-0.74,1.15,0,1.15C508.17,27.72,508.17,26.57,507.43,26.57z"/>
	<path class="st2" d="M468.64,31.89c-0.74,0-0.74,1.15,0,1.15S469.38,31.89,468.64,31.89z"/>
	<path class="st2" d="M580.68,36.07c-0.74,0-0.74,1.15,0,1.15C581.42,37.23,581.42,36.07,580.68,36.07z"/>
	<path class="st2" d="M516.83,72.43c-0.74,0-0.74,1.15,0,1.15C517.58,73.58,517.58,72.43,516.83,72.43z"/>
	<path class="st2" d="M541.96,119.09c-0.74,0-0.74,1.15,0,1.15S542.7,119.09,541.96,119.09z"/>
	<path class="st2" d="M564.64,144.85c-0.74,0-0.74,1.15,0,1.15S565.38,144.85,564.64,144.85z"/>
	<path class="st2" d="M499.26,105.22c-0.74,0-0.74,1.15,0,1.15S500,105.22,499.26,105.22z"/>
	<path class="st2" d="M580.12,214.29c-0.74,0-0.74,1.15,0,1.15C580.86,215.44,580.87,214.29,580.12,214.29z"/>
	<path class="st2" d="M552.89,234.62c-0.74,0-0.74,1.15,0,1.15C553.63,235.77,553.63,234.62,552.89,234.62z"/>
	<path class="st2" d="M547.27,296.33c-0.74,0-0.74,1.15,0,1.15C548.01,297.48,548.01,296.33,547.27,296.33z"/>
	<path class="st2" d="M580.68,281.71c-0.74,0-0.74,1.15,0,1.15S581.42,281.71,580.68,281.71z"/>
	<path class="st2" d="M631.52,222.73c-0.74,0-0.74,1.15,0,1.15C632.26,223.88,632.26,222.73,631.52,222.73z"/>
	<path class="st2" d="M614.26,125.31c-0.74,0-0.74,1.15,0,1.15S615,125.31,614.26,125.31z"/>
	<path class="st2" d="M633.06,68.21c-0.74,0-0.74,1.15,0,1.15S633.8,68.21,633.06,68.21z"/>
	<path class="st2" d="M443.57,283.41c-0.74,0-0.74,1.15,0,1.15S444.31,283.41,443.57,283.41z"/>
	<path class="st2" d="M492.7,311.09c-0.32-1.07-1.02-1.76-2.09-2.09c-0.32-0.09-0.32-0.17,0-0.27c1.07-0.32,1.76-1.02,2.09-2.09
		c0.09-0.32,0.17-0.32,0.27,0c0.32,1.07,1.02,1.76,2.09,2.09c0.32,0.09,0.32,0.17,0,0.27c-1.07,0.32-1.76,1.02-2.09,2.09
		C492.88,311.41,492.8,311.41,492.7,311.09z"/>
	<path class="st2" d="M477.31,152.69c-0.22-0.71-0.68-1.17-1.39-1.39c-0.21-0.06-0.21-0.12,0-0.18c0.71-0.22,1.17-0.68,1.39-1.39
		c0.06-0.21,0.12-0.21,0.18,0c0.22,0.71,0.68,1.17,1.39,1.39c0.21,0.06,0.21,0.12,0,0.18c-0.71,0.22-1.17,0.68-1.39,1.39
		C477.43,152.9,477.37,152.9,477.31,152.69z"/>
	<path class="st2" d="M583.28,322.81c-0.22-0.71-0.68-1.17-1.39-1.39c-0.21-0.06-0.21-0.12,0-0.18c0.71-0.22,1.17-0.68,1.39-1.39
		c0.06-0.21,0.12-0.21,0.18,0c0.22,0.71,0.68,1.17,1.39,1.39c0.21,0.06,0.21,0.12,0,0.18c-0.71,0.22-1.17,0.68-1.39,1.39
		C583.4,323.03,583.35,323.03,583.28,322.81z"/>
	<path class="st2" d="M496.16,223.87c-0.17-0.55-0.52-0.91-1.07-1.07c-0.16-0.05-0.16-0.09,0-0.14c0.55-0.17,0.91-0.52,1.07-1.07
		c0.05-0.16,0.09-0.16,0.14,0c0.17,0.55,0.52,0.91,1.07,1.07c0.16,0.05,0.16,0.09,0,0.14c-0.55,0.17-0.91,0.52-1.07,1.07
		C496.25,224.04,496.2,224.04,496.16,223.87z"/>
	<path class="st2" d="M528.72,206.26c-0.17-0.55-0.52-0.91-1.07-1.07c-0.16-0.05-0.16-0.09,0-0.14c0.55-0.17,0.91-0.52,1.07-1.07
		c0.05-0.16,0.09-0.16,0.14,0c0.17,0.55,0.52,0.91,1.07,1.07c0.16,0.05,0.16,0.09,0,0.14c-0.55,0.17-0.91,0.52-1.07,1.07
		C528.81,206.43,528.77,206.43,528.72,206.26z"/>
	<path class="st2" d="M573.93,187.05c-0.17-0.55-0.52-0.91-1.07-1.07c-0.16-0.05-0.16-0.09,0-0.14c0.55-0.17,0.91-0.52,1.07-1.07
		c0.05-0.16,0.09-0.16,0.14,0c0.17,0.55,0.52,0.91,1.07,1.07c0.16,0.05,0.16,0.09,0,0.14c-0.55,0.17-0.91,0.52-1.07,1.07
		C574.02,187.22,573.98,187.22,573.93,187.05z"/>
	<path class="st2" d="M440.73,386.4c-0.74,0-0.74,1.15,0,1.15S441.47,386.4,440.73,386.4z"/>
	<path class="st2" d="M457.27,347.22c-0.74,0-0.74,1.15,0,1.15C458.01,348.37,458.01,347.22,457.27,347.22z"/>
	<path class="st2" d="M479.41,484.76c-0.74,0-0.74,1.15,0,1.15S480.15,484.76,479.41,484.76z"/>
	<path class="st2" d="M497.99,379.11c-0.17-0.55-0.52-0.91-1.07-1.07c-0.16-0.05-0.16-0.09,0-0.14c0.55-0.17,0.91-0.52,1.07-1.07
		c0.05-0.16,0.09-0.16,0.14,0c0.17,0.55,0.52,0.91,1.07,1.07c0.16,0.05,0.16,0.09,0,0.14c-0.55,0.17-0.91,0.52-1.07,1.07
		C498.08,379.27,498.04,379.27,497.99,379.11z"/>
	<path class="st2" d="M467.26,310.01c-0.17-0.55-0.52-0.91-1.07-1.07c-0.16-0.05-0.16-0.09,0-0.14c0.55-0.17,0.91-0.52,1.07-1.07
		c0.05-0.16,0.09-0.16,0.14,0c0.17,0.55,0.52,0.91,1.07,1.07c0.16,0.05,0.16,0.09,0,0.14c-0.55,0.17-0.91,0.52-1.07,1.07
		C467.35,310.17,467.31,310.17,467.26,310.01z"/>
	<path class="st2" d="M603.7,57.6c-0.17-0.55-0.52-0.91-1.07-1.07c-0.16-0.05-0.16-0.09,0-0.14c0.55-0.17,0.91-0.52,1.07-1.07
		c0.05-0.16,0.09-0.16,0.14,0c0.17,0.55,0.52,0.91,1.07,1.07c0.16,0.05,0.16,0.09,0,0.14c-0.55,0.17-0.91,0.52-1.07,1.07
		C603.79,57.77,603.75,57.77,603.7,57.6z"/>
	<path class="st2" d="M483.3,91.02c-0.17-0.55-0.52-0.91-1.07-1.07c-0.16-0.05-0.16-0.09,0-0.14c0.55-0.17,0.91-0.52,1.07-1.07
		c0.05-0.16,0.09-0.16,0.14,0c0.17,0.55,0.52,0.91,1.07,1.07c0.16,0.05,0.16,0.09,0,0.14c-0.55,0.17-0.91,0.52-1.07,1.07
		C483.39,91.18,483.35,91.18,483.3,91.02z"/>
	<path class="st2" d="M549.67,29.87c-0.17-0.55-0.52-0.91-1.07-1.07c-0.16-0.05-0.16-0.09,0-0.14c0.55-0.17,0.91-0.52,1.07-1.07
		c0.05-0.16,0.09-0.16,0.14,0c0.17,0.55,0.52,0.91,1.07,1.07c0.16,0.05,0.16,0.09,0,0.14c-0.55,0.17-0.91,0.52-1.07,1.07
		C549.76,30.04,549.72,30.04,549.67,29.87z"/>
	<path class="st2" d="M463.08,72.26c-0.17-0.55-0.52-0.91-1.07-1.07c-0.16-0.05-0.16-0.09,0-0.14c0.55-0.17,0.91-0.52,1.07-1.07
		c0.05-0.16,0.09-0.16,0.14,0c0.17,0.55,0.52,0.91,1.07,1.07c0.16,0.05,0.16,0.09,0,0.14c-0.55,0.17-0.91,0.52-1.07,1.07
		C463.17,72.43,463.13,72.43,463.08,72.26z"/>
	<path class="st2" d="M674.03,353.18c-0.74,0-0.74,1.15,0,1.15S674.78,353.18,674.03,353.18z"/>
	<path class="st2" d="M694.1,482.56c-0.74,0-0.74,1.15,0,1.15C694.84,483.71,694.84,482.56,694.1,482.56z"/>
	<path class="st2" d="M536.09,377.39c-0.74,0-0.74,1.15,0,1.15S536.83,377.39,536.09,377.39z"/>
	<path class="st2" d="M545.81,357.92c-0.74,0-0.74,1.15,0,1.15S546.56,357.92,545.81,357.92z"/>
	<path class="st2" d="M635.24,358.5c-0.74,0-0.74,1.15,0,1.15S635.98,358.5,635.24,358.5z"/>
	<path class="st2" d="M689.88,366.39c-0.74,0-0.74,1.15,0,1.15S690.62,366.39,689.88,366.39z"/>
	<path class="st2" d="M576.61,372.9c-0.32-1.07-1.02-1.76-2.09-2.09c-0.32-0.09-0.32-0.17,0-0.27c1.07-0.32,1.76-1.02,2.09-2.09
		c0.09-0.32,0.17-0.32,0.27,0c0.32,1.07,1.02,1.76,2.09,2.09c0.32,0.09,0.32,0.17,0,0.27c-1.07,0.32-1.76,1.02-2.09,2.09
		C576.78,373.22,576.7,373.22,576.61,372.9z"/>
	<path class="st2" d="M610.6,353.97c-0.32-1.07-1.02-1.76-2.09-2.09c-0.32-0.09-0.32-0.17,0-0.27c1.07-0.32,1.76-1.02,2.09-2.09
		c0.09-0.32,0.17-0.32,0.27,0c0.32,1.07,1.02,1.76,2.09,2.09c0.32,0.09,0.32,0.17,0,0.27c-1.07,0.32-1.76,1.02-2.09,2.09
		C610.77,354.29,610.69,354.29,610.6,353.97z"/>
	<path class="st2" d="M656.35,384.98c-0.17-0.55-0.52-0.91-1.07-1.07c-0.16-0.05-0.16-0.09,0-0.14c0.55-0.17,0.91-0.52,1.07-1.07
		c0.05-0.16,0.09-0.16,0.14,0c0.17,0.55,0.52,0.91,1.07,1.07c0.16,0.05,0.16,0.09,0,0.14c-0.55,0.17-0.91,0.52-1.07,1.07
		C656.44,385.14,656.4,385.14,656.35,384.98z"/>
	<path class="st2" d="M680.24,317.9c-0.17-0.55-0.52-0.91-1.07-1.07c-0.16-0.05-0.16-0.09,0-0.14c0.55-0.17,0.91-0.52,1.07-1.07
		c0.05-0.16,0.09-0.16,0.14,0c0.17,0.55,0.52,0.91,1.07,1.07c0.16,0.05,0.16,0.09,0,0.14c-0.55,0.17-0.91,0.52-1.07,1.07
		C680.32,318.07,680.28,318.07,680.24,317.9z"/>
	<path class="st2" d="M629.68,391.58c-0.17-0.55-0.52-0.91-1.07-1.07c-0.16-0.05-0.16-0.09,0-0.14c0.55-0.17,0.91-0.52,1.07-1.07
		c0.05-0.16,0.09-0.16,0.14,0c0.17,0.55,0.52,0.91,1.07,1.07c0.16,0.05,0.16,0.09,0,0.14c-0.55,0.17-0.91,0.52-1.07,1.07
		C629.77,391.75,629.73,391.75,629.68,391.58z"/>
	<path class="st2" d="M676.36,160.26c-0.74,0-0.74,1.15,0,1.15C677.1,161.41,677.1,160.26,676.36,160.26z"/>
	<path class="st2" d="M665.65,220.47c-0.74,0-0.74,1.15,0,1.15S666.4,220.47,665.65,220.47z"/>
	<path class="st2" d="M690.98,15.73c-0.74,0-0.74,1.15,0,1.15S691.72,15.73,690.98,15.73z"/>
	<path class="st2" d="M660.36,21.62c-0.74,0-0.74,1.15,0,1.15S661.1,21.62,660.36,21.62z"/>
	<path class="st2" d="M690.98,94.95c-0.74,0-0.74,1.15,0,1.15S691.72,94.95,690.98,94.95z"/>
	<path class="st2" d="M626.19,158.47c-0.74,0-0.74,1.15,0,1.15C626.94,159.62,626.94,158.47,626.19,158.47z"/>
	<path class="st2" d="M691.28,212.46c-0.17-0.55-0.52-0.91-1.07-1.07c-0.16-0.05-0.16-0.09,0-0.14c0.55-0.17,0.91-0.52,1.07-1.07
		c0.05-0.16,0.09-0.16,0.14,0c0.17,0.55,0.52,0.91,1.07,1.07c0.16,0.05,0.16,0.09,0,0.14c-0.55,0.17-0.91,0.52-1.07,1.07
		C691.37,212.62,691.33,212.62,691.28,212.46z"/>
	<path class="st2" d="M675.02,80.75c-0.17-0.55-0.52-0.91-1.07-1.07c-0.16-0.05-0.16-0.09,0-0.14c0.55-0.17,0.91-0.52,1.07-1.07
		c0.05-0.16,0.09-0.16,0.14,0c0.17,0.55,0.52,0.91,1.07,1.07c0.16,0.05,0.16,0.09,0,0.14c-0.55,0.17-0.91,0.52-1.07,1.07
		C675.11,80.92,675.07,80.92,675.02,80.75z"/>
	<path class="st2" d="M654.8,61.99c-0.17-0.55-0.52-0.91-1.07-1.07c-0.16-0.05-0.16-0.09,0-0.14c0.55-0.17,0.91-0.52,1.07-1.07
		c0.05-0.16,0.09-0.16,0.14,0c0.17,0.55,0.52,0.91,1.07,1.07c0.16,0.05,0.16,0.09,0,0.14c-0.55,0.17-0.91,0.52-1.07,1.07
		C654.89,62.16,654.84,62.16,654.8,61.99z"/>
	<path class="st2" d="M605.82,89.68c-0.17-0.55-0.52-0.91-1.07-1.07c-0.16-0.05-0.16-0.09,0-0.14c0.55-0.17,0.91-0.52,1.07-1.07
		c0.05-0.16,0.09-0.16,0.14,0c0.17,0.55,0.52,0.91,1.07,1.07c0.16,0.05,0.16,0.09,0,0.14c-0.55,0.17-0.91,0.52-1.07,1.07
		C605.91,89.85,605.87,89.85,605.82,89.68z"/>
	<path class="st2" d="M638.8,260.44c-0.17-0.55-0.52-0.91-1.07-1.07c-0.16-0.05-0.16-0.09,0-0.14c0.55-0.17,0.91-0.52,1.07-1.07
		c0.05-0.16,0.09-0.16,0.14,0c0.17,0.55,0.52,0.91,1.07,1.07c0.16,0.05,0.16,0.09,0,0.14c-0.55,0.17-0.91,0.52-1.07,1.07
		C638.89,260.61,638.85,260.61,638.8,260.44z"/>
	<path class="st2" d="M720.12,185.91c-0.74,0-0.74,1.15,0,1.15S720.86,185.91,720.12,185.91z"/>
	<path class="st2" d="M705.92,220.43c-0.74,0-0.74,1.15,0,1.15C706.66,221.58,706.66,220.43,705.92,220.43z"/>
	<path class="st2" d="M705.37,79.66c-0.74,0-0.74,1.15,0,1.15C706.11,80.81,706.11,79.66,705.37,79.66z"/>
	<path class="st2" d="M710.22,31.31c-0.74,0-0.74,1.15,0,1.15C710.96,32.47,710.96,31.31,710.22,31.31z"/>
	<path class="st2" d="M736.1,168.52c-0.74,0-0.74,1.15,0,1.15C736.84,169.67,736.84,168.52,736.1,168.52z"/>
	<path class="st2" d="M714.74,134.51c-0.74,0-0.74,1.15,0,1.15C715.49,135.66,715.49,134.51,714.74,134.51z"/>
	<path class="st2" d="M737.3,238.98c-0.17-0.55-0.52-0.91-1.07-1.07c-0.16-0.05-0.16-0.09,0-0.14c0.55-0.17,0.91-0.52,1.07-1.07
		c0.05-0.16,0.09-0.16,0.14,0c0.17,0.55,0.52,0.91,1.07,1.07c0.16,0.05,0.16,0.09,0,0.14c-0.55,0.17-0.91,0.52-1.07,1.07
		C737.39,239.14,737.35,239.14,737.3,238.98z"/>
	<path class="st2" d="M701.67,319.67c-0.74,0-0.74,1.15,0,1.15C702.41,320.83,702.42,319.67,701.67,319.67z"/>
	<path class="st2" d="M720.34,377.96c-0.74,0-0.74,1.15,0,1.15S721.08,377.96,720.34,377.96z"/>
	<path class="st2" d="M724.37,300.69c-0.17-0.55-0.52-0.91-1.07-1.07c-0.16-0.05-0.16-0.09,0-0.14c0.55-0.17,0.91-0.52,1.07-1.07
		c0.05-0.16,0.09-0.16,0.14,0c0.17,0.55,0.52,0.91,1.07,1.07c0.16,0.05,0.16,0.09,0,0.14c-0.55,0.17-0.91,0.52-1.07,1.07
		C724.46,300.85,724.41,300.85,724.37,300.69z"/>
	<path class="st2" d="M714.14,350.72c-0.17-0.55-0.52-0.91-1.07-1.07c-0.16-0.05-0.16-0.09,0-0.14c0.55-0.17,0.91-0.52,1.07-1.07
		c0.05-0.16,0.09-0.16,0.14,0c0.17,0.55,0.52,0.91,1.07,1.07c0.16,0.05,0.16,0.09,0,0.14c-0.55,0.17-0.91,0.52-1.07,1.07
		C714.23,350.89,714.19,350.89,714.14,350.72z"/>
	<path class="st2" d="M670.48,462.69c0.74,0,0.74-1.15,0-1.15S669.74,462.69,670.48,462.69z"/>
	<path class="st2" d="M709.27,457.37c0.74,0,0.74-1.15,0-1.15C708.53,456.21,708.53,457.37,709.27,457.37z"/>
	<path class="st2" d="M654.63,449.48c0.74,0,0.74-1.15,0-1.15C653.89,448.33,653.89,449.48,654.63,449.48z"/>
	<path class="st2" d="M733.91,461.89c0.32,1.07,1.02,1.76,2.09,2.09c0.32,0.09,0.32,0.17,0,0.27c-1.07,0.32-1.76,1.02-2.09,2.09
		c-0.09,0.32-0.17,0.32-0.27,0c-0.32-1.07-1.02-1.76-2.09-2.09c-0.32-0.09-0.32-0.17,0-0.27c1.07-0.32,1.76-1.02,2.09-2.09
		C733.74,461.57,733.82,461.57,733.91,461.89z"/>
	<path class="st2" d="M688.16,430.89c0.17,0.55,0.52,0.91,1.07,1.07c0.16,0.05,0.16,0.09,0,0.14c-0.55,0.17-0.91,0.52-1.07,1.07
		c-0.05,0.16-0.09,0.16-0.14,0c-0.17-0.55-0.52-0.91-1.07-1.07c-0.16-0.05-0.16-0.09,0-0.14c0.55-0.17,0.91-0.52,1.07-1.07
		C688.07,430.72,688.12,430.72,688.16,430.89z"/>
	<path class="st2" d="M714.83,424.28c0.17,0.55,0.52,0.91,1.07,1.07c0.16,0.05,0.16,0.09,0,0.14c-0.55,0.17-0.91,0.52-1.07,1.07
		c-0.05,0.16-0.09,0.16-0.14,0c-0.17-0.55-0.52-0.91-1.07-1.07c-0.16-0.05-0.16-0.09,0-0.14c0.55-0.17,0.91-0.52,1.07-1.07
		C714.74,424.12,714.78,424.12,714.83,424.28z"/>
	<path class="st2" d="M624.17,437.9c0.74,0,0.74-1.15,0-1.15S623.43,437.9,624.17,437.9z"/>
	<path class="st2" d="M630.37,465.14c0.17,0.55,0.52,0.91,1.07,1.07c0.16,0.05,0.16,0.09,0,0.14c-0.55,0.17-0.91,0.52-1.07,1.07
		c-0.05,0.16-0.09,0.16-0.14,0c-0.17-0.55-0.52-0.91-1.07-1.07c-0.16-0.05-0.16-0.09,0-0.14c0.55-0.17,0.91-0.52,1.07-1.07
		C630.28,464.98,630.32,464.98,630.37,465.14z"/>
	<path class="st2" d="M536.43,422.18c-0.74,0-0.74,1.15,0,1.15S537.17,422.18,536.43,422.18z"/>
	<path class="st2" d="M497.64,427.5c-0.74,0-0.74,1.15,0,1.15S498.38,427.5,497.64,427.5z"/>
	<path class="st2" d="M552.28,435.39c-0.74,0-0.74,1.15,0,1.15S553.02,435.39,552.28,435.39z"/>
	<path class="st2" d="M473,422.97c-0.32-1.07-1.02-1.76-2.09-2.09c-0.32-0.09-0.32-0.17,0-0.27c1.07-0.32,1.76-1.02,2.09-2.09
		c0.09-0.32,0.17-0.32,0.27,0c0.32,1.07,1.02,1.76,2.09,2.09c0.32,0.09,0.32,0.17,0,0.27c-1.07,0.32-1.76,1.02-2.09,2.09
		C473.17,423.29,473.09,423.29,473,422.97z"/>
	<path class="st2" d="M518.75,453.98c-0.17-0.55-0.52-0.91-1.07-1.07c-0.16-0.05-0.16-0.09,0-0.14c0.55-0.17,0.91-0.52,1.07-1.07
		c0.05-0.16,0.09-0.16,0.14,0c0.17,0.55,0.52,0.91,1.07,1.07c0.16,0.05,0.16,0.09,0,0.14c-0.55,0.17-0.91,0.52-1.07,1.07
		C518.84,454.14,518.79,454.14,518.75,453.98z"/>
	<path class="st2" d="M492.08,460.58c-0.17-0.55-0.52-0.91-1.07-1.07c-0.16-0.05-0.16-0.09,0-0.14c0.55-0.17,0.91-0.52,1.07-1.07
		c0.05-0.16,0.09-0.16,0.14,0c0.17,0.55,0.52,0.91,1.07,1.07c0.16,0.05,0.16,0.09,0,0.14c-0.55,0.17-0.91,0.52-1.07,1.07
		C492.17,460.75,492.13,460.75,492.08,460.58z"/>
	<path class="st2" d="M582.74,446.96c-0.74,0-0.74,1.15,0,1.15S583.48,446.96,582.74,446.96z"/>
	<path class="st2" d="M576.54,419.72c-0.17-0.55-0.52-0.91-1.07-1.07c-0.16-0.05-0.16-0.09,0-0.14c0.55-0.17,0.91-0.52,1.07-1.07
		c0.05-0.16,0.09-0.16,0.14,0c0.17,0.55,0.52,0.91,1.07,1.07c0.16,0.05,0.16,0.09,0,0.14c-0.55,0.17-0.91,0.52-1.07,1.07
		C576.63,419.89,576.59,419.89,576.54,419.72z"/>
	<path class="st2" d="M536.7,480.08c-0.74,0-0.74,1.15,0,1.15C537.44,481.23,537.44,480.08,536.7,480.08z"/>
	<path class="st2" d="M552.54,493.29c-0.74,0-0.74,1.15,0,1.15C553.28,494.44,553.28,493.29,552.54,493.29z"/>
	<path class="st2" d="M576.81,477.62c-0.17-0.55-0.52-0.91-1.07-1.07c-0.16-0.05-0.16-0.09,0-0.14c0.55-0.17,0.91-0.52,1.07-1.07
		c0.05-0.16,0.09-0.16,0.14,0c0.17,0.55,0.52,0.91,1.07,1.07c0.16,0.05,0.16,0.09,0,0.14c-0.55,0.17-0.91,0.52-1.07,1.07
		C576.9,477.79,576.85,477.79,576.81,477.62z"/>
	<path class="st2" d="M608.09,489.94c-0.17-0.55-0.52-0.91-1.07-1.07c-0.16-0.05-0.16-0.09,0-0.14c0.55-0.17,0.91-0.52,1.07-1.07
		c0.05-0.16,0.09-0.16,0.14,0c0.17,0.55,0.52,0.91,1.07,1.07c0.16,0.05,0.16,0.09,0,0.14c-0.55,0.17-0.91,0.52-1.07,1.07
		C608.18,490.1,608.14,490.1,608.09,489.94z"/>
	<path class="st2" d="M700.93,244.59c-0.17-0.55-0.52-0.91-1.07-1.07c-0.16-0.05-0.16-0.09,0-0.14c0.55-0.17,0.91-0.52,1.07-1.07
		c0.05-0.16,0.09-0.16,0.14,0c0.17,0.55,0.52,0.91,1.07,1.07c0.16,0.05,0.16,0.09,0,0.14c-0.55,0.17-0.91,0.52-1.07,1.07
		C701.02,244.75,700.98,244.75,700.93,244.59z"/>
	<path class="st2" d="M744.12,127.6c-0.17-0.55-0.52-0.91-1.07-1.07c-0.16-0.05-0.16-0.09,0-0.14c0.55-0.17,0.91-0.52,1.07-1.07
		c0.05-0.16,0.09-0.16,0.14,0c0.17,0.55,0.52,0.91,1.07,1.07c0.16,0.05,0.16,0.09,0,0.14c-0.55,0.17-0.91,0.52-1.07,1.07
		C744.21,127.76,744.17,127.76,744.12,127.6z"/>
</g>
<g id="star-lines" class="st1">
	<g id="stars-lines" class="st3">
		<g>
			<path class="st4" d="M364.18,382.85l-40.41,20.87c-0.98,0.51-2.19,0.12-2.7-0.86c-0.51-0.98-0.12-2.19,0.86-2.7
				c0.05-0.03,0.1-0.05,0.15-0.07l42.01-17.45c0.06-0.02,0.12,0,0.15,0.06C364.25,382.76,364.23,382.82,364.18,382.85z"/>
		</g>
		<g>
			<path class="st4" d="M556.79,49.01l-40.41,20.87c-0.98,0.51-2.19,0.12-2.7-0.86s-0.12-2.19,0.86-2.7
				c0.05-0.03,0.1-0.05,0.15-0.07L556.7,48.8c0.06-0.02,0.12,0,0.15,0.06C556.86,48.92,556.84,48.98,556.79,49.01z"/>
		</g>
		<g>
			<path class="st4" d="M443.46,185.54l-61.49,29.89c-0.62,0.3-1.37,0.04-1.67-0.58c-0.3-0.62-0.04-1.37,0.58-1.67
				c0.01-0.01,0.03-0.01,0.04-0.02l62.48-27.75c0.04-0.02,0.08,0,0.09,0.04C443.51,185.48,443.5,185.52,443.46,185.54z"/>
		</g>
		<g>
			<path class="st4" d="M365.25,24.89l-72.87,35.18c-0.62,0.3-1.37,0.04-1.67-0.58s-0.04-1.37,0.58-1.67c0.01,0,0.02-0.01,0.03-0.02
				l73.86-33.04c0.04-0.02,0.08,0,0.09,0.04C365.3,24.83,365.29,24.87,365.25,24.89z"/>
		</g>
		<g>
			<path class="st4" d="M713.72,112.12l-72.87,35.18c-0.62,0.3-1.37,0.04-1.67-0.58s-0.04-1.37,0.58-1.67
				c0.01,0,0.02-0.01,0.03-0.02l73.86-33.04c0.04-0.02,0.08,0,0.09,0.04C713.77,112.06,713.76,112.1,713.72,112.12z"/>
		</g>
		<g>
			<path class="st4" d="M311.82,58.14L280.1,74.19c-0.62,0.31-1.37,0.07-1.68-0.55s-0.07-1.37,0.55-1.68
				c0.02-0.01,0.05-0.02,0.08-0.04l32.72-13.91c0.04-0.02,0.08,0,0.09,0.04C311.86,58.08,311.85,58.12,311.82,58.14z"/>
		</g>
		<g>
			<path class="st4" d="M652.19,132.86l-31.72,16.05c-0.62,0.31-1.37,0.07-1.68-0.55s-0.07-1.37,0.55-1.68
				c0.02-0.01,0.05-0.02,0.08-0.04l32.72-13.91c0.04-0.02,0.08,0,0.09,0.04C652.23,132.8,652.22,132.84,652.19,132.86z"/>
		</g>
		<g>
			<path class="st4" d="M443.93,195.7l-30.2,16.12c-0.98,0.52-2.19,0.15-2.71-0.82c-0.52-0.98-0.15-2.19,0.82-2.71
				c0.07-0.03,0.13-0.07,0.2-0.09l31.79-12.7c0.06-0.02,0.12,0.01,0.15,0.06C444.01,195.62,443.98,195.68,443.93,195.7z"/>
		</g>
		<g>
			<path class="st4" d="M200.76,300.67l-59.35,29.68c-0.99,0.49-2.19,0.09-2.68-0.89c-0.49-0.99-0.09-2.19,0.89-2.68
				c0.03-0.02,0.07-0.03,0.1-0.05l60.94-26.25c0.06-0.02,0.12,0,0.15,0.06C200.84,300.58,200.81,300.64,200.76,300.67z"/>
		</g>
		<g>
			<path class="st4" d="M62.21,26.55L26.32,45.32c-0.98,0.51-2.19,0.13-2.7-0.85s-0.13-2.19,0.85-2.7c0.05-0.03,0.11-0.06,0.17-0.08
				l37.48-15.34c0.06-0.02,0.12,0,0.15,0.06C62.28,26.46,62.26,26.52,62.21,26.55z"/>
		</g>
	</g>
</g>
<g>
	<g>
		<g>
			<circle class="st5" cx="160.28" cy="123.34" r="82.92"/>
			<circle class="st5" cx="160.28" cy="123.34" r="69.16"/>
			<circle class="st5" cx="160.28" cy="123.34" r="54.24"/>
			<ellipse class="st6" cx="160.28" cy="123.33" rx="40.15" ry="40.15"/>
		</g>
	</g>
	<g class="st7">
		<path class="st8" d="M192.88,129.66c-1.13,0-2.14-0.83-2.25-1.95c-0.01-0.08-0.01-0.15-0.01-0.23c0-0.07,0.01-0.15,0.01-0.22
			c0.12-1.09,1.04-1.93,2.15-1.93h2.65h1.73c1.13,0,2.14-0.83,2.25-1.95c0.12-1.29-0.89-2.38-2.16-2.38h-7.89
			c-1.2,0-2.17-0.97-2.17-2.17s-0.97-2.17-2.17-2.17h-4.05c-1.07,0-1.93-0.86-1.93-1.93c0-1.07,0.86-1.93,1.93-1.93h11.28h1.72
			c1.13,0,2.14-0.83,2.25-1.95c0.01-0.15,0.01-0.3,0-0.45c0.05-0.86,0.6-1.58,1.36-1.88c-0.61-1.54-1.31-3.04-2.11-4.49h-5.8
			c-0.28,0-0.56-0.05-0.81-0.15c-0.77-0.29-1.36-0.96-1.44-1.81l0,0c-0.01-0.08-0.01-0.15-0.01-0.23s0.01-0.15,0.01-0.22
			c0.12-1.08,1.04-1.93,2.15-1.93h3.14c-1.12-1.53-2.34-2.98-3.66-4.33h-2.9c-1.2,0-2.17-0.49-2.17-1.69l0,0
			c0-1.2-0.97-2.17-2.17-2.17H169.3c-0.02,0-0.03,0-0.05,0l0,0h-10.24c-1.13,0-2.14-0.83-2.25-1.95c-0.12-1.29,0.89-2.38,2.16-2.38
			h1.82h12.29c0.14,0,0.28-0.01,0.42-0.04c0.07-0.01,0.14-0.04,0.21-0.06c0.06-0.02,0.13-0.03,0.19-0.05
			c0.1-0.04,0.19-0.08,0.28-0.13c0.03-0.01,0.05-0.02,0.08-0.04c0.11-0.07,0.22-0.14,0.32-0.22c0,0,0,0,0.01,0
			c0.2-0.17,0.38-0.38,0.5-0.61c-4.57-1.81-9.56-2.82-14.78-2.82c-9.21,0-17.68,3.11-24.46,8.32h11.14c1.13,0,2.14,0.83,2.25,1.95
			c0.01,0.08,0.01,0.15,0.01,0.23c0,0.07-0.01,0.15-0.01,0.22c-0.12,1.09-1.04,1.93-2.15,1.93h-6.48h-1.73
			c-1.13,0-2.14,0.83-2.25,1.95c-0.12,1.29,0.89,2.38,2.16,2.38h11.72c1.2,0,2.17,0.97,2.17,2.17s0.97,2.17,2.17,2.17h3.31
			c1.07,0,1.93,0.86,1.93,1.93s-0.86,1.93-1.93,1.93h-27.46h-1.72c-0.23,0-0.45,0.04-0.66,0.1h-5.3c-1.1,2.75-1.91,5.65-2.38,8.67
			h2.25c0.28,0,0.56,0.05,0.81,0.15c0.77,0.29,1.36,0.96,1.44,1.81l0,0c0.01,0.08,0.01,0.15,0.01,0.23s-0.01,0.15-0.01,0.22
			c-0.12,1.08-1.04,1.93-2.15,1.93h-2.65h-0.12c-0.03,0.62-0.05,1.24-0.05,1.87c0,0.83,0.03,1.65,0.08,2.47h6.16
			c1.2,0,2.17,0.49,2.17,1.69s0.97,2.17,2.17,2.17h22.9c0.02,0,0.03,0,0.05,0l0,0h11.97c1.13,0,2.14,0.83,2.25,1.95
			c0.11,1.2-0.76,2.23-1.9,2.36h-16.79h-4.2h-2.15H127.5c-1.21,0-2.11,1-2.14,2.21c-0.02,1.18-0.98,2.12-2.17,2.12h-0.17
			c0.6,1.49,1.28,2.94,2.05,4.33h6.83c0.28,0,0.56,0.05,0.81,0.15c0.77,0.29,1.36,0.96,1.44,1.81l0,0c0.01,0.08,0.01,0.15,0.01,0.23
			c0,0.07-0.01,0.15-0.01,0.22c-0.12,1.08-1.04,1.93-2.15,1.93h-4.16c1.12,1.53,2.34,2.98,3.66,4.33h3.93c1.2,0,2.17,0.49,2.17,1.69
			s0.97,2.17,2.17,2.17h5.18c0.02,0,0.03,0,0.05,0l0,0h10.24c1.13,0,2.14,0.83,2.25,1.95c0.12,1.29-0.89,2.38-2.16,2.38h-1.82h-8.87
			c-0.14,0-0.28,0.01-0.42,0.04c-0.07,0.01-0.14,0.04-0.21,0.06c-0.06,0.02-0.13,0.03-0.19,0.05c-0.1,0.04-0.19,0.08-0.28,0.13
			c-0.01,0.01-0.03,0.02-0.05,0.02c5.11,2.36,10.79,3.68,16.79,3.68c3.26,0,6.43-0.4,9.47-1.13c0.08-0.23,0.13-0.47,0.13-0.72
			c0.02-1.18,0.98-2.12,2.17-2.12h4.36h1.32c0.85-0.41,1.67-0.86,2.48-1.32c0.09-0.2,0.15-0.41,0.18-0.63
			c0.12-1.29-0.89-2.38-2.16-2.38H167.3c-1.13,0-2.14-0.83-2.25-1.95c-0.01-0.08-0.01-0.15-0.01-0.23c0-0.07,0.01-0.15,0.01-0.22
			c0.12-1.09,1.04-1.93,2.15-1.93h2.65h1.72c1.13,0,2.14-0.83,2.25-1.95c0.12-1.29-0.89-2.38-2.16-2.38h-7.89
			c-1.2,0-2.17-0.97-2.17-2.17s-0.97-2.17-2.17-2.17h-3.31c-1.07,0-1.93-0.86-1.93-1.93c0-1.01,0.78-1.83,1.77-1.91h39.45h1.86
			c0.09,0,0.17-0.02,0.25-0.03c1.1-2.75,1.92-5.64,2.39-8.64h-7.03V129.66z"/>
		<path class="st8" d="M128.07,100.17h3.83c0.13,0,0.26-0.01,0.39-0.04c0.01,0,0.02,0,0.03,0c0.12-0.02,0.23-0.06,0.35-0.1
			c0.01-0.01,0.03-0.01,0.04-0.02c0.11-0.04,0.21-0.1,0.31-0.16c0.01-0.01,0.03-0.02,0.04-0.03c0.1-0.06,0.19-0.13,0.27-0.21
			c0.01-0.01,0.02-0.02,0.04-0.03c0.09-0.08,0.16-0.16,0.24-0.25c0.01-0.01,0.02-0.02,0.02-0.03c0.07-0.1,0.14-0.2,0.19-0.3
			c0-0.01,0.01-0.01,0.01-0.02c0.12-0.23,0.19-0.48,0.22-0.74l0,0l0,0c0.01-0.08,0.01-0.16,0.01-0.24c0-1.2-0.97-2.17-2.17-2.17
			h-0.86c-1.26,1.34-2.42,2.76-3.49,4.26C127.72,100.13,127.89,100.17,128.07,100.17z"/>
		<path class="st8" d="M187.4,146.88c-0.35-0.23-0.76-0.37-1.21-0.37h-7.65c-0.13,0-0.26,0.01-0.39,0.04c-0.01,0-0.02,0-0.03,0
			c-0.12,0.02-0.23,0.06-0.35,0.1c-0.01,0.01-0.03,0.01-0.04,0.02c-0.11,0.04-0.21,0.1-0.31,0.16c-0.01,0.01-0.03,0.02-0.04,0.03
			c-0.1,0.06-0.19,0.13-0.27,0.21c-0.01,0.01-0.02,0.02-0.04,0.03c-0.09,0.08-0.16,0.16-0.24,0.25c-0.01,0.01-0.02,0.02-0.02,0.03
			c-0.07,0.1-0.14,0.2-0.19,0.3c0,0.01-0.01,0.01-0.01,0.02c-0.12,0.23-0.19,0.48-0.22,0.74l0,0l0,0c-0.01,0.08-0.01,0.16-0.01,0.24
			c0,1.2,0.97,2.17,2.17,2.17h5.84h1.82c0.37,0,0.73-0.09,1.03-0.26c0.08-0.05,0.17-0.1,0.24-0.15c0.54-0.39,0.89-1.03,0.89-1.75
			c0-0.47-0.15-0.9-0.4-1.25C187.8,147.21,187.61,147.02,187.4,146.88z"/>
	</g>
</g>
<g id="others" class="st1">
	<g class="st3">
		<g>
			<g>
				<g>
					<path class="st9" d="M312.48,423.43h11.44c0.55,0,1,0.45,1,1v0.7c0,0.55-0.45,1-1,1h-11.44c-0.55,0-1-0.45-1-1v-0.7
						C311.48,423.88,311.93,423.43,312.48,423.43z"/>
					<path class="st9" d="M318.2,425.97c-0.14,0-0.28-0.02-0.42-0.07c-0.61-0.23-0.92-0.91-0.7-1.53l6.13-16.38
						c0.23-0.61,0.91-0.93,1.53-0.7c0.61,0.23,0.92,0.91,0.7,1.53l-6.13,16.38C319.14,425.68,318.68,425.97,318.2,425.97z"/>
				</g>
				<polygon class="st9" points="336.15,394.01 364.65,379.7 364.15,375.69 336.13,390.48 				"/>
				<g>
					
						<linearGradient id="SVGID_4_" gradientUnits="userSpaceOnUse" x1="319.5753" y1="1249.3301" x2="362.06" y2="1249.3301" gradientTransform="matrix(1 0 0 1 0 -876)">
						<stop  offset="0" style="stop-color:#FF895B"/>
						<stop  offset="0.5062" style="stop-color:#9E6F8A"/>
						<stop  offset="1" style="stop-color:#4356B5"/>
					</linearGradient>
					<path class="st10" d="M338.44,400.22L338.44,400.22L362.06,352l-0.74-17.84l0,0c-7.88,0-14.91,4.72-17.51,11.77l-24.18,65.38
						c-0.21,0.58,0.21,1.19,0.83,1.19h5.35c0.4,0,0.75-0.26,0.85-0.65C327.24,409.63,329.79,402.37,338.44,400.22z"/>
					
						<linearGradient id="SVGID_5_" gradientUnits="userSpaceOnUse" x1="338.7336" y1="1210.267" x2="341.699" y2="1274.3195" gradientTransform="matrix(1 0 0 1 0 -876)">
						<stop  offset="0" style="stop-color:#000A63"/>
						<stop  offset="1" style="stop-color:#000A63;stop-opacity:0"/>
					</linearGradient>
					<path class="st11" d="M332.71,393.15l23.62-48.22l-0.42-10c-5.55,1.6-10.12,5.62-12.1,11l-19.27,52.1
						C326.34,395.99,328.95,394.09,332.71,393.15z"/>
					<path class="st9" d="M355.95,364.49l6.12-12.49l-0.74-17.84l0,0c-7.88,0-14.91,4.72-17.51,11.77l-6.86,18.56H355.95z"/>
				</g>
			</g>
			<g>
				<g>
					<path class="st9" d="M434.83,423.43h-11.44c-0.55,0-1,0.45-1,1v0.7c0,0.55,0.45,1,1,1h11.44c0.55,0,1-0.45,1-1v-0.7
						C435.83,423.88,435.38,423.43,434.83,423.43z"/>
					<path class="st9" d="M429.11,425.97c0.14,0,0.28-0.02,0.42-0.07c0.61-0.23,0.92-0.91,0.7-1.53l-6.13-16.38
						c-0.23-0.61-0.91-0.93-1.53-0.7c-0.61,0.23-0.92,0.91-0.69,1.53L428,425.2C428.18,425.68,428.63,425.97,429.11,425.97z"/>
				</g>
				<polygon class="st9" points="411.17,394.01 382.67,379.7 383.16,375.69 411.19,390.48 				"/>
				<g>
					
						<linearGradient id="SVGID_6_" gradientUnits="userSpaceOnUse" x1="907.9267" y1="1249.3301" x2="950.4114" y2="1249.3301" gradientTransform="matrix(-1 0 0 1 1335.6614 -876)">
						<stop  offset="0" style="stop-color:#FF895B"/>
						<stop  offset="0.5062" style="stop-color:#9E6F8A"/>
						<stop  offset="1" style="stop-color:#4356B5"/>
					</linearGradient>
					<path class="st12" d="M408.87,400.22L408.87,400.22L385.25,352l0.74-17.84l0,0c7.88,0,14.91,4.72,17.51,11.77l24.18,65.38
						c0.21,0.58-0.21,1.19-0.83,1.19h-5.35c-0.4,0-0.75-0.26-0.85-0.65C420.07,409.63,417.52,402.37,408.87,400.22z"/>
					
						<linearGradient id="SVGID_7_" gradientUnits="userSpaceOnUse" x1="927.085" y1="1210.2667" x2="930.0504" y2="1274.3192" gradientTransform="matrix(-1 0 0 1 1335.6614 -876)">
						<stop  offset="0" style="stop-color:#000A63"/>
						<stop  offset="1" style="stop-color:#000A63;stop-opacity:0"/>
					</linearGradient>
					<path class="st13" d="M414.6,393.15l-23.62-48.22l0.42-10c5.55,1.6,10.12,5.62,12.1,11l19.27,52.1
						C420.98,395.99,418.37,394.09,414.6,393.15z"/>
					<path class="st9" d="M391.37,364.49L385.25,352l0.74-17.84l0,0c7.88,0,14.91,4.72,17.51,11.77l6.86,18.56H391.37z"/>
				</g>
			</g>
		</g>
		
			<linearGradient id="SVGID_8_" gradientUnits="userSpaceOnUse" x1="356.66" y1="1153.495" x2="390.66" y2="1153.495" gradientTransform="matrix(1 0 0 1 0 -876)">
			<stop  offset="0" style="stop-color:#FF895B"/>
			<stop  offset="0.5062" style="stop-color:#9E6F8A"/>
			<stop  offset="1" style="stop-color:#4356B5"/>
		</linearGradient>
		<path class="st14" d="M379.05,396.69c0.89,0,1.66-0.61,1.86-1.47c5.97-26.08,9.75-64.3,9.75-106.9c0-57.97-6.98-107.84-17-130.02
			c-10.02,22.18-17,72.05-17,130.02c0,42.6,3.77,80.82,9.75,106.9c0.2,0.87,0.97,1.47,1.86,1.47H379.05z"/>
		
			<linearGradient id="SVGID_9_" gradientUnits="userSpaceOnUse" x1="356.6552" y1="1192.0601" x2="390.6586" y2="1192.0601" gradientTransform="matrix(1 0 0 1 0 -876)">
			<stop  offset="0" style="stop-color:#000A63"/>
			<stop  offset="1" style="stop-color:#000A63;stop-opacity:0"/>
		</linearGradient>
		<path class="st15" d="M356.95,308.48c0.15,5.14,0.34,10.21,0.59,15.16h32.22c0.25-4.95,0.45-10.02,0.59-15.16H356.95z"/>
		
			<linearGradient id="SVGID_10_" gradientUnits="userSpaceOnUse" x1="356.6552" y1="1265.145" x2="390.6585" y2="1265.145" gradientTransform="matrix(1 0 0 1 0 -876)">
			<stop  offset="0" style="stop-color:#000A63"/>
			<stop  offset="1" style="stop-color:#000A63;stop-opacity:0"/>
		</linearGradient>
		<path class="st16" d="M363.68,381.59c0.85,4.84,1.76,9.4,2.72,13.64c0.2,0.87,0.97,1.47,1.86,1.47h10.79
			c0.89,0,1.66-0.61,1.86-1.47c0.97-4.23,1.88-8.8,2.72-13.64H363.68z"/>
		
			<linearGradient id="SVGID_11_" gradientUnits="userSpaceOnUse" x1="356.6552" y1="1248.625" x2="390.6586" y2="1248.625" gradientTransform="matrix(1 0 0 1 0 -876)">
			<stop  offset="0" style="stop-color:#000A63"/>
			<stop  offset="1" style="stop-color:#000A63;stop-opacity:0"/>
		</linearGradient>
		<path class="st17" d="M384.68,375.26c0.27-1.73,0.54-3.48,0.79-5.27h-23.62c0.25,1.79,0.52,3.54,0.79,5.27H384.68z"/>
		
			<linearGradient id="SVGID_12_" gradientUnits="userSpaceOnUse" x1="356.6552" y1="1236.04" x2="390.6586" y2="1236.04" gradientTransform="matrix(1 0 0 1 0 -876)">
			<stop  offset="0" style="stop-color:#000A63"/>
			<stop  offset="1" style="stop-color:#000A63;stop-opacity:0"/>
		</linearGradient>
		<path class="st18" d="M360.27,357.47c0.19,1.73,0.39,3.45,0.6,5.14h25.57c0.21-1.69,0.41-3.4,0.6-5.14H360.27z"/>
		<path class="st9" d="M382.63,189.56c-2.54-13.08-5.58-23.76-8.97-31.26c-3.39,7.5-6.43,18.18-8.97,31.26l0,0
			C370.1,185.87,377.22,185.87,382.63,189.56L382.63,189.56z"/>
		<polygon class="st9" points="376.24,426.13 371.07,426.13 368.55,396.69 378.76,396.69 		"/>
		<g>
			<line class="st19" x1="363.11" y1="329.32" x2="363.11" y2="333.16"/>
			<line class="st19" x1="373.66" y1="329.32" x2="373.66" y2="333.16"/>
			<line class="st19" x1="384.21" y1="329.32" x2="384.21" y2="333.16"/>
		</g>
		<g>
			
				<linearGradient id="SVGID_13_" gradientUnits="userSpaceOnUse" x1="404.1369" y1="1166.6531" x2="422.2069" y2="1166.6531" gradientTransform="matrix(1 0 0 1 -34.0969 -948.3881)">
				<stop  offset="0" style="stop-color:#000A63"/>
				<stop  offset="1" style="stop-color:#000A63;stop-opacity:0"/>
			</linearGradient>
			<polygon class="st20" points="376.9,206.95 370.04,216.57 388.11,229.58 386.43,213.12 			"/>
			<circle class="st21" cx="373.43" cy="211.73" r="5.91"/>
			<path class="st9" d="M378.2,211.73c0,2.64-2.14,4.77-4.77,4.77c-2.64,0-4.77-2.14-4.77-4.77c0-2.64,2.14-4.77,4.77-4.77
				C376.06,206.95,378.2,209.09,378.2,211.73z"/>
			
				<linearGradient id="SVGID_14_" gradientUnits="userSpaceOnUse" x1="405.7055" y1="1157.0632" x2="407.2329" y2="1160.4117" gradientTransform="matrix(1 0 0 1 -34.0969 -948.3881)">
				<stop  offset="0" style="stop-color:#E8DBD3"/>
				<stop  offset="1" style="stop-color:#E8DBD3;stop-opacity:0"/>
			</linearGradient>
			<path class="st22" d="M375.21,208.38c-0.53-0.29-1.14-0.45-1.79-0.45c-2.09,0-3.79,1.7-3.79,3.79c0,0.49,0.1,0.97,0.27,1.4
				C372.34,212.34,374.39,210.79,375.21,208.38z"/>
		</g>
		<g>
			
				<linearGradient id="SVGID_15_" gradientUnits="userSpaceOnUse" x1="404.1369" y1="1188.688" x2="423.8269" y2="1188.688" gradientTransform="matrix(1 0 0 1 -34.0969 -948.3881)">
				<stop  offset="0" style="stop-color:#000A63"/>
				<stop  offset="1" style="stop-color:#000A63;stop-opacity:0"/>
			</linearGradient>
			<polygon class="st23" points="376.9,228.4 370.04,238.02 389.73,252.2 388.66,236.02 			"/>
			<circle class="st21" cx="373.43" cy="233.18" r="5.91"/>
			<path class="st9" d="M378.2,233.18c0,2.64-2.14,4.77-4.77,4.77c-2.64,0-4.77-2.14-4.77-4.77c0-2.64,2.14-4.77,4.77-4.77
				C376.06,228.4,378.2,230.54,378.2,233.18z"/>
			
				<linearGradient id="SVGID_16_" gradientUnits="userSpaceOnUse" x1="405.7061" y1="1178.5145" x2="407.2335" y2="1181.863" gradientTransform="matrix(1 0 0 1 -34.0969 -948.3881)">
				<stop  offset="0" style="stop-color:#E8DBD3"/>
				<stop  offset="1" style="stop-color:#E8DBD3;stop-opacity:0"/>
			</linearGradient>
			<path class="st24" d="M375.21,229.83c-0.53-0.29-1.14-0.45-1.79-0.45c-2.09,0-3.79,1.7-3.79,3.79c0,0.49,0.1,0.97,0.27,1.4
				C372.34,233.79,374.39,232.24,375.21,229.83z"/>
		</g>
	</g>
	<path class="st25" d="M206.99,255.53c0,1.43-1.16,2.59-2.59,2.59s-2.59-1.16-2.59-2.59s1.16-2.59,2.59-2.59
		C205.83,252.93,206.99,254.09,206.99,255.53z"/>
	<g class="st3">
		<g>
			<line class="st26" x1="453.08" y1="264.86" x2="453.08" y2="233.38"/>
			<rect x="451.25" y="264.86" class="st27" width="3.66" height="160.86"/>
			<line class="st26" x1="458.97" y1="233.38" x2="447.19" y2="233.38"/>
			<g>
				<path class="st27" d="M450.07,230.15c0,0.79-0.64,1.44-1.44,1.44c-0.79,0-1.44-0.64-1.44-1.44c0-0.79,0.64-1.44,1.44-1.44
					C449.42,228.71,450.07,229.35,450.07,230.15z"/>
				<path class="st27" d="M454.52,230.15c0,0.79-0.64,1.44-1.44,1.44c-0.79,0-1.44-0.64-1.44-1.44c0-0.79,0.64-1.44,1.44-1.44
					C453.88,228.71,454.52,229.35,454.52,230.15z"/>
				<path class="st27" d="M458.97,230.15c0,0.79-0.64,1.44-1.44,1.44c-0.79,0-1.44-0.64-1.44-1.44c0-0.79,0.64-1.44,1.44-1.44
					C458.33,228.71,458.97,229.35,458.97,230.15z"/>
			</g>
			<rect x="449.13" y="252.81" class="st27" width="7.91" height="7.91"/>
		</g>
		<g>
			<g>
				<g>
					<line class="st28" x1="442.99" y1="323.36" x2="442.99" y2="319.98"/>
					<line class="st28" x1="439.06" y1="323.36" x2="439.06" y2="319.98"/>
					<line class="st28" x1="435.13" y1="323.36" x2="435.13" y2="319.98"/>
					<line class="st28" x1="431.2" y1="323.36" x2="431.2" y2="319.98"/>
					<line class="st28" x1="427.27" y1="323.36" x2="427.27" y2="319.98"/>
					<line class="st28" x1="423.34" y1="323.36" x2="423.34" y2="319.98"/>
					<line class="st28" x1="419.41" y1="323.36" x2="419.41" y2="319.98"/>
					<line class="st28" x1="415.48" y1="323.36" x2="415.48" y2="319.98"/>
					<line class="st28" x1="411.55" y1="323.36" x2="411.55" y2="319.98"/>
					<line class="st28" x1="407.62" y1="323.36" x2="407.62" y2="319.98"/>
					<line class="st28" x1="403.69" y1="323.36" x2="403.69" y2="319.98"/>
					<line class="st28" x1="399.76" y1="323.36" x2="399.76" y2="319.98"/>
					<line class="st28" x1="395.83" y1="323.36" x2="395.83" y2="319.98"/>
					<line class="st28" x1="391.9" y1="323.36" x2="391.9" y2="319.98"/>
				</g>
				<line class="st28" x1="445.77" y1="319.98" x2="389.77" y2="319.98"/>
			</g>
			<g>
				<rect x="445.77" y="411.1" class="st29" width="14.62" height="14.62"/>
				<line class="st29" x1="460.39" y1="411.1" x2="445.77" y2="425.72"/>
				<line class="st29" x1="460.39" y1="425.72" x2="445.77" y2="411.1"/>
			</g>
			<g>
				<rect x="445.77" y="396.48" class="st29" width="14.62" height="14.62"/>
				<line class="st29" x1="460.39" y1="396.48" x2="445.77" y2="411.1"/>
				<line class="st29" x1="460.39" y1="411.1" x2="445.77" y2="396.48"/>
			</g>
			<g>
				<rect x="445.77" y="381.85" class="st29" width="14.62" height="14.62"/>
				<line class="st29" x1="460.39" y1="381.85" x2="445.77" y2="396.48"/>
				<line class="st29" x1="460.39" y1="396.48" x2="445.77" y2="381.85"/>
			</g>
			<g>
				<rect x="445.77" y="367.23" class="st29" width="14.62" height="14.62"/>
				<line class="st29" x1="460.39" y1="367.23" x2="445.77" y2="381.85"/>
				<line class="st29" x1="460.39" y1="381.85" x2="445.77" y2="367.23"/>
			</g>
			<g>
				<rect x="445.77" y="352.6" class="st29" width="14.62" height="14.62"/>
				<line class="st29" x1="460.39" y1="352.6" x2="445.77" y2="367.23"/>
				<line class="st29" x1="460.39" y1="367.23" x2="445.77" y2="352.6"/>
			</g>
			<g>
				<rect x="445.77" y="337.98" class="st29" width="14.62" height="14.62"/>
				<line class="st29" x1="460.39" y1="337.98" x2="445.77" y2="352.6"/>
				<line class="st29" x1="460.39" y1="352.6" x2="445.77" y2="337.98"/>
			</g>
			<g>
				<rect x="445.77" y="323.36" class="st29" width="14.62" height="14.62"/>
				<line class="st29" x1="460.39" y1="323.36" x2="445.77" y2="337.98"/>
				<line class="st29" x1="460.39" y1="337.98" x2="445.77" y2="323.36"/>
			</g>
			<g>
				<rect x="445.77" y="308.73" class="st29" width="14.62" height="14.62"/>
				<polyline class="st29" points="460.39,308.73 445.77,323.36 389.77,323.36 				"/>
				<line class="st29" x1="460.39" y1="323.36" x2="445.77" y2="308.73"/>
			</g>
			<g>
				<rect x="445.77" y="294.11" class="st29" width="14.62" height="14.62"/>
				<line class="st29" x1="460.39" y1="294.11" x2="445.77" y2="308.73"/>
				<line class="st29" x1="460.39" y1="308.73" x2="445.77" y2="294.11"/>
			</g>
			<g>
				<rect x="445.77" y="279.49" class="st29" width="14.62" height="14.62"/>
				<line class="st29" x1="460.39" y1="279.49" x2="445.77" y2="294.11"/>
				<line class="st29" x1="460.39" y1="294.11" x2="445.77" y2="279.49"/>
			</g>
			<g>
				<rect x="445.77" y="264.86" class="st29" width="14.62" height="14.62"/>
				<line class="st29" x1="460.39" y1="264.86" x2="445.77" y2="279.49"/>
				<line class="st29" x1="460.39" y1="279.49" x2="445.77" y2="264.86"/>
			</g>
		</g>
		
			<linearGradient id="SVGID_17_" gradientUnits="userSpaceOnUse" x1="456.29" y1="1301.77" x2="456.29" y2="1172.4801" gradientTransform="matrix(1 0 0 1 0 -876)">
			<stop  offset="0" style="stop-color:#02CBBE"/>
			<stop  offset="0.9583" style="stop-color:#02CBBE;stop-opacity:0"/>
		</linearGradient>
		<rect x="449.26" y="296.48" class="st30" width="14.06" height="129.29"/>
	</g>
	<g class="st3">
		
			<linearGradient id="SVGID_18_" gradientUnits="userSpaceOnUse" x1="222.035" y1="1301.02" x2="222.035" y2="1129.0701" gradientTransform="matrix(1 0 0 1 0 -876)">
			<stop  offset="0" style="stop-color:#02CBBE"/>
			<stop  offset="0.9583" style="stop-color:#02CBBE;stop-opacity:0"/>
		</linearGradient>
		<rect x="218.97" y="253.07" class="st31" width="6.13" height="171.95"/>
		
			<linearGradient id="SVGID_19_" gradientUnits="userSpaceOnUse" x1="225.1" y1="1301.77" x2="225.1" y2="1129.0701" gradientTransform="matrix(1 0 0 1 0 -876)">
			<stop  offset="0" style="stop-color:#02CBBE"/>
			<stop  offset="0.9583" style="stop-color:#02CBBE;stop-opacity:0"/>
		</linearGradient>
		<rect x="214.45" y="253.07" class="st32" width="21.3" height="172.7"/>
		
			<linearGradient id="SVGID_20_" gradientUnits="userSpaceOnUse" x1="313.585" y1="1301.77" x2="313.585" y2="1240.42" gradientTransform="matrix(1 0 0 1 0 -876)">
			<stop  offset="0" style="stop-color:#02CBBE"/>
			<stop  offset="0.9583" style="stop-color:#02CBBE;stop-opacity:0"/>
		</linearGradient>
		<rect x="309.8" y="364.42" class="st33" width="7.57" height="61.35"/>
		
			<linearGradient id="SVGID_21_" gradientUnits="userSpaceOnUse" x1="268" y1="1301.77" x2="268" y2="1218.76" gradientTransform="matrix(1 0 0 1 0 -876)">
			<stop  offset="0" style="stop-color:#02CBBE"/>
			<stop  offset="0.9583" style="stop-color:#02CBBE;stop-opacity:0"/>
		</linearGradient>
		<rect x="257.35" y="342.76" class="st34" width="21.3" height="83.01"/>
		
			<linearGradient id="SVGID_22_" gradientUnits="userSpaceOnUse" x1="257.59" y1="1301.77" x2="257.59" y2="1182.7101" gradientTransform="matrix(1 0 0 1 0 -876)">
			<stop  offset="0" style="stop-color:#02CBBE"/>
			<stop  offset="0.9583" style="stop-color:#02CBBE;stop-opacity:0"/>
		</linearGradient>
		<rect x="246.94" y="306.71" class="st35" width="21.3" height="119.06"/>
	</g>
	<g class="st3">
		
			<linearGradient id="SVGID_23_" gradientUnits="userSpaceOnUse" x1="431.68" y1="1300.73" x2="431.68" y2="1199.1801" gradientTransform="matrix(1 0 0 1 0 -876)">
			<stop  offset="0" style="stop-color:#02CBBE"/>
			<stop  offset="0.9583" style="stop-color:#02CBBE;stop-opacity:0"/>
		</linearGradient>
		<rect x="423.17" y="323.18" class="st36" width="17.02" height="101.55"/>
		
			<linearGradient id="SVGID_24_" gradientUnits="userSpaceOnUse" x1="477.275" y1="1301.77" x2="477.275" y2="1200.39" gradientTransform="matrix(1 0 0 1 0 -876)">
			<stop  offset="0" style="stop-color:#02CBBE"/>
			<stop  offset="0.9583" style="stop-color:#02CBBE;stop-opacity:0"/>
		</linearGradient>
		<rect x="473.76" y="324.39" class="st37" width="7.03" height="101.38"/>
		
			<linearGradient id="SVGID_25_" gradientUnits="userSpaceOnUse" x1="477.37" y1="1301.77" x2="477.37" y2="1261.2301" gradientTransform="matrix(1 0 0 1 0 -876)">
			<stop  offset="0" style="stop-color:#02CBBE"/>
			<stop  offset="0.9583" style="stop-color:#02CBBE;stop-opacity:0"/>
		</linearGradient>
		<rect x="465.08" y="385.23" class="st38" width="24.58" height="40.54"/>
	</g>
	<g class="st3">
		<polyline class="st29" points="189.78,426.13 199.21,344.28 209.58,344.28 219.01,426.13 		"/>
		<line class="st29" x1="204.4" y1="250.03" x2="204.4" y2="426.13"/>
		<g>
			<g>
				<line class="st29" x1="219.01" y1="426.13" x2="204.4" y2="414.55"/>
				<line class="st29" x1="217.67" y1="414.3" x2="204.4" y2="414.3"/>
			</g>
			<g>
				<line class="st29" x1="217.67" y1="414.46" x2="204.4" y2="402.88"/>
				<line class="st29" x1="216.3" y1="402.63" x2="204.4" y2="402.63"/>
			</g>
			<g>
				<line class="st29" x1="216.3" y1="402.79" x2="204.4" y2="391.21"/>
				<line class="st29" x1="214.96" y1="390.96" x2="204.4" y2="390.96"/>
			</g>
			<g>
				<line class="st29" x1="214.96" y1="391.12" x2="204.4" y2="379.54"/>
				<line class="st29" x1="213.6" y1="379.29" x2="204.4" y2="379.29"/>
			</g>
			<g>
				<line class="st29" x1="213.6" y1="379.45" x2="204.4" y2="367.87"/>
				<line class="st29" x1="212.27" y1="367.62" x2="204.4" y2="367.62"/>
			</g>
			<g>
				<line class="st29" x1="212.27" y1="367.78" x2="204.4" y2="356.19"/>
				<line class="st29" x1="210.93" y1="355.95" x2="204.4" y2="355.95"/>
			</g>
			<g>
				<line class="st29" x1="210.93" y1="355.95" x2="204.4" y2="344.52"/>
				<line class="st29" x1="209.58" y1="344.28" x2="204.4" y2="344.28"/>
			</g>
		</g>
		<g>
			<g>
				<line class="st29" x1="189.78" y1="426.13" x2="204.4" y2="414.55"/>
				<line class="st29" x1="191.12" y1="414.3" x2="204.4" y2="414.3"/>
			</g>
			<g>
				<line class="st29" x1="191.12" y1="414.46" x2="204.4" y2="402.88"/>
				<line class="st29" x1="192.49" y1="402.63" x2="204.4" y2="402.63"/>
			</g>
			<g>
				<line class="st29" x1="192.49" y1="402.79" x2="204.4" y2="391.21"/>
				<line class="st29" x1="193.83" y1="390.96" x2="204.4" y2="390.96"/>
			</g>
			<g>
				<line class="st29" x1="193.83" y1="391.12" x2="204.4" y2="379.54"/>
				<line class="st29" x1="195.19" y1="379.29" x2="204.4" y2="379.29"/>
			</g>
			<g>
				<line class="st29" x1="195.19" y1="379.45" x2="204.4" y2="367.87"/>
				<line class="st29" x1="196.52" y1="367.62" x2="204.4" y2="367.62"/>
			</g>
			<g>
				<line class="st29" x1="196.52" y1="367.78" x2="204.4" y2="356.19"/>
				<line class="st29" x1="197.86" y1="355.95" x2="204.4" y2="355.95"/>
			</g>
			<g>
				<line class="st29" x1="197.86" y1="355.95" x2="204.4" y2="344.52"/>
				<line class="st29" x1="199.21" y1="344.28" x2="204.4" y2="344.28"/>
			</g>
		</g>
		
			<linearGradient id="SVGID_26_" gradientUnits="userSpaceOnUse" x1="198.7" y1="1198.1288" x2="210.11" y2="1198.1288" gradientTransform="matrix(1 0 0 1 0 -876)">
			<stop  offset="0" style="stop-color:#FF895B"/>
			<stop  offset="0.5062" style="stop-color:#9E6F8A"/>
			<stop  offset="1" style="stop-color:#4356B5"/>
		</linearGradient>
		<path class="st39" d="M203.6,301.19l-4.9,42.59h11.41l-4.9-42.59C205.09,300.24,203.71,300.24,203.6,301.19z"/>
	</g>
	<g class="st3">
		<g>
			<line class="st26" x1="289.55" y1="334.62" x2="289.55" y2="296.59"/>
			<rect x="287.92" y="334.62" class="st27" width="3.26" height="91.51"/>
			<line class="st26" x1="294.8" y1="296.59" x2="284.3" y2="296.59"/>
			<g>
				<path class="st27" d="M286.87,293.71c0,0.71-0.57,1.28-1.28,1.28s-1.28-0.57-1.28-1.28s0.57-1.28,1.28-1.28
					C286.29,292.43,286.87,293,286.87,293.71z"/>
				<path class="st27" d="M290.83,293.71c0,0.71-0.57,1.28-1.28,1.28s-1.28-0.57-1.28-1.28s0.57-1.28,1.28-1.28
					C290.26,292.43,290.83,293,290.83,293.71z"/>
				<circle class="st27" cx="293.52" cy="293.71" r="1.28"/>
			</g>
			<rect x="286.03" y="313.89" class="st27" width="7.04" height="7.04"/>
		</g>
		<g>
			<g>
				<rect x="283.04" y="412.77" class="st29" width="13.02" height="13.02"/>
				<line class="st29" x1="296.06" y1="412.77" x2="283.04" y2="425.79"/>
				<line class="st29" x1="296.06" y1="425.79" x2="283.04" y2="412.77"/>
			</g>
			<g>
				<rect x="283.04" y="399.75" class="st29" width="13.02" height="13.02"/>
				<line class="st29" x1="296.06" y1="399.75" x2="283.04" y2="412.77"/>
				<line class="st29" x1="296.06" y1="412.77" x2="283.04" y2="399.75"/>
			</g>
			<g>
				<rect x="283.04" y="386.72" class="st29" width="13.02" height="13.02"/>
				<line class="st29" x1="296.06" y1="386.72" x2="283.04" y2="399.75"/>
				<line class="st29" x1="296.06" y1="399.75" x2="283.04" y2="386.72"/>
			</g>
			<g>
				<rect x="283.04" y="373.7" class="st29" width="13.02" height="13.02"/>
				<line class="st29" x1="296.06" y1="373.7" x2="283.04" y2="386.72"/>
				<line class="st29" x1="296.06" y1="386.72" x2="283.04" y2="373.7"/>
			</g>
			<g>
				<rect x="283.04" y="360.67" class="st29" width="13.02" height="13.02"/>
				<line class="st29" x1="296.06" y1="360.67" x2="283.04" y2="373.7"/>
				<line class="st29" x1="296.06" y1="373.7" x2="283.04" y2="360.67"/>
			</g>
			<g>
				<rect x="283.04" y="347.65" class="st29" width="13.02" height="13.02"/>
				<line class="st29" x1="296.06" y1="347.65" x2="283.04" y2="360.67"/>
				<line class="st29" x1="296.06" y1="360.67" x2="283.04" y2="347.65"/>
			</g>
			<g>
				<rect x="283.04" y="334.62" class="st29" width="13.02" height="13.02"/>
				<line class="st29" x1="296.06" y1="334.62" x2="283.04" y2="347.65"/>
				<line class="st29" x1="296.06" y1="347.65" x2="283.04" y2="334.62"/>
			</g>
		</g>
	</g>
	<g id="OBJECTS" class="st3">
		<g>
			<path class="st40" d="M750,289.49l-7.9,5.61h-4.33l-14.02,6.88l-1.78,5.86l-9.94,5.86l1.28,6.63l-3.57,3.57l3.06,14.28
				l-20.65,23.71v4.59l-3.06,2.8l-5.35-4.84l-6.12,0.26l-0.57-20.39c-0.02-0.85-0.85-1.44-1.66-1.2l0,0
				c-0.55,0.17-0.93,0.68-0.92,1.26l0.33,21.46l-3.06,5.61l0.02,12.13l-9.18,10.71l-53.25,4.59l-35.74,31.88H750V289.49z"/>
			<path class="st40" d="M0,232.78l11.53,8.18h6.32L38.31,251l2.6,8.55l14.5,8.55l-1.86,9.67l5.21,5.21l-4.46,20.83l30.12,34.59
				v6.69l4.46,4.09l7.81-7.07l8.93,0.37l0.84-29.74c0.03-1.24,1.24-2.11,2.42-1.75l0,0c0.81,0.24,1.36,0.99,1.34,1.83l-0.49,31.3
				l4.46,8.18l-0.02,17.7l13.39,15.62l77.66,6.69l52.13,46.49H0V232.78z"/>
		</g>
		<g>
			<path class="st41" d="M266.79,419.5c-2.88,0-5.58,0.72-7.96,1.98c-0.15-12.46-10.29-22.51-22.78-22.51
				c-9.03,0-16.83,5.25-20.52,12.86c-3.11-3.41-7.6-5.56-12.58-5.56c-3.74,0-7.2,1.21-10.01,3.26
				c-3.46-12.83-15.17-22.28-29.09-22.28c-16.64,0-30.13,13.49-30.13,30.13c0,3.04,0.46,5.98,1.29,8.75h51.16h6.51h21h6.05h33.58
				h5.11h21.86C277.16,422.1,272.28,419.5,266.79,419.5z"/>
			<path class="st42" d="M146.62,424.6c-3.2-1.25-6.52-1.62-9.71-1.25c5.23-13.92-1.69-29.49-15.58-34.91
				c-10.04-3.91-20.99-1.46-28.39,5.4c-1.98-5.15-6.04-9.47-11.58-11.64c-4.16-1.62-8.54-1.78-12.55-0.72
				c1.72-15.77-7.21-31.35-22.69-37.39C27.98,337.04,7.6,345.7,0,363.46v62.67h152.5C150.8,424.67,148.83,425.46,146.62,424.6z"/>
			<path class="st42" d="M415.62,422.52c-1.57,0-3.04,0.39-4.34,1.08c-0.08-6.79-5.61-12.27-12.42-12.27
				c-4.92,0-9.17,2.86-11.18,7.01c-1.7-1.86-4.14-3.03-6.86-3.03c-2.04,0-3.93,0.66-5.46,1.78c-1.88-6.99-8.27-12.14-15.86-12.14
				c-9.07,0-16.42,7.35-16.42,16.42c0,1.66,0.25,3.26,0.71,4.77h27.88h3.55h11.45h3.3h18.3h2.78h11.91
				C421.27,423.93,418.61,422.52,415.62,422.52z"/>
			<path class="st42" d="M356.49,420.95c-2.25,0-4.36,0.56-6.22,1.55c-0.12-9.73-8.04-17.58-17.79-17.58
				c-7.05,0-13.14,4.1-16.02,10.04c-2.43-2.67-5.93-4.34-9.83-4.34c-2.92,0-5.63,0.95-7.82,2.55c-2.7-10.02-11.84-17.4-22.72-17.4
				c-13,0-23.53,10.53-23.53,23.53c0,2.38,0.36,4.67,1.01,6.83h39.95h5.09h16.4h4.72h26.22h3.99h17.07
				C364.59,422.98,360.78,420.95,356.49,420.95z"/>
			<path class="st42" d="M160.61,426.13c-1.68-6.81-7.83-11.85-15.15-11.85c-5.75,0-10.78,3.11-13.48,7.75
				c-4.79-7.26-13.02-12.05-22.37-12.05c-9.19,0-17.29,4.62-22.12,11.67c-3.71-15.34-17.51-26.73-33.99-26.73
				c-7.05,0-13.61,2.09-19.1,5.68c0.23-1.86,0.36-3.76,0.36-5.68c0-15.91-8.27-29.89-20.75-37.88c9.92-5.74,16.61-16.45,16.61-28.74
				c0-14.25-8.98-26.39-21.59-31.1c2.5-2.77,4.02-6.43,4.02-10.45c0-7.74-5.64-14.17-13.04-15.39v154.78L160.61,426.13
				L160.61,426.13z"/>
		</g>
		<g>
			<path class="st43" d="M603.38,424.6c3.2-1.25,6.52-1.62,9.71-1.25c-5.23-13.92,1.69-29.49,15.58-34.91
				c10.04-3.91,20.99-1.46,28.39,5.4c1.98-5.15,6.04-9.47,11.58-11.64c4.16-1.62,8.54-1.78,12.55-0.72
				c-1.72-15.77,7.21-31.35,22.69-37.39c18.14-7.07,38.51,1.59,46.11,19.35v62.67H597.5C599.2,424.67,601.17,425.46,603.38,424.6z"
				/>
			<path class="st42" d="M475.84,422.52c1.57,0,3.04,0.39,4.34,1.08c0.08-6.79,5.61-12.27,12.42-12.27c4.92,0,9.17,2.86,11.18,7.01
				c1.7-1.86,4.14-3.03,6.86-3.03c2.04,0,3.93,0.66,5.46,1.78c1.88-6.99,8.27-12.14,15.86-12.14c9.07,0,16.42,7.35,16.42,16.42
				c0,1.66-0.25,3.26-0.71,4.77h-27.88h-3.55h-11.45h-3.3h-18.3h-2.78H468.5C470.19,423.93,472.85,422.52,475.84,422.52z"/>
			<path class="st42" d="M534.97,420.95c2.25,0,4.36,0.56,6.22,1.55c0.12-9.73,8.04-17.58,17.79-17.58c7.05,0,13.14,4.1,16.02,10.04
				c2.43-2.67,5.93-4.34,9.83-4.34c2.92,0,5.63,0.95,7.82,2.55c2.7-10.02,11.84-17.4,22.72-17.4c13,0,23.53,10.53,23.53,23.53
				c0,2.38-0.36,4.67-1.01,6.83h-39.95h-5.09h-16.4h-4.72H545.5h-3.99h-17.07C526.87,422.98,530.68,420.95,534.97,420.95z"/>
			<path class="st41" d="M750.04,397.26c-5.52-6.14-13.52-10.01-22.42-10.01c-13.92,0-25.64,9.45-29.09,22.28
				c-2.81-2.05-6.27-3.26-10.01-3.26c-4.98,0-9.47,2.14-12.58,5.56c-3.69-7.61-11.49-12.86-20.52-12.86
				c-12.49,0-22.63,10.05-22.78,22.51c-2.38-1.26-5.08-1.98-7.96-1.98c-5.49,0-10.37,2.6-13.48,6.64h21.86h5.11h33.58h6.05h21h6.51
				h44.75v-28.88H750.04z"/>
		</g>
		<g>
			<rect y="425.99" class="st40" width="750" height="74.02"/>
			<g class="st44">
				<path class="st45" d="M235.87,492.67h36.15c0.77,0,1.52,0.14,2.22,0.4c2.09,0.78,3.7,2.62,3.92,4.92V498
					c0.02,0.21,0.03,0.41,0.03,0.62c0,0.2-0.01,0.41-0.04,0.6c-0.03,0.26-0.1,0.52-0.16,0.77h170.25c-0.42-0.81-0.67-1.73-0.67-2.71
					c0-3.26-2.65-5.9-5.91-5.9H430.6c-2.91,0-5.26-2.35-5.26-5.25s2.36-5.25,5.26-5.25h35.49c3.09,0,5.85-2.25,6.14-5.32
					c0.04-0.41,0.03-0.82-0.01-1.21c0.18-3.09,2.75-5.55,5.9-5.55h12.13c0.77,0,1.52-0.14,2.22-0.4c0.7-0.26,1.34-0.64,1.9-1.11
					c0.56-0.47,1.02-1.04,1.37-1.69c0.35-0.64,0.58-1.36,0.65-2.13c0.34-3.52-2.43-6.48-5.89-6.48h-36.15
					c-0.77,0-1.52-0.14-2.22-0.4c-2.09-0.78-3.7-2.62-3.92-4.92v-0.01c-0.02-0.21-0.03-0.41-0.03-0.62c0-0.2,0.01-0.41,0.04-0.6
					c0.32-2.95,2.83-5.25,5.87-5.25h33.45c3.09,0,5.85-2.25,6.14-5.32c0.34-3.52-2.43-6.48-5.89-6.48h-43.04
					c-3.27,0-5.91-1.34-5.91-4.6l0,0c0-0.95-0.23-1.84-0.63-2.64h-94.9c0.33,0.63,0.54,1.32,0.62,2.06
					c0.02,0.21,0.03,0.42,0.03,0.62c0,0.2-0.01,0.4-0.04,0.6c-0.32,2.96-2.83,5.26-5.87,5.26h-22.38c-3.09,0-5.85,2.25-6.14,5.32
					c-0.34,3.52,2.43,6.48,5.89,6.48h31.97c3.27,0,5.91,2.64,5.91,5.9c0,3.26,2.65,5.9,5.91,5.9h9.03c2.91,0,5.26,2.35,5.26,5.25
					s-2.36,5.25-5.26,5.25h-79.61c-0.62,0-1.22,0.11-1.79,0.28H260c-3.3,0-5.77,2.73-5.83,6.02c-0.06,3.2-2.69,5.78-5.91,5.78
					h-12.13c-0.77,0-1.52,0.14-2.22,0.4c-0.7,0.26-1.34,0.64-1.9,1.11c-0.56,0.47-1.02,1.04-1.37,1.69
					c-0.35,0.64-0.58,1.36-0.65,2.13C229.65,489.71,232.41,492.67,235.87,492.67z"/>
				<path class="st45" d="M282.96,445.47c0.94,0.64,2.08,1.01,3.31,1.01h10.44c0.36,0,0.71-0.04,1.05-0.1
					c0.03,0,0.06-0.01,0.08-0.01c0.33-0.06,0.64-0.16,0.94-0.27c0.04-0.01,0.08-0.03,0.12-0.04c0.29-0.12,0.58-0.26,0.84-0.42
					c0.04-0.02,0.08-0.05,0.12-0.07c0.26-0.17,0.51-0.35,0.75-0.56c0.03-0.03,0.06-0.06,0.1-0.09c0.23-0.21,0.45-0.44,0.64-0.69
					c0.02-0.03,0.04-0.06,0.06-0.08c0.2-0.26,0.37-0.53,0.53-0.82c0.01-0.02,0.02-0.04,0.03-0.06c0.32-0.62,0.53-1.3,0.61-2.03l0,0
					l0,0c0.02-0.21,0.04-0.43,0.04-0.65c0-3.26-2.65-5.9-5.91-5.9h-5.48h-4.96c-1.02,0-1.98,0.26-2.82,0.71
					c-0.23,0.12-0.45,0.26-0.66,0.42c-1.47,1.07-2.43,2.81-2.43,4.77c0,1.27,0.4,2.45,1.09,3.42
					C281.86,444.57,282.37,445.07,282.96,445.47z"/>
				<path class="st45" d="M505.96,445.18h3.21h4.96c0.82,0,1.59-0.17,2.3-0.46c2.12-0.9,3.61-2.99,3.61-5.44
					c0-2.44-1.49-4.54-3.61-5.44c-0.71-0.3-1.49-0.46-2.3-0.46h-8.16c-0.36,0-0.71,0.04-1.05,0.1c-0.03,0.01-0.06,0.01-0.08,0.01
					c-0.33,0.06-0.64,0.16-0.94,0.27c-0.04,0.01-0.08,0.03-0.12,0.04c-0.29,0.12-0.58,0.26-0.84,0.42
					c-0.04,0.02-0.08,0.05-0.12,0.07c-0.26,0.17-0.51,0.35-0.75,0.56c-0.03,0.03-0.06,0.06-0.1,0.09c-0.23,0.21-0.45,0.44-0.64,0.69
					c-0.02,0.03-0.04,0.06-0.06,0.09c-0.2,0.26-0.37,0.53-0.53,0.82c-0.01,0.02-0.02,0.04-0.03,0.06c-0.32,0.62-0.53,1.3-0.61,2.03
					l0,0l0,0c-0.02,0.21-0.04,0.43-0.04,0.65C500.05,442.54,502.7,445.18,505.96,445.18z"/>
			</g>
			
				<radialGradient id="SVGID_27_" cx="595.1093" cy="1215.4645" r="26.3527" gradientTransform="matrix(8.776 0 0 1.1013 -4847.6792 -912.6011)" gradientUnits="userSpaceOnUse">
				<stop  offset="0" style="stop-color:#02CBBE"/>
				<stop  offset="0.9583" style="stop-color:#02CBBE;stop-opacity:0"/>
			</radialGradient>
			<ellipse class="st46" cx="375" cy="425.99" rx="231.29" ry="29.02"/>
		</g>
	</g>
	<g id="lines" class="st3">
		<line class="st47" x1="576.26" y1="0" x2="341.72" y2="109.05"/>
		<line class="st48" x1="592.88" y1="0" x2="380.93" y2="98.55"/>
		<line class="st47" x1="750.39" y1="133.74" x2="595.44" y2="205.79"/>
		<line class="st48" x1="750.39" y1="143.45" x2="621.32" y2="203.46"/>
		<line class="st48" x1="170.05" y1="0" x2="64.07" y2="49.28"/>
		<line class="st47" x1="147.83" y1="0" x2="108.91" y2="18.1"/>
	</g>
</g>
</svg>
