<?xml version="1.0" encoding="utf-8"?>
<!-- Generator: Adobe Illustrator 25.3.1, SVG Export Plug-In . SVG Version: 6.00 Build 0)  -->
<svg version="1.1" id="Calque_1" xmlns="http://www.w3.org/2000/svg" xmlns:xlink="http://www.w3.org/1999/xlink" x="0px" y="0px"
	 viewBox="0 0 750 403.52" style="enable-background:new 0 0 750 403.52;" xml:space="preserve">
<style type="text/css">
	.st0{display:none;}
	.st1{display:inline;fill:url(#SVGID_1_);}
	.st2{display:inline;opacity:0.8;fill:#F9FBFC;enable-background:new    ;}
	.st3{opacity:0.4;fill:#FFFFFF;}
	.st4{display:inline;}
	.st5{fill:#FFFFFF;}
	.st6{display:inline;opacity:0.9;}
	.st7{opacity:0.2;fill:#FFFFFF;enable-background:new    ;}
	.st8{opacity:0.84;fill:#FFFFFF;enable-background:new    ;}
	.st9{fill:#041B38;}
	.st10{fill:#000A63;}
	.st11{fill:url(#SVGID_2_);}
	.st12{opacity:0.45;fill:url(#SVGID_3_);enable-background:new    ;}
	.st13{fill:url(#SVGID_4_);}
	.st14{opacity:0.45;fill:url(#SVGID_5_);enable-background:new    ;}
	.st15{fill:url(#SVGID_6_);}
	.st16{opacity:0.45;fill:url(#SVGID_7_);enable-background:new    ;}
	.st17{opacity:0.45;fill:url(#SVGID_8_);enable-background:new    ;}
	.st18{opacity:0.45;fill:url(#SVGID_9_);enable-background:new    ;}
	.st19{opacity:0.45;fill:url(#SVGID_10_);enable-background:new    ;}
	.st20{fill:none;stroke:#000A63;stroke-width:2;stroke-linecap:round;stroke-linejoin:round;stroke-miterlimit:10;}
	.st21{opacity:0.45;fill:url(#SVGID_11_);enable-background:new    ;}
	.st22{fill:#02CBBE;}
	.st23{opacity:0.51;fill:url(#SVGID_12_);enable-background:new    ;}
	.st24{opacity:0.45;fill:url(#SVGID_13_);enable-background:new    ;}
	.st25{opacity:0.51;fill:url(#SVGID_14_);enable-background:new    ;}
	.st26{display:inline;fill:#000A63;}
	.st27{fill:none;stroke:#FF895B;stroke-width:2;stroke-linecap:round;stroke-linejoin:round;stroke-miterlimit:10;}
	.st28{fill:#FF895B;}
	.st29{fill:none;stroke:#000A63;stroke-width:0.75;stroke-linecap:round;stroke-linejoin:round;stroke-miterlimit:10;}
	.st30{fill:none;stroke:#000A63;stroke-width:1.2;stroke-linecap:round;stroke-linejoin:round;stroke-miterlimit:10;}
	.st31{opacity:0.5;fill:url(#SVGID_15_);enable-background:new    ;}
	.st32{opacity:0.5;fill:url(#SVGID_16_);enable-background:new    ;}
	.st33{opacity:0.5;fill:url(#SVGID_17_);enable-background:new    ;}
	.st34{opacity:0.5;fill:url(#SVGID_18_);enable-background:new    ;}
	.st35{opacity:0.5;fill:url(#SVGID_19_);enable-background:new    ;}
	.st36{opacity:0.5;fill:url(#SVGID_20_);enable-background:new    ;}
	.st37{opacity:0.5;fill:url(#SVGID_21_);enable-background:new    ;}
	.st38{opacity:0.5;fill:url(#SVGID_22_);enable-background:new    ;}
	.st39{opacity:0.5;fill:url(#SVGID_23_);enable-background:new    ;}
	.st40{fill:url(#SVGID_24_);}
	.st41{fill:#041D38;}
	.st42{opacity:0.76;fill:#F9FBFC;enable-background:new    ;}
	.st43{opacity:0.91;fill:#F9FBFC;enable-background:new    ;}
	.st44{opacity:0.8;fill:#F9FBFC;enable-background:new    ;}
	.st45{opacity:0.3;}
	.st46{fill:#043CC8;}
	.st47{display:none;opacity:0.78;fill:url(#SVGID_25_);enable-background:new    ;}
	.st48{fill:none;stroke:#F9FBFC;stroke-width:0.5;stroke-linecap:round;stroke-linejoin:round;stroke-miterlimit:10;}
	.st49{fill:none;stroke:#F9FBFC;stroke-linecap:round;stroke-linejoin:round;stroke-miterlimit:10;}
</style>
<g id="background" class="st0">
	
		<linearGradient id="SVGID_1_" gradientUnits="userSpaceOnUse" x1="375.155" y1="-523.1429" x2="375.155" y2="-822.6866" gradientTransform="matrix(1 0 0 -1 0 -472.1102)">
		<stop  offset="0" style="stop-color:#041D38"/>
		<stop  offset="1" style="stop-color:#041D6B"/>
	</linearGradient>
	<rect x="-0.08" y="0" class="st1" width="750.47" height="406.89"/>
	<path class="st2" d="M443.75,499.78c6.69-2.61,13.64-3.39,20.31-2.61c-10.93-29.11,3.53-61.68,32.59-73
		c20.99-8.18,43.89-3.05,59.38,11.3c4.14-10.76,12.63-19.81,24.22-24.33c8.71-3.39,17.85-3.71,26.25-1.5
		c-3.6-32.98,15.08-65.56,47.46-78.19c37.93-14.79,80.55,3.32,96.44,40.47v131.07H431.46C435.01,499.93,439.13,501.58,443.75,499.78
		z"/>
	<path class="st2" d="M288.93,502.99c-2.35-2.01-4.99-1.54-7.91-2.04c-2.95-9.74-11.98-16.83-22.68-16.83
		c-3.51,0-6.84,0.78-9.83,2.16c0.71-2.26,1.1-4.65,1.1-7.15c0-13.09-10.61-23.71-23.71-23.71c-0.83,0-1.65,0.04-2.46,0.13
		c0.89-2.49,1.4-5.16,1.4-7.95c0-13.09-10.61-23.71-23.71-23.71c-9.26,0-17.26,5.32-21.16,13.06c-3.51-3.85-7.94-6.97-13.13-8.99
		c-7.15-2.77-14.65-3.03-21.54-1.22c2.95-26.93-12.37-53.55-38.94-63.86c-18.74-7.27-38.88-4.79-54.78,4.95
		c-0.49-17.07-14.55-30.77-31.82-30.77c-7.5,0-14.39,2.59-19.83,6.9v159.02L288.93,502.99L288.93,502.99z"/>
</g>
<path class="st3" d="M35.06,184.72c-0.74,0-0.74,1.15,0,1.15C35.8,185.87,35.8,184.72,35.06,184.72z"/>
<path class="st3" d="M24.35,230.74c-0.74,0-0.74,1.15,0,1.15S25.1,230.74,24.35,230.74z"/>
<path class="st3" d="M71.88,321.91c-0.74,0-0.74,1.15,0,1.15C72.62,323.06,72.62,321.91,71.88,321.91z"/>
<path class="st3" d="M164.68,321.34c-0.74,0-0.74,1.15,0,1.15S165.42,321.34,164.68,321.34z"/>
<path class="st3" d="M57.85,26.57c-0.74,0-0.74,1.15,0,1.15S58.59,26.57,57.85,26.57z"/>
<path class="st3" d="M19.06,31.89c-0.74,0-0.74,1.15,0,1.15S19.8,31.89,19.06,31.89z"/>
<path class="st3" d="M131.1,36.07c-0.74,0-0.74,1.15,0,1.15C131.84,37.23,131.84,36.07,131.1,36.07z"/>
<path class="st3" d="M67.25,72.43c-0.74,0-0.74,1.15,0,1.15S67.99,72.43,67.25,72.43z"/>
<path class="st3" d="M115.06,144.85c-0.74,0-0.74,1.15,0,1.15C115.8,146,115.8,144.85,115.06,144.85z"/>
<path class="st3" d="M49.68,105.22c-0.74,0-0.74,1.15,0,1.15C50.42,106.37,50.42,105.22,49.68,105.22z"/>
<path class="st3" d="M130.54,214.29c-0.74,0-0.74,1.15,0,1.15C131.28,215.44,131.28,214.29,130.54,214.29z"/>
<path class="st3" d="M103.31,234.62c-0.74,0-0.74,1.15,0,1.15C104.05,235.77,104.05,234.62,103.31,234.62z"/>
<path class="st3" d="M97.69,296.33c-0.74,0-0.74,1.15,0,1.15C98.43,297.48,98.43,296.33,97.69,296.33z"/>
<path class="st3" d="M131.1,281.71c-0.74,0-0.74,1.15,0,1.15C131.84,282.86,131.84,281.71,131.1,281.71z"/>
<path class="st3" d="M181.94,222.73c-0.74,0-0.74,1.15,0,1.15C182.68,223.88,182.68,222.73,181.94,222.73z"/>
<path class="st3" d="M211.82,270.49c-0.74,0-0.74,1.15,0,1.15C212.56,271.64,212.56,270.49,211.82,270.49z"/>
<path class="st3" d="M183.48,68.21c-0.74,0-0.74,1.15,0,1.15S184.22,68.21,183.48,68.21z"/>
<path class="st3" d="M126.99,92.63c-0.74,0-0.74,1.15,0,1.15S127.73,92.63,126.99,92.63z"/>
<path class="st3" d="M48.41,379.11c-0.17-0.55-0.52-0.91-1.07-1.07c-0.16-0.05-0.16-0.09,0-0.14c0.55-0.17,0.91-0.52,1.07-1.07
	c0.05-0.16,0.09-0.16,0.14,0c0.17,0.55,0.52,0.91,1.07,1.07c0.16,0.05,0.16,0.09,0,0.14c-0.55,0.17-0.91,0.52-1.07,1.07
	C48.5,379.27,48.46,379.27,48.41,379.11z"/>
<path class="st3" d="M17.68,310.01c-0.17-0.55-0.52-0.91-1.07-1.07c-0.16-0.05-0.16-0.09,0-0.14c0.55-0.17,0.91-0.52,1.07-1.07
	c0.05-0.16,0.09-0.16,0.14,0c0.17,0.55,0.52,0.91,1.07,1.07c0.16,0.05,0.16,0.09,0,0.14c-0.55,0.17-0.91,0.52-1.07,1.07
	C17.77,310.17,17.73,310.17,17.68,310.01z"/>
<path class="st3" d="M100.09,29.87c-0.17-0.55-0.52-0.91-1.07-1.07c-0.16-0.05-0.16-0.09,0-0.14c0.55-0.17,0.91-0.52,1.07-1.07
	c0.05-0.16,0.09-0.16,0.14,0c0.17,0.55,0.52,0.91,1.07,1.07c0.16,0.05,0.16,0.09,0,0.14c-0.55,0.17-0.91,0.52-1.07,1.07
	C100.18,30.04,100.14,30.04,100.09,29.87z"/>
<path class="st3" d="M13.5,72.26c-0.17-0.55-0.52-0.91-1.07-1.07c-0.16-0.05-0.16-0.09,0-0.14c0.55-0.17,0.91-0.52,1.07-1.07
	c0.05-0.16,0.09-0.16,0.14,0c0.17,0.55,0.52,0.91,1.07,1.07c0.16,0.05,0.16,0.09,0,0.14c-0.55,0.17-0.91,0.52-1.07,1.07
	C13.59,72.43,13.54,72.43,13.5,72.26z"/>
<path class="st3" d="M224.45,353.18c-0.74,0-0.74,1.15,0,1.15S225.19,353.18,224.45,353.18z"/>
<path class="st3" d="M86.51,377.39c-0.74,0-0.74,1.15,0,1.15S87.25,377.39,86.51,377.39z"/>
<path class="st3" d="M96.23,357.92c-0.74,0-0.74,1.15,0,1.15S96.97,357.92,96.23,357.92z"/>
<path class="st3" d="M185.66,358.5c-0.74,0-0.74,1.15,0,1.15C186.4,359.65,186.4,358.5,185.66,358.5z"/>
<path class="st3" d="M240.3,366.39c-0.74,0-0.74,1.15,0,1.15C241.04,367.54,241.04,366.39,240.3,366.39z"/>
<path class="st3" d="M226.77,160.26c-0.74,0-0.74,1.15,0,1.15C227.51,161.41,227.52,160.26,226.77,160.26z"/>
<path class="st3" d="M241.39,15.73c-0.74,0-0.74,1.15,0,1.15C242.14,16.88,242.14,15.73,241.39,15.73z"/>
<path class="st3" d="M210.77,21.62c-0.74,0-0.74,1.15,0,1.15C211.51,22.77,211.52,21.62,210.77,21.62z"/>
<path class="st3" d="M241.39,94.95c-0.74,0-0.74,1.15,0,1.15C242.14,96.1,242.14,94.95,241.39,94.95z"/>
<path class="st3" d="M225.44,80.75c-0.17-0.55-0.52-0.91-1.07-1.07c-0.16-0.05-0.16-0.09,0-0.14c0.55-0.17,0.91-0.52,1.07-1.07
	c0.05-0.16,0.09-0.16,0.14,0c0.17,0.55,0.52,0.91,1.07,1.07c0.16,0.05,0.16,0.09,0,0.14c-0.55,0.17-0.91,0.52-1.07,1.07
	C225.53,80.92,225.49,80.92,225.44,80.75z"/>
<path class="st3" d="M411.32,87.04c-0.74,0-0.74,1.15,0,1.15S412.06,87.04,411.32,87.04z"/>
<path class="st3" d="M350.33,162.16c-0.74,0-0.74,1.15,0,1.15C351.07,163.31,351.07,162.16,350.33,162.16z"/>
<path class="st3" d="M404.41,232.74c-0.74,0-0.74,1.15,0,1.15S405.15,232.74,404.41,232.74z"/>
<path class="st3" d="M445.86,160.97c-0.74,0-0.74,1.15,0,1.15C446.6,162.12,446.6,160.97,445.86,160.97z"/>
<path class="st3" d="M435.16,221.18c-0.74,0-0.74,1.15,0,1.15C435.9,222.33,435.9,221.18,435.16,221.18z"/>
<path class="st3" d="M416.88,21.05c-0.74,0-0.74,1.15,0,1.15C417.62,22.2,417.62,21.05,416.88,21.05z"/>
<path class="st3" d="M379.32,146.65c-0.74,0-0.74,1.15,0,1.15C380.06,147.8,380.06,146.65,379.32,146.65z"/>
<path class="st3" d="M404.79,273.85c-0.74,0-0.74,1.15,0,1.15C405.54,275,405.54,273.85,404.79,273.85z"/>
<path class="st3" d="M350.55,368.4c-0.74,0-0.74,1.15,0,1.15C351.29,369.56,351.29,368.4,350.55,368.4z"/>
<path class="st3" d="M401.95,376.84c-0.74,0-0.74,1.15,0,1.15S402.69,376.84,401.95,376.84z"/>
<path class="st3" d="M331.52,96.6c-0.74,0-0.74,1.15,0,1.15C332.26,97.75,332.26,96.6,331.52,96.6z"/>
<path class="st3" d="M270.53,185.91c-0.74,0-0.74,1.15,0,1.15S271.28,185.91,270.53,185.91z"/>
<path class="st3" d="M324.62,242.29c-0.74,0-0.74,1.15,0,1.15C325.36,243.45,325.36,242.29,324.62,242.29z"/>
<path class="st3" d="M366.07,184.72c-0.74,0-0.74,1.15,0,1.15S366.81,184.72,366.07,184.72z"/>
<path class="st3" d="M355.36,230.74c-0.74,0-0.74,1.15,0,1.15C356.1,231.89,356.11,230.74,355.36,230.74z"/>
<path class="st3" d="M256.34,220.43c-0.74,0-0.74,1.15,0,1.15C257.08,221.58,257.08,220.43,256.34,220.43z"/>
<path class="st3" d="M278.62,271.69c-0.74,0-0.74,1.15,0,1.15S279.36,271.69,278.62,271.69z"/>
<path class="st3" d="M255.79,79.66c-0.74,0-0.74,1.15,0,1.15C256.53,80.81,256.53,79.66,255.79,79.66z"/>
<path class="st3" d="M260.64,31.31c-0.74,0-0.74,1.15,0,1.15C261.38,32.47,261.38,31.31,260.64,31.31z"/>
<path class="st3" d="M350.07,31.89c-0.74,0-0.74,1.15,0,1.15S350.81,31.89,350.07,31.89z"/>
<path class="st3" d="M380.69,105.22c-0.74,0-0.74,1.15,0,1.15S381.43,105.22,380.69,105.22z"/>
<path class="st3" d="M299.53,156.21c-0.74,0-0.74,1.15,0,1.15S300.27,156.21,299.53,156.21z"/>
<path class="st3" d="M265.16,134.51c-0.74,0-0.74,1.15,0,1.15C265.9,135.66,265.91,134.51,265.16,134.51z"/>
<path class="st3" d="M325,283.41c-0.74,0-0.74,1.15,0,1.15S325.74,283.41,325,283.41z"/>
<path class="st3" d="M319.62,334.34c-0.74,0-0.74,1.15,0,1.15S320.36,334.34,319.62,334.34z"/>
<path class="st3" d="M379.58,319.99c-0.74,0-0.74,1.15,0,1.15S380.32,319.99,379.58,319.99z"/>
<path class="st3" d="M252.09,319.67c-0.74,0-0.74,1.15,0,1.15C252.83,320.83,252.83,319.67,252.09,319.67z"/>
<path class="st3" d="M270.76,377.96c-0.74,0-0.74,1.15,0,1.15S271.5,377.96,270.76,377.96z"/>
<path class="st3" d="M322.16,386.4c-0.74,0-0.74,1.15,0,1.15S322.9,386.4,322.16,386.4z"/>
<path class="st3" d="M264.56,350.72c-0.17-0.55-0.52-0.91-1.07-1.07c-0.16-0.05-0.16-0.09,0-0.14c0.55-0.17,0.91-0.52,1.07-1.07
	c0.05-0.16,0.09-0.16,0.14,0c0.17,0.55,0.52,0.91,1.07,1.07c0.16,0.05,0.16,0.09,0,0.14c-0.55,0.17-0.91,0.52-1.07,1.07
	C264.65,350.89,264.61,350.89,264.56,350.72z"/>
<path class="st3" d="M577.06,87.39c-0.74,0-0.74,1.15,0,1.15S577.8,87.39,577.06,87.39z"/>
<path class="st3" d="M450.09,96.6c-0.74,0-0.74,1.15,0,1.15S450.83,96.6,450.09,96.6z"/>
<path class="st3" d="M443.19,242.29c-0.74,0-0.74,1.15,0,1.15C443.93,243.45,443.93,242.29,443.19,242.29z"/>
<path class="st3" d="M484.64,184.72c-0.74,0-0.74,1.15,0,1.15S485.38,184.72,484.64,184.72z"/>
<path class="st3" d="M523.91,161.59c-0.74,0-0.74,1.15,0,1.15C524.65,162.74,524.66,161.59,523.91,161.59z"/>
<path class="st3" d="M473.94,230.74c-0.74,0-0.74,1.15,0,1.15S474.68,230.74,473.94,230.74z"/>
<path class="st3" d="M521.46,321.91c-0.74,0-0.74,1.15,0,1.15S522.2,321.91,521.46,321.91z"/>
<path class="st3" d="M614.26,321.34c-0.74,0-0.74,1.15,0,1.15S615,321.34,614.26,321.34z"/>
<path class="st3" d="M507.43,26.57c-0.74,0-0.74,1.15,0,1.15C508.17,27.72,508.17,26.57,507.43,26.57z"/>
<path class="st3" d="M468.64,31.89c-0.74,0-0.74,1.15,0,1.15S469.38,31.89,468.64,31.89z"/>
<path class="st3" d="M580.68,36.07c-0.74,0-0.74,1.15,0,1.15C581.42,37.23,581.42,36.07,580.68,36.07z"/>
<path class="st3" d="M516.83,72.43c-0.74,0-0.74,1.15,0,1.15C517.58,73.58,517.58,72.43,516.83,72.43z"/>
<path class="st3" d="M541.96,119.09c-0.74,0-0.74,1.15,0,1.15S542.7,119.09,541.96,119.09z"/>
<path class="st3" d="M564.64,144.85c-0.74,0-0.74,1.15,0,1.15S565.38,144.85,564.64,144.85z"/>
<path class="st3" d="M499.26,105.22c-0.74,0-0.74,1.15,0,1.15S500,105.22,499.26,105.22z"/>
<path class="st3" d="M580.12,214.29c-0.74,0-0.74,1.15,0,1.15C580.86,215.44,580.87,214.29,580.12,214.29z"/>
<path class="st3" d="M552.89,234.62c-0.74,0-0.74,1.15,0,1.15C553.63,235.77,553.63,234.62,552.89,234.62z"/>
<path class="st3" d="M547.27,296.33c-0.74,0-0.74,1.15,0,1.15C548.01,297.48,548.01,296.33,547.27,296.33z"/>
<path class="st3" d="M580.68,281.71c-0.74,0-0.74,1.15,0,1.15S581.42,281.71,580.68,281.71z"/>
<path class="st3" d="M652.45,266.8c-0.74,0-0.74,1.15,0,1.15S653.19,266.8,652.45,266.8z"/>
<path class="st3" d="M592.92,371.76c-0.74,0-0.74,1.15,0,1.15S593.66,371.76,592.92,371.76z"/>
<path class="st3" d="M631.52,222.73c-0.74,0-0.74,1.15,0,1.15C632.26,223.88,632.26,222.73,631.52,222.73z"/>
<path class="st3" d="M728.23,258.47c-0.74,0-0.74,1.15,0,1.15S728.97,258.47,728.23,258.47z"/>
<path class="st3" d="M614.26,125.31c-0.74,0-0.74,1.15,0,1.15S615,125.31,614.26,125.31z"/>
<path class="st3" d="M633.06,68.21c-0.74,0-0.74,1.15,0,1.15S633.8,68.21,633.06,68.21z"/>
<path class="st3" d="M443.57,283.41c-0.74,0-0.74,1.15,0,1.15S444.31,283.41,443.57,283.41z"/>
<path class="st3" d="M440.73,386.4c-0.74,0-0.74,1.15,0,1.15S441.47,386.4,440.73,386.4z"/>
<path class="st3" d="M457.27,347.22c-0.74,0-0.74,1.15,0,1.15C458.01,348.37,458.01,347.22,457.27,347.22z"/>
<path class="st3" d="M497.99,379.11c-0.17-0.55-0.52-0.91-1.07-1.07c-0.16-0.05-0.16-0.09,0-0.14c0.55-0.17,0.91-0.52,1.07-1.07
	c0.05-0.16,0.09-0.16,0.14,0c0.17,0.55,0.52,0.91,1.07,1.07c0.16,0.05,0.16,0.09,0,0.14c-0.55,0.17-0.91,0.52-1.07,1.07
	C498.08,379.27,498.04,379.27,497.99,379.11z"/>
<path class="st3" d="M467.26,310.01c-0.17-0.55-0.52-0.91-1.07-1.07c-0.16-0.05-0.16-0.09,0-0.14c0.55-0.17,0.91-0.52,1.07-1.07
	c0.05-0.16,0.09-0.16,0.14,0c0.17,0.55,0.52,0.91,1.07,1.07c0.16,0.05,0.16,0.09,0,0.14c-0.55,0.17-0.91,0.52-1.07,1.07
	C467.35,310.17,467.31,310.17,467.26,310.01z"/>
<path class="st3" d="M674.03,353.18c-0.74,0-0.74,1.15,0,1.15S674.78,353.18,674.03,353.18z"/>
<path class="st3" d="M536.09,377.39c-0.74,0-0.74,1.15,0,1.15S536.83,377.39,536.09,377.39z"/>
<path class="st3" d="M545.81,357.92c-0.74,0-0.74,1.15,0,1.15S546.56,357.92,545.81,357.92z"/>
<path class="st3" d="M635.24,358.5c-0.74,0-0.74,1.15,0,1.15S635.98,358.5,635.24,358.5z"/>
<path class="st3" d="M689.88,366.39c-0.74,0-0.74,1.15,0,1.15S690.62,366.39,689.88,366.39z"/>
<path class="st3" d="M680.24,317.9c-0.17-0.55-0.52-0.91-1.07-1.07c-0.16-0.05-0.16-0.09,0-0.14c0.55-0.17,0.91-0.52,1.07-1.07
	c0.05-0.16,0.09-0.16,0.14,0c0.17,0.55,0.52,0.91,1.07,1.07c0.16,0.05,0.16,0.09,0,0.14c-0.55,0.17-0.91,0.52-1.07,1.07
	C680.32,318.07,680.28,318.07,680.24,317.9z"/>
<path class="st3" d="M676.36,160.26c-0.74,0-0.74,1.15,0,1.15C677.1,161.41,677.1,160.26,676.36,160.26z"/>
<path class="st3" d="M665.65,220.47c-0.74,0-0.74,1.15,0,1.15S666.4,220.47,665.65,220.47z"/>
<path class="st3" d="M690.98,15.73c-0.74,0-0.74,1.15,0,1.15S691.72,15.73,690.98,15.73z"/>
<path class="st3" d="M660.36,21.62c-0.74,0-0.74,1.15,0,1.15S661.1,21.62,660.36,21.62z"/>
<path class="st3" d="M690.98,94.95c-0.74,0-0.74,1.15,0,1.15S691.72,94.95,690.98,94.95z"/>
<path class="st3" d="M626.19,158.47c-0.74,0-0.74,1.15,0,1.15C626.94,159.62,626.94,158.47,626.19,158.47z"/>
<path class="st3" d="M720.12,185.91c-0.74,0-0.74,1.15,0,1.15S720.86,185.91,720.12,185.91z"/>
<path class="st3" d="M705.92,220.43c-0.74,0-0.74,1.15,0,1.15C706.66,221.58,706.66,220.43,705.92,220.43z"/>
<path class="st3" d="M705.37,79.66c-0.74,0-0.74,1.15,0,1.15C706.11,80.81,706.11,79.66,705.37,79.66z"/>
<path class="st3" d="M710.22,31.31c-0.74,0-0.74,1.15,0,1.15C710.96,32.47,710.96,31.31,710.22,31.31z"/>
<path class="st3" d="M736.1,168.52c-0.74,0-0.74,1.15,0,1.15C736.84,169.67,736.84,168.52,736.1,168.52z"/>
<path class="st3" d="M714.74,134.51c-0.74,0-0.74,1.15,0,1.15C715.49,135.66,715.49,134.51,714.74,134.51z"/>
<path class="st3" d="M701.67,319.67c-0.74,0-0.74,1.15,0,1.15C702.41,320.83,702.42,319.67,701.67,319.67z"/>
<path class="st3" d="M720.34,377.96c-0.74,0-0.74,1.15,0,1.15S721.08,377.96,720.34,377.96z"/>
<g id="star-lines" class="st0">
	<g id="stars-lines" class="st4">
		<g>
			<path class="st5" d="M364.18,382.85l-40.41,20.87c-0.98,0.51-2.19,0.12-2.7-0.86c-0.51-0.98-0.12-2.19,0.86-2.7
				c0.05-0.03,0.1-0.05,0.15-0.07l42.01-17.45c0.06-0.02,0.12,0,0.15,0.06C364.25,382.76,364.23,382.82,364.18,382.85z"/>
		</g>
		<g>
			<path class="st5" d="M556.79,49.01l-40.41,20.87c-0.98,0.51-2.19,0.12-2.7-0.86s-0.12-2.19,0.86-2.7
				c0.05-0.03,0.1-0.05,0.15-0.07L556.7,48.8c0.06-0.02,0.12,0,0.15,0.06C556.86,48.92,556.84,48.98,556.79,49.01z"/>
		</g>
		<g>
			<path class="st5" d="M443.46,185.54l-61.49,29.89c-0.62,0.3-1.37,0.04-1.67-0.58c-0.3-0.62-0.04-1.37,0.58-1.67
				c0.01-0.01,0.03-0.01,0.04-0.02l62.48-27.75c0.04-0.02,0.08,0,0.09,0.04C443.51,185.48,443.5,185.52,443.46,185.54z"/>
		</g>
		<g>
			<path class="st5" d="M365.25,24.89l-72.87,35.18c-0.62,0.3-1.37,0.04-1.67-0.58s-0.04-1.37,0.58-1.67c0.01,0,0.02-0.01,0.03-0.02
				l73.86-33.04c0.04-0.02,0.08,0,0.09,0.04C365.3,24.83,365.29,24.87,365.25,24.89z"/>
		</g>
		<g>
			<path class="st5" d="M713.72,112.12l-72.87,35.18c-0.62,0.3-1.37,0.04-1.67-0.58s-0.04-1.37,0.58-1.67
				c0.01,0,0.02-0.01,0.03-0.02l73.86-33.04c0.04-0.02,0.08,0,0.09,0.04C713.77,112.06,713.76,112.1,713.72,112.12z"/>
		</g>
		<g>
			<path class="st5" d="M311.82,58.14L280.1,74.19c-0.62,0.31-1.37,0.07-1.68-0.55s-0.07-1.37,0.55-1.68
				c0.02-0.01,0.05-0.02,0.08-0.04l32.72-13.91c0.04-0.02,0.08,0,0.09,0.04C311.86,58.08,311.85,58.12,311.82,58.14z"/>
		</g>
		<g>
			<path class="st5" d="M652.19,132.86l-31.72,16.05c-0.62,0.31-1.37,0.07-1.68-0.55s-0.07-1.37,0.55-1.68
				c0.02-0.01,0.05-0.02,0.08-0.04l32.72-13.91c0.04-0.02,0.08,0,0.09,0.04C652.23,132.8,652.22,132.84,652.19,132.86z"/>
		</g>
		<g>
			<path class="st5" d="M443.93,195.7l-30.2,16.12c-0.98,0.52-2.19,0.15-2.71-0.82c-0.52-0.98-0.15-2.19,0.82-2.71
				c0.07-0.03,0.13-0.07,0.2-0.09l31.79-12.7c0.06-0.02,0.12,0.01,0.15,0.06C444.01,195.62,443.98,195.68,443.93,195.7z"/>
		</g>
		<g>
			<path class="st5" d="M200.76,300.67l-59.35,29.68c-0.99,0.49-2.19,0.09-2.68-0.89c-0.49-0.99-0.09-2.19,0.89-2.68
				c0.03-0.02,0.07-0.03,0.1-0.05l60.94-26.25c0.06-0.02,0.12,0,0.15,0.06C200.84,300.58,200.81,300.64,200.76,300.67z"/>
		</g>
		<g>
			<path class="st5" d="M62.21,26.55L26.32,45.32c-0.98,0.51-2.19,0.13-2.7-0.85s-0.13-2.19,0.85-2.7c0.05-0.03,0.11-0.06,0.17-0.08
				l37.48-15.34c0.06-0.02,0.12,0,0.15,0.06C62.28,26.46,62.26,26.52,62.21,26.55z"/>
		</g>
	</g>
</g>
<g id="moon_1_" class="st0">
	<g id="moon" class="st6">
		<g>
			<g>
				<circle class="st7" cx="168.28" cy="139.31" r="82.92"/>
				<circle class="st7" cx="168.28" cy="139.31" r="69.16"/>
				<circle class="st7" cx="168.28" cy="139.31" r="54.24"/>
				<ellipse class="st8" cx="168.28" cy="139.3" rx="40.15" ry="40.15"/>
			</g>
		</g>
		<g>
			<path class="st9" d="M200.88,145.63c-1.13,0-2.14-0.83-2.25-1.95c-0.01-0.08-0.01-0.15-0.01-0.23c0-0.07,0.01-0.15,0.01-0.22
				c0.12-1.09,1.04-1.93,2.15-1.93h2.65h1.73c1.13,0,2.14-0.83,2.25-1.95c0.12-1.29-0.89-2.38-2.16-2.38h-7.89
				c-1.2,0-2.17-0.97-2.17-2.17s-0.97-2.17-2.17-2.17h-4.05c-1.07,0-1.93-0.86-1.93-1.93c0-1.07,0.86-1.93,1.93-1.93h11.28h1.72
				c1.13,0,2.14-0.83,2.25-1.95c0.01-0.15,0.01-0.3,0-0.45c0.05-0.86,0.6-1.58,1.36-1.88c-0.61-1.54-1.31-3.04-2.11-4.49h-5.8
				c-0.28,0-0.56-0.05-0.81-0.15c-0.77-0.29-1.36-0.96-1.44-1.81l0,0c-0.01-0.08-0.01-0.15-0.01-0.23s0.01-0.15,0.01-0.22
				c0.12-1.08,1.04-1.93,2.15-1.93h3.14c-1.12-1.53-2.34-2.98-3.66-4.33h-2.9c-1.2,0-2.17-0.49-2.17-1.69l0,0
				c0-1.2-0.97-2.17-2.17-2.17H177.3c-0.02,0-0.03,0-0.05,0l0,0h-10.24c-1.13,0-2.14-0.83-2.25-1.95c-0.12-1.29,0.89-2.38,2.16-2.38
				h1.82h12.29c0.14,0,0.28-0.01,0.42-0.04c0.07-0.01,0.14-0.04,0.21-0.06c0.06-0.02,0.13-0.03,0.19-0.05
				c0.1-0.04,0.19-0.08,0.28-0.13c0.03-0.01,0.05-0.02,0.08-0.04c0.11-0.07,0.22-0.14,0.32-0.22c0,0,0,0,0.01,0
				c0.2-0.17,0.38-0.38,0.5-0.61c-4.57-1.81-9.56-2.82-14.78-2.82c-9.21,0-17.68,3.11-24.46,8.32h11.14c1.13,0,2.14,0.83,2.25,1.95
				c0.01,0.08,0.01,0.15,0.01,0.23c0,0.07-0.01,0.15-0.01,0.22c-0.12,1.09-1.04,1.93-2.15,1.93h-6.48h-1.73
				c-1.13,0-2.14,0.83-2.25,1.95c-0.12,1.29,0.89,2.38,2.16,2.38h11.72c1.2,0,2.17,0.97,2.17,2.17s0.97,2.17,2.17,2.17h3.31
				c1.07,0,1.93,0.86,1.93,1.93s-0.86,1.93-1.93,1.93h-27.46h-1.72c-0.23,0-0.45,0.04-0.66,0.1h-5.3c-1.1,2.75-1.91,5.65-2.38,8.67
				h2.25c0.28,0,0.56,0.05,0.81,0.15c0.77,0.29,1.36,0.96,1.44,1.81l0,0c0.01,0.08,0.01,0.15,0.01,0.23s-0.01,0.15-0.01,0.22
				c-0.12,1.08-1.04,1.93-2.15,1.93h-2.65h-0.12c-0.03,0.62-0.05,1.24-0.05,1.87c0,0.83,0.03,1.65,0.08,2.47h6.16
				c1.2,0,2.17,0.49,2.17,1.69s0.97,2.17,2.17,2.17h22.9c0.02,0,0.03,0,0.05,0l0,0h11.97c1.13,0,2.14,0.83,2.25,1.95
				c0.11,1.2-0.76,2.23-1.9,2.36h-16.79h-4.2h-2.15H135.5c-1.21,0-2.11,1-2.14,2.21c-0.02,1.18-0.98,2.12-2.17,2.12h-0.17
				c0.6,1.49,1.28,2.94,2.05,4.33h6.83c0.28,0,0.56,0.05,0.81,0.15c0.77,0.29,1.36,0.96,1.44,1.81l0,0
				c0.01,0.08,0.01,0.15,0.01,0.23c0,0.07-0.01,0.15-0.01,0.22c-0.12,1.08-1.04,1.93-2.15,1.93h-4.16c1.12,1.53,2.34,2.98,3.66,4.33
				h3.93c1.2,0,2.17,0.49,2.17,1.69s0.97,2.17,2.17,2.17h5.18c0.02,0,0.03,0,0.05,0l0,0h10.24c1.13,0,2.14,0.83,2.25,1.95
				c0.12,1.29-0.89,2.38-2.16,2.38h-1.82h-8.87c-0.14,0-0.28,0.01-0.42,0.04c-0.07,0.01-0.14,0.04-0.21,0.06
				c-0.06,0.02-0.13,0.03-0.19,0.05c-0.1,0.04-0.19,0.08-0.28,0.13c-0.01,0.01-0.03,0.02-0.05,0.02c5.11,2.36,10.79,3.68,16.79,3.68
				c3.26,0,6.43-0.4,9.47-1.13c0.08-0.23,0.13-0.47,0.13-0.72c0.02-1.18,0.98-2.12,2.17-2.12h4.36h1.32
				c0.85-0.41,1.67-0.86,2.48-1.32c0.09-0.2,0.15-0.41,0.18-0.63c0.12-1.29-0.89-2.38-2.16-2.38H175.3c-1.13,0-2.14-0.83-2.25-1.95
				c-0.01-0.08-0.01-0.15-0.01-0.23c0-0.07,0.01-0.15,0.01-0.22c0.12-1.09,1.04-1.93,2.15-1.93h2.65h1.72
				c1.13,0,2.14-0.83,2.25-1.95c0.12-1.29-0.89-2.38-2.16-2.38h-7.89c-1.2,0-2.17-0.97-2.17-2.17s-0.97-2.17-2.17-2.17h-3.31
				c-1.07,0-1.93-0.86-1.93-1.93c0-1.01,0.78-1.83,1.77-1.91h39.45h1.86c0.09,0,0.17-0.02,0.25-0.03c1.1-2.75,1.92-5.64,2.39-8.64
				h-7.03V145.63z"/>
			<path class="st9" d="M136.07,116.14h3.83c0.13,0,0.26-0.01,0.39-0.04c0.01,0,0.02,0,0.03,0c0.12-0.02,0.23-0.06,0.35-0.1
				c0.01-0.01,0.03-0.01,0.04-0.02c0.11-0.04,0.21-0.1,0.31-0.16c0.01-0.01,0.03-0.02,0.04-0.03c0.1-0.06,0.19-0.13,0.27-0.21
				c0.01-0.01,0.02-0.02,0.04-0.03c0.09-0.08,0.16-0.16,0.24-0.25c0.01-0.01,0.02-0.02,0.02-0.03c0.07-0.1,0.14-0.2,0.19-0.3
				c0-0.01,0.01-0.01,0.01-0.02c0.12-0.23,0.19-0.48,0.22-0.74l0,0l0,0c0.01-0.08,0.01-0.16,0.01-0.24c0-1.2-0.97-2.17-2.17-2.17
				h-0.86c-1.26,1.34-2.42,2.76-3.49,4.26C135.72,116.1,135.89,116.14,136.07,116.14z"/>
			<path class="st9" d="M195.4,162.85c-0.35-0.23-0.76-0.37-1.21-0.37h-7.65c-0.13,0-0.26,0.01-0.39,0.04c-0.01,0-0.02,0-0.03,0
				c-0.12,0.02-0.23,0.06-0.35,0.1c-0.01,0.01-0.03,0.01-0.04,0.02c-0.11,0.04-0.21,0.1-0.31,0.16c-0.01,0.01-0.03,0.02-0.04,0.03
				c-0.1,0.06-0.19,0.13-0.27,0.21c-0.01,0.01-0.02,0.02-0.04,0.03c-0.09,0.08-0.16,0.16-0.24,0.25c-0.01,0.01-0.02,0.02-0.02,0.03
				c-0.07,0.1-0.14,0.2-0.19,0.3c0,0.01-0.01,0.01-0.01,0.02c-0.12,0.23-0.19,0.48-0.22,0.74l0,0l0,0
				c-0.01,0.08-0.01,0.16-0.01,0.24c0,1.2,0.97,2.17,2.17,2.17h5.84h1.82c0.37,0,0.73-0.09,1.03-0.26c0.08-0.05,0.17-0.1,0.24-0.15
				c0.54-0.39,0.89-1.03,0.89-1.75c0-0.47-0.15-0.9-0.4-1.25C195.8,163.18,195.61,162.99,195.4,162.85z"/>
		</g>
	</g>
</g>
<g id="others" class="st0">
	<g class="st4">
		<g>
			<g>
				<g>
					<path class="st10" d="M312.48,423.43h11.44c0.55,0,1,0.45,1,1v0.7c0,0.55-0.45,1-1,1h-11.44c-0.55,0-1-0.45-1-1v-0.7
						C311.48,423.88,311.93,423.43,312.48,423.43z"/>
					<path class="st10" d="M318.2,425.97c-0.14,0-0.28-0.02-0.42-0.07c-0.61-0.23-0.92-0.91-0.7-1.53l6.13-16.38
						c0.23-0.61,0.91-0.93,1.53-0.7c0.61,0.23,0.92,0.91,0.7,1.53l-6.13,16.38C319.14,425.68,318.68,425.97,318.2,425.97z"/>
				</g>
				<polygon class="st10" points="336.15,394.01 364.65,379.7 364.15,375.69 336.13,390.48 				"/>
				<g>
					
						<linearGradient id="SVGID_2_" gradientUnits="userSpaceOnUse" x1="319.5753" y1="-845.4402" x2="362.06" y2="-845.4402" gradientTransform="matrix(1 0 0 -1 0 -472.1102)">
						<stop  offset="0" style="stop-color:#FF895B"/>
						<stop  offset="0.5062" style="stop-color:#9E6F8A"/>
						<stop  offset="1" style="stop-color:#4356B5"/>
					</linearGradient>
					<path class="st11" d="M338.44,400.22L338.44,400.22L362.06,352l-0.74-17.84l0,0c-7.88,0-14.91,4.72-17.51,11.77l-24.18,65.38
						c-0.21,0.58,0.21,1.19,0.83,1.19h5.35c0.4,0,0.75-0.26,0.85-0.65C327.24,409.63,329.79,402.37,338.44,400.22z"/>
					
						<linearGradient id="SVGID_3_" gradientUnits="userSpaceOnUse" x1="338.7336" y1="-806.3771" x2="341.699" y2="-870.4296" gradientTransform="matrix(1 0 0 -1 0 -472.1102)">
						<stop  offset="0" style="stop-color:#000A63"/>
						<stop  offset="1" style="stop-color:#000A63;stop-opacity:0"/>
					</linearGradient>
					<path class="st12" d="M332.71,393.15l23.62-48.22l-0.42-10c-5.55,1.6-10.12,5.62-12.1,11l-19.27,52.1
						C326.34,395.99,328.95,394.09,332.71,393.15z"/>
					<path class="st10" d="M355.95,364.49l6.12-12.49l-0.74-17.84l0,0c-7.88,0-14.91,4.72-17.51,11.77l-6.86,18.56H355.95z"/>
				</g>
			</g>
			<g>
				<g>
					<path class="st10" d="M434.83,423.43h-11.44c-0.55,0-1,0.45-1,1v0.7c0,0.55,0.45,1,1,1h11.44c0.55,0,1-0.45,1-1v-0.7
						C435.83,423.88,435.38,423.43,434.83,423.43z"/>
					<path class="st10" d="M429.11,425.97c0.14,0,0.28-0.02,0.42-0.07c0.61-0.23,0.92-0.91,0.7-1.53l-6.13-16.38
						c-0.23-0.61-0.91-0.93-1.53-0.7c-0.61,0.23-0.92,0.91-0.69,1.53L428,425.2C428.18,425.68,428.63,425.97,429.11,425.97z"/>
				</g>
				<polygon class="st10" points="411.17,394.01 382.67,379.7 383.16,375.69 411.19,390.48 				"/>
				<g>
					
						<linearGradient id="SVGID_4_" gradientUnits="userSpaceOnUse" x1="1061.9268" y1="-845.4402" x2="1104.4114" y2="-845.4402" gradientTransform="matrix(-1 0 0 -1 1489.6614 -472.1102)">
						<stop  offset="0" style="stop-color:#FF895B"/>
						<stop  offset="0.5062" style="stop-color:#9E6F8A"/>
						<stop  offset="1" style="stop-color:#4356B5"/>
					</linearGradient>
					<path class="st13" d="M408.87,400.22L408.87,400.22L385.25,352l0.74-17.84l0,0c7.88,0,14.91,4.72,17.51,11.77l24.18,65.38
						c0.21,0.58-0.21,1.19-0.83,1.19h-5.35c-0.4,0-0.75-0.26-0.85-0.65C420.07,409.63,417.52,402.37,408.87,400.22z"/>
					
						<linearGradient id="SVGID_5_" gradientUnits="userSpaceOnUse" x1="1081.085" y1="-806.3769" x2="1084.0504" y2="-870.4294" gradientTransform="matrix(-1 0 0 -1 1489.6614 -472.1102)">
						<stop  offset="0" style="stop-color:#000A63"/>
						<stop  offset="1" style="stop-color:#000A63;stop-opacity:0"/>
					</linearGradient>
					<path class="st14" d="M414.6,393.15l-23.62-48.22l0.42-10c5.55,1.6,10.12,5.62,12.1,11l19.27,52.1
						C420.98,395.99,418.37,394.09,414.6,393.15z"/>
					<path class="st10" d="M391.37,364.49L385.25,352l0.74-17.84l0,0c7.88,0,14.91,4.72,17.51,11.77l6.86,18.56H391.37z"/>
				</g>
			</g>
		</g>
		
			<linearGradient id="SVGID_6_" gradientUnits="userSpaceOnUse" x1="356.66" y1="-749.6052" x2="390.66" y2="-749.6052" gradientTransform="matrix(1 0 0 -1 0 -472.1102)">
			<stop  offset="0" style="stop-color:#FF895B"/>
			<stop  offset="0.5062" style="stop-color:#9E6F8A"/>
			<stop  offset="1" style="stop-color:#4356B5"/>
		</linearGradient>
		<path class="st15" d="M379.05,396.69c0.89,0,1.66-0.61,1.86-1.47c5.97-26.08,9.75-64.3,9.75-106.9c0-57.97-6.98-107.84-17-130.02
			c-10.02,22.18-17,72.05-17,130.02c0,42.6,3.77,80.82,9.75,106.9c0.2,0.87,0.97,1.47,1.86,1.47H379.05z"/>
		
			<linearGradient id="SVGID_7_" gradientUnits="userSpaceOnUse" x1="356.6552" y1="-788.1702" x2="390.6586" y2="-788.1702" gradientTransform="matrix(1 0 0 -1 0 -472.1102)">
			<stop  offset="0" style="stop-color:#000A63"/>
			<stop  offset="1" style="stop-color:#000A63;stop-opacity:0"/>
		</linearGradient>
		<path class="st16" d="M356.95,308.48c0.15,5.14,0.34,10.21,0.59,15.16h32.22c0.25-4.95,0.45-10.02,0.59-15.16H356.95z"/>
		
			<linearGradient id="SVGID_8_" gradientUnits="userSpaceOnUse" x1="356.6552" y1="-861.2552" x2="390.6585" y2="-861.2552" gradientTransform="matrix(1 0 0 -1 0 -472.1102)">
			<stop  offset="0" style="stop-color:#000A63"/>
			<stop  offset="1" style="stop-color:#000A63;stop-opacity:0"/>
		</linearGradient>
		<path class="st17" d="M363.68,381.59c0.85,4.84,1.76,9.4,2.72,13.64c0.2,0.87,0.97,1.47,1.86,1.47h10.79
			c0.89,0,1.66-0.61,1.86-1.47c0.97-4.23,1.88-8.8,2.72-13.64H363.68z"/>
		
			<linearGradient id="SVGID_9_" gradientUnits="userSpaceOnUse" x1="356.6552" y1="-844.7352" x2="390.6586" y2="-844.7352" gradientTransform="matrix(1 0 0 -1 0 -472.1102)">
			<stop  offset="0" style="stop-color:#000A63"/>
			<stop  offset="1" style="stop-color:#000A63;stop-opacity:0"/>
		</linearGradient>
		<path class="st18" d="M384.68,375.26c0.27-1.73,0.54-3.48,0.79-5.27h-23.62c0.25,1.79,0.52,3.54,0.79,5.27H384.68z"/>
		
			<linearGradient id="SVGID_10_" gradientUnits="userSpaceOnUse" x1="356.6552" y1="-832.1501" x2="390.6586" y2="-832.1501" gradientTransform="matrix(1 0 0 -1 0 -472.1102)">
			<stop  offset="0" style="stop-color:#000A63"/>
			<stop  offset="1" style="stop-color:#000A63;stop-opacity:0"/>
		</linearGradient>
		<path class="st19" d="M360.27,357.47c0.19,1.73,0.39,3.45,0.6,5.14h25.57c0.21-1.69,0.41-3.4,0.6-5.14H360.27z"/>
		<path class="st10" d="M382.63,189.56c-2.54-13.08-5.58-23.76-8.97-31.26c-3.39,7.5-6.43,18.18-8.97,31.26l0,0
			C370.1,185.87,377.22,185.87,382.63,189.56L382.63,189.56z"/>
		<polygon class="st10" points="376.24,426.13 371.07,426.13 368.55,396.69 378.76,396.69 		"/>
		<g>
			<line class="st20" x1="363.11" y1="329.32" x2="363.11" y2="333.16"/>
			<line class="st20" x1="373.66" y1="329.32" x2="373.66" y2="333.16"/>
			<line class="st20" x1="384.21" y1="329.32" x2="384.21" y2="333.16"/>
		</g>
		<g>
			
				<linearGradient id="SVGID_11_" gradientUnits="userSpaceOnUse" x1="404.1369" y1="-762.7633" x2="422.2069" y2="-762.7633" gradientTransform="matrix(1 0 0 -1 -34.0969 -544.4983)">
				<stop  offset="0" style="stop-color:#000A63"/>
				<stop  offset="1" style="stop-color:#000A63;stop-opacity:0"/>
			</linearGradient>
			<polygon class="st21" points="376.9,206.95 370.04,216.57 388.11,229.58 386.43,213.12 			"/>
			<circle class="st22" cx="373.43" cy="211.73" r="5.91"/>
			<path class="st10" d="M378.2,211.73c0,2.64-2.14,4.77-4.77,4.77c-2.64,0-4.77-2.14-4.77-4.77c0-2.64,2.14-4.77,4.77-4.77
				C376.06,206.95,378.2,209.09,378.2,211.73z"/>
			
				<linearGradient id="SVGID_12_" gradientUnits="userSpaceOnUse" x1="405.7054" y1="-753.1734" x2="407.2328" y2="-756.522" gradientTransform="matrix(1 0 0 -1 -34.0969 -544.4983)">
				<stop  offset="0" style="stop-color:#E8DBD3"/>
				<stop  offset="1" style="stop-color:#E8DBD3;stop-opacity:0"/>
			</linearGradient>
			<path class="st23" d="M375.21,208.38c-0.53-0.29-1.14-0.45-1.79-0.45c-2.09,0-3.79,1.7-3.79,3.79c0,0.49,0.1,0.97,0.27,1.4
				C372.34,212.34,374.39,210.79,375.21,208.38z"/>
		</g>
		<g>
			
				<linearGradient id="SVGID_13_" gradientUnits="userSpaceOnUse" x1="404.1369" y1="-784.7983" x2="423.8269" y2="-784.7983" gradientTransform="matrix(1 0 0 -1 -34.0969 -544.4983)">
				<stop  offset="0" style="stop-color:#000A63"/>
				<stop  offset="1" style="stop-color:#000A63;stop-opacity:0"/>
			</linearGradient>
			<polygon class="st24" points="376.9,228.4 370.04,238.02 389.73,252.2 388.66,236.02 			"/>
			<circle class="st22" cx="373.43" cy="233.18" r="5.91"/>
			<path class="st10" d="M378.2,233.18c0,2.64-2.14,4.77-4.77,4.77c-2.64,0-4.77-2.14-4.77-4.77c0-2.64,2.14-4.77,4.77-4.77
				C376.06,228.4,378.2,230.54,378.2,233.18z"/>
			
				<linearGradient id="SVGID_14_" gradientUnits="userSpaceOnUse" x1="405.706" y1="-774.6247" x2="407.2335" y2="-777.9733" gradientTransform="matrix(1 0 0 -1 -34.0969 -544.4983)">
				<stop  offset="0" style="stop-color:#E8DBD3"/>
				<stop  offset="1" style="stop-color:#E8DBD3;stop-opacity:0"/>
			</linearGradient>
			<path class="st25" d="M375.21,229.83c-0.53-0.29-1.14-0.45-1.79-0.45c-2.09,0-3.79,1.7-3.79,3.79c0,0.49,0.1,0.97,0.27,1.4
				C372.34,233.79,374.39,232.24,375.21,229.83z"/>
		</g>
	</g>
	<path class="st26" d="M206.99,255.53c0,1.43-1.16,2.59-2.59,2.59s-2.59-1.16-2.59-2.59s1.16-2.59,2.59-2.59
		C205.83,252.93,206.99,254.09,206.99,255.53z"/>
	<g class="st4">
		<g>
			<line class="st27" x1="453.08" y1="264.86" x2="453.08" y2="233.38"/>
			<rect x="451.25" y="264.86" class="st28" width="3.66" height="160.86"/>
			<line class="st27" x1="458.97" y1="233.38" x2="447.19" y2="233.38"/>
			<g>
				<path class="st28" d="M450.07,230.15c0,0.79-0.64,1.44-1.44,1.44c-0.79,0-1.44-0.64-1.44-1.44c0-0.79,0.64-1.44,1.44-1.44
					C449.42,228.71,450.07,229.35,450.07,230.15z"/>
				<path class="st28" d="M454.52,230.15c0,0.79-0.64,1.44-1.44,1.44c-0.79,0-1.44-0.64-1.44-1.44c0-0.79,0.64-1.44,1.44-1.44
					C453.88,228.71,454.52,229.35,454.52,230.15z"/>
				<path class="st28" d="M458.97,230.15c0,0.79-0.64,1.44-1.44,1.44c-0.79,0-1.44-0.64-1.44-1.44c0-0.79,0.64-1.44,1.44-1.44
					C458.33,228.71,458.97,229.35,458.97,230.15z"/>
			</g>
			<rect x="449.13" y="252.81" class="st28" width="7.91" height="7.91"/>
		</g>
		<g>
			<g>
				<g>
					<line class="st29" x1="442.99" y1="323.36" x2="442.99" y2="319.98"/>
					<line class="st29" x1="439.06" y1="323.36" x2="439.06" y2="319.98"/>
					<line class="st29" x1="435.13" y1="323.36" x2="435.13" y2="319.98"/>
					<line class="st29" x1="431.2" y1="323.36" x2="431.2" y2="319.98"/>
					<line class="st29" x1="427.27" y1="323.36" x2="427.27" y2="319.98"/>
					<line class="st29" x1="423.34" y1="323.36" x2="423.34" y2="319.98"/>
					<line class="st29" x1="419.41" y1="323.36" x2="419.41" y2="319.98"/>
					<line class="st29" x1="415.48" y1="323.36" x2="415.48" y2="319.98"/>
					<line class="st29" x1="411.55" y1="323.36" x2="411.55" y2="319.98"/>
					<line class="st29" x1="407.62" y1="323.36" x2="407.62" y2="319.98"/>
					<line class="st29" x1="403.69" y1="323.36" x2="403.69" y2="319.98"/>
					<line class="st29" x1="399.76" y1="323.36" x2="399.76" y2="319.98"/>
					<line class="st29" x1="395.83" y1="323.36" x2="395.83" y2="319.98"/>
					<line class="st29" x1="391.9" y1="323.36" x2="391.9" y2="319.98"/>
				</g>
				<line class="st29" x1="445.77" y1="319.98" x2="389.77" y2="319.98"/>
			</g>
			<g>
				<rect x="445.77" y="411.1" class="st30" width="14.62" height="14.62"/>
				<line class="st30" x1="460.39" y1="411.1" x2="445.77" y2="425.72"/>
				<line class="st30" x1="460.39" y1="425.72" x2="445.77" y2="411.1"/>
			</g>
			<g>
				<rect x="445.77" y="396.48" class="st30" width="14.62" height="14.62"/>
				<line class="st30" x1="460.39" y1="396.48" x2="445.77" y2="411.1"/>
				<line class="st30" x1="460.39" y1="411.1" x2="445.77" y2="396.48"/>
			</g>
			<g>
				<rect x="445.77" y="381.85" class="st30" width="14.62" height="14.62"/>
				<line class="st30" x1="460.39" y1="381.85" x2="445.77" y2="396.48"/>
				<line class="st30" x1="460.39" y1="396.48" x2="445.77" y2="381.85"/>
			</g>
			<g>
				<rect x="445.77" y="367.23" class="st30" width="14.62" height="14.62"/>
				<line class="st30" x1="460.39" y1="367.23" x2="445.77" y2="381.85"/>
				<line class="st30" x1="460.39" y1="381.85" x2="445.77" y2="367.23"/>
			</g>
			<g>
				<rect x="445.77" y="352.6" class="st30" width="14.62" height="14.62"/>
				<line class="st30" x1="460.39" y1="352.6" x2="445.77" y2="367.23"/>
				<line class="st30" x1="460.39" y1="367.23" x2="445.77" y2="352.6"/>
			</g>
			<g>
				<rect x="445.77" y="337.98" class="st30" width="14.62" height="14.62"/>
				<line class="st30" x1="460.39" y1="337.98" x2="445.77" y2="352.6"/>
				<line class="st30" x1="460.39" y1="352.6" x2="445.77" y2="337.98"/>
			</g>
			<g>
				<rect x="445.77" y="323.36" class="st30" width="14.62" height="14.62"/>
				<line class="st30" x1="460.39" y1="323.36" x2="445.77" y2="337.98"/>
				<line class="st30" x1="460.39" y1="337.98" x2="445.77" y2="323.36"/>
			</g>
			<g>
				<rect x="445.77" y="308.73" class="st30" width="14.62" height="14.62"/>
				<polyline class="st30" points="460.39,308.73 445.77,323.36 389.77,323.36 				"/>
				<line class="st30" x1="460.39" y1="323.36" x2="445.77" y2="308.73"/>
			</g>
			<g>
				<rect x="445.77" y="294.11" class="st30" width="14.62" height="14.62"/>
				<line class="st30" x1="460.39" y1="294.11" x2="445.77" y2="308.73"/>
				<line class="st30" x1="460.39" y1="308.73" x2="445.77" y2="294.11"/>
			</g>
			<g>
				<rect x="445.77" y="279.49" class="st30" width="14.62" height="14.62"/>
				<line class="st30" x1="460.39" y1="279.49" x2="445.77" y2="294.11"/>
				<line class="st30" x1="460.39" y1="294.11" x2="445.77" y2="279.49"/>
			</g>
			<g>
				<rect x="445.77" y="264.86" class="st30" width="14.62" height="14.62"/>
				<line class="st30" x1="460.39" y1="264.86" x2="445.77" y2="279.49"/>
				<line class="st30" x1="460.39" y1="279.49" x2="445.77" y2="264.86"/>
			</g>
		</g>
		
			<linearGradient id="SVGID_15_" gradientUnits="userSpaceOnUse" x1="456.29" y1="-897.8802" x2="456.29" y2="-768.5901" gradientTransform="matrix(1 0 0 -1 0 -472.1102)">
			<stop  offset="0" style="stop-color:#02CBBE"/>
			<stop  offset="0.9583" style="stop-color:#02CBBE;stop-opacity:0"/>
		</linearGradient>
		<rect x="449.26" y="296.48" class="st31" width="14.06" height="129.29"/>
	</g>
	<g class="st4">
		
			<linearGradient id="SVGID_16_" gradientUnits="userSpaceOnUse" x1="222.035" y1="-897.1302" x2="222.035" y2="-725.1802" gradientTransform="matrix(1 0 0 -1 0 -472.1102)">
			<stop  offset="0" style="stop-color:#02CBBE"/>
			<stop  offset="0.9583" style="stop-color:#02CBBE;stop-opacity:0"/>
		</linearGradient>
		<rect x="218.97" y="253.07" class="st32" width="6.13" height="171.95"/>
		
			<linearGradient id="SVGID_17_" gradientUnits="userSpaceOnUse" x1="225.1" y1="-897.8802" x2="225.1" y2="-725.1802" gradientTransform="matrix(1 0 0 -1 0 -472.1102)">
			<stop  offset="0" style="stop-color:#02CBBE"/>
			<stop  offset="0.9583" style="stop-color:#02CBBE;stop-opacity:0"/>
		</linearGradient>
		<rect x="214.45" y="253.07" class="st33" width="21.3" height="172.7"/>
		
			<linearGradient id="SVGID_18_" gradientUnits="userSpaceOnUse" x1="313.585" y1="-897.8802" x2="313.585" y2="-836.5302" gradientTransform="matrix(1 0 0 -1 0 -472.1102)">
			<stop  offset="0" style="stop-color:#02CBBE"/>
			<stop  offset="0.9583" style="stop-color:#02CBBE;stop-opacity:0"/>
		</linearGradient>
		<rect x="309.8" y="364.42" class="st34" width="7.57" height="61.35"/>
		
			<linearGradient id="SVGID_19_" gradientUnits="userSpaceOnUse" x1="268" y1="-897.8802" x2="268" y2="-814.8702" gradientTransform="matrix(1 0 0 -1 0 -472.1102)">
			<stop  offset="0" style="stop-color:#02CBBE"/>
			<stop  offset="0.9583" style="stop-color:#02CBBE;stop-opacity:0"/>
		</linearGradient>
		<rect x="257.35" y="342.76" class="st35" width="21.3" height="83.01"/>
		
			<linearGradient id="SVGID_20_" gradientUnits="userSpaceOnUse" x1="257.59" y1="-897.8801" x2="257.59" y2="-778.8201" gradientTransform="matrix(1 0 0 -1 0 -472.1102)">
			<stop  offset="0" style="stop-color:#02CBBE"/>
			<stop  offset="0.9583" style="stop-color:#02CBBE;stop-opacity:0"/>
		</linearGradient>
		<rect x="246.94" y="306.71" class="st36" width="21.3" height="119.06"/>
	</g>
	<g class="st4">
		
			<linearGradient id="SVGID_21_" gradientUnits="userSpaceOnUse" x1="431.68" y1="-896.8401" x2="431.68" y2="-795.2902" gradientTransform="matrix(1 0 0 -1 0 -472.1102)">
			<stop  offset="0" style="stop-color:#02CBBE"/>
			<stop  offset="0.9583" style="stop-color:#02CBBE;stop-opacity:0"/>
		</linearGradient>
		<rect x="423.17" y="323.18" class="st37" width="17.02" height="101.55"/>
		
			<linearGradient id="SVGID_22_" gradientUnits="userSpaceOnUse" x1="477.275" y1="-897.8802" x2="477.275" y2="-796.5002" gradientTransform="matrix(1 0 0 -1 0 -472.1102)">
			<stop  offset="0" style="stop-color:#02CBBE"/>
			<stop  offset="0.9583" style="stop-color:#02CBBE;stop-opacity:0"/>
		</linearGradient>
		<rect x="473.76" y="324.39" class="st38" width="7.03" height="101.38"/>
		
			<linearGradient id="SVGID_23_" gradientUnits="userSpaceOnUse" x1="477.37" y1="-897.8802" x2="477.37" y2="-857.3401" gradientTransform="matrix(1 0 0 -1 0 -472.1102)">
			<stop  offset="0" style="stop-color:#02CBBE"/>
			<stop  offset="0.9583" style="stop-color:#02CBBE;stop-opacity:0"/>
		</linearGradient>
		<rect x="465.08" y="385.23" class="st39" width="24.58" height="40.54"/>
	</g>
	<g class="st4">
		<polyline class="st30" points="189.78,426.13 199.21,344.28 209.58,344.28 219.01,426.13 		"/>
		<line class="st30" x1="204.4" y1="250.03" x2="204.4" y2="426.13"/>
		<g>
			<g>
				<line class="st30" x1="219.01" y1="426.13" x2="204.4" y2="414.55"/>
				<line class="st30" x1="217.67" y1="414.3" x2="204.4" y2="414.3"/>
			</g>
			<g>
				<line class="st30" x1="217.67" y1="414.46" x2="204.4" y2="402.88"/>
				<line class="st30" x1="216.3" y1="402.63" x2="204.4" y2="402.63"/>
			</g>
			<g>
				<line class="st30" x1="216.3" y1="402.79" x2="204.4" y2="391.21"/>
				<line class="st30" x1="214.96" y1="390.96" x2="204.4" y2="390.96"/>
			</g>
			<g>
				<line class="st30" x1="214.96" y1="391.12" x2="204.4" y2="379.54"/>
				<line class="st30" x1="213.6" y1="379.29" x2="204.4" y2="379.29"/>
			</g>
			<g>
				<line class="st30" x1="213.6" y1="379.45" x2="204.4" y2="367.87"/>
				<line class="st30" x1="212.27" y1="367.62" x2="204.4" y2="367.62"/>
			</g>
			<g>
				<line class="st30" x1="212.27" y1="367.78" x2="204.4" y2="356.19"/>
				<line class="st30" x1="210.93" y1="355.95" x2="204.4" y2="355.95"/>
			</g>
			<g>
				<line class="st30" x1="210.93" y1="355.95" x2="204.4" y2="344.52"/>
				<line class="st30" x1="209.58" y1="344.28" x2="204.4" y2="344.28"/>
			</g>
		</g>
		<g>
			<g>
				<line class="st30" x1="189.78" y1="426.13" x2="204.4" y2="414.55"/>
				<line class="st30" x1="191.12" y1="414.3" x2="204.4" y2="414.3"/>
			</g>
			<g>
				<line class="st30" x1="191.12" y1="414.46" x2="204.4" y2="402.88"/>
				<line class="st30" x1="192.49" y1="402.63" x2="204.4" y2="402.63"/>
			</g>
			<g>
				<line class="st30" x1="192.49" y1="402.79" x2="204.4" y2="391.21"/>
				<line class="st30" x1="193.83" y1="390.96" x2="204.4" y2="390.96"/>
			</g>
			<g>
				<line class="st30" x1="193.83" y1="391.12" x2="204.4" y2="379.54"/>
				<line class="st30" x1="195.19" y1="379.29" x2="204.4" y2="379.29"/>
			</g>
			<g>
				<line class="st30" x1="195.19" y1="379.45" x2="204.4" y2="367.87"/>
				<line class="st30" x1="196.52" y1="367.62" x2="204.4" y2="367.62"/>
			</g>
			<g>
				<line class="st30" x1="196.52" y1="367.78" x2="204.4" y2="356.19"/>
				<line class="st30" x1="197.86" y1="355.95" x2="204.4" y2="355.95"/>
			</g>
			<g>
				<line class="st30" x1="197.86" y1="355.95" x2="204.4" y2="344.52"/>
				<line class="st30" x1="199.21" y1="344.28" x2="204.4" y2="344.28"/>
			</g>
		</g>
		
			<linearGradient id="SVGID_24_" gradientUnits="userSpaceOnUse" x1="198.7" y1="-794.2389" x2="210.11" y2="-794.2389" gradientTransform="matrix(1 0 0 -1 0 -472.1102)">
			<stop  offset="0" style="stop-color:#FF895B"/>
			<stop  offset="0.5062" style="stop-color:#9E6F8A"/>
			<stop  offset="1" style="stop-color:#4356B5"/>
		</linearGradient>
		<path class="st40" d="M203.6,301.19l-4.9,42.59h11.41l-4.9-42.59C205.09,300.24,203.71,300.24,203.6,301.19z"/>
	</g>
	<g class="st4">
		<g>
			<line class="st27" x1="289.55" y1="334.62" x2="289.55" y2="296.59"/>
			<rect x="287.92" y="334.62" class="st28" width="3.26" height="91.51"/>
			<line class="st27" x1="294.8" y1="296.59" x2="284.3" y2="296.59"/>
			<g>
				<path class="st28" d="M286.87,293.71c0,0.71-0.57,1.28-1.28,1.28s-1.28-0.57-1.28-1.28s0.57-1.28,1.28-1.28
					C286.29,292.43,286.87,293,286.87,293.71z"/>
				<path class="st28" d="M290.83,293.71c0,0.71-0.57,1.28-1.28,1.28s-1.28-0.57-1.28-1.28s0.57-1.28,1.28-1.28
					C290.26,292.43,290.83,293,290.83,293.71z"/>
				<circle class="st28" cx="293.52" cy="293.71" r="1.28"/>
			</g>
			<rect x="286.03" y="313.89" class="st28" width="7.04" height="7.04"/>
		</g>
		<g>
			<g>
				<rect x="283.04" y="412.77" class="st30" width="13.02" height="13.02"/>
				<line class="st30" x1="296.06" y1="412.77" x2="283.04" y2="425.79"/>
				<line class="st30" x1="296.06" y1="425.79" x2="283.04" y2="412.77"/>
			</g>
			<g>
				<rect x="283.04" y="399.75" class="st30" width="13.02" height="13.02"/>
				<line class="st30" x1="296.06" y1="399.75" x2="283.04" y2="412.77"/>
				<line class="st30" x1="296.06" y1="412.77" x2="283.04" y2="399.75"/>
			</g>
			<g>
				<rect x="283.04" y="386.72" class="st30" width="13.02" height="13.02"/>
				<line class="st30" x1="296.06" y1="386.72" x2="283.04" y2="399.75"/>
				<line class="st30" x1="296.06" y1="399.75" x2="283.04" y2="386.72"/>
			</g>
			<g>
				<rect x="283.04" y="373.7" class="st30" width="13.02" height="13.02"/>
				<line class="st30" x1="296.06" y1="373.7" x2="283.04" y2="386.72"/>
				<line class="st30" x1="296.06" y1="386.72" x2="283.04" y2="373.7"/>
			</g>
			<g>
				<rect x="283.04" y="360.67" class="st30" width="13.02" height="13.02"/>
				<line class="st30" x1="296.06" y1="360.67" x2="283.04" y2="373.7"/>
				<line class="st30" x1="296.06" y1="373.7" x2="283.04" y2="360.67"/>
			</g>
			<g>
				<rect x="283.04" y="347.65" class="st30" width="13.02" height="13.02"/>
				<line class="st30" x1="296.06" y1="347.65" x2="283.04" y2="360.67"/>
				<line class="st30" x1="296.06" y1="360.67" x2="283.04" y2="347.65"/>
			</g>
			<g>
				<rect x="283.04" y="334.62" class="st30" width="13.02" height="13.02"/>
				<line class="st30" x1="296.06" y1="334.62" x2="283.04" y2="347.65"/>
				<line class="st30" x1="296.06" y1="347.65" x2="283.04" y2="334.62"/>
			</g>
		</g>
	</g>
	<g id="OBJECTS" class="st4">
		<g>
			<path class="st41" d="M750,289.49l-7.9,5.61h-4.33l-14.02,6.88l-1.78,5.86l-9.94,5.86l1.28,6.63l-3.57,3.57l3.06,14.28
				l-20.65,23.71v4.59l-3.06,2.8l-5.35-4.84l-6.12,0.26l-0.57-20.39c-0.02-0.85-0.85-1.44-1.66-1.2l0,0
				c-0.55,0.17-0.93,0.68-0.92,1.26l0.33,21.46l-3.06,5.61l0.02,12.13l-9.18,10.71l-53.25,4.59l-35.74,31.88H750V289.49z"/>
			<path class="st41" d="M0,232.78l11.53,8.18h6.32L38.31,251l2.6,8.55l14.5,8.55l-1.86,9.67l5.21,5.21l-4.46,20.83l30.12,34.59
				v6.69l4.46,4.09l7.81-7.07l8.93,0.37l0.84-29.74c0.03-1.24,1.24-2.11,2.42-1.75l0,0c0.81,0.24,1.36,0.99,1.34,1.83l-0.49,31.3
				l4.46,8.18l-0.02,17.7l13.39,15.62l77.66,6.69l52.13,46.49H0V232.78z"/>
		</g>
		<g>
			<path class="st42" d="M266.79,419.5c-2.88,0-5.58,0.72-7.96,1.98c-0.15-12.46-10.29-22.51-22.78-22.51
				c-9.03,0-16.83,5.25-20.52,12.86c-3.11-3.41-7.6-5.56-12.58-5.56c-3.74,0-7.2,1.21-10.01,3.26
				c-3.46-12.83-15.17-22.28-29.09-22.28c-16.64,0-30.13,13.49-30.13,30.13c0,3.04,0.46,5.98,1.29,8.75h51.16h6.51h21h6.05h33.58
				h5.11h21.86C277.16,422.1,272.28,419.5,266.79,419.5z"/>
			<path class="st43" d="M146.62,424.6c-3.2-1.25-6.52-1.62-9.71-1.25c5.23-13.92-1.69-29.49-15.58-34.91
				c-10.04-3.91-20.99-1.46-28.39,5.4c-1.98-5.15-6.04-9.47-11.58-11.64c-4.16-1.62-8.54-1.78-12.55-0.72
				c1.72-15.77-7.21-31.35-22.69-37.39C27.98,337.04,7.6,345.7,0,363.46v62.67h152.5C150.8,424.67,148.83,425.46,146.62,424.6z"/>
			<path class="st43" d="M415.62,422.52c-1.57,0-3.04,0.39-4.34,1.08c-0.08-6.79-5.61-12.27-12.42-12.27
				c-4.92,0-9.17,2.86-11.18,7.01c-1.7-1.86-4.14-3.03-6.86-3.03c-2.04,0-3.93,0.66-5.46,1.78c-1.88-6.99-8.27-12.14-15.86-12.14
				c-9.07,0-16.42,7.35-16.42,16.42c0,1.66,0.25,3.26,0.71,4.77h27.88h3.55h11.45h3.3h18.3h2.78h11.91
				C421.27,423.93,418.61,422.52,415.62,422.52z"/>
			<path class="st43" d="M356.49,420.95c-2.25,0-4.36,0.56-6.22,1.55c-0.12-9.73-8.04-17.58-17.79-17.58
				c-7.05,0-13.14,4.1-16.02,10.04c-2.43-2.67-5.93-4.34-9.83-4.34c-2.92,0-5.63,0.95-7.82,2.55c-2.7-10.02-11.84-17.4-22.72-17.4
				c-13,0-23.53,10.53-23.53,23.53c0,2.38,0.36,4.67,1.01,6.83h39.95h5.09h16.4h4.72h26.22h3.99h17.07
				C364.59,422.98,360.78,420.95,356.49,420.95z"/>
			<path class="st43" d="M160.61,426.13c-1.68-6.81-7.83-11.85-15.15-11.85c-5.75,0-10.78,3.11-13.48,7.75
				c-4.79-7.26-13.02-12.05-22.37-12.05c-9.19,0-17.29,4.62-22.12,11.67c-3.71-15.34-17.51-26.73-33.99-26.73
				c-7.05,0-13.61,2.09-19.1,5.68c0.23-1.86,0.36-3.76,0.36-5.68c0-15.91-8.27-29.89-20.75-37.88c9.92-5.74,16.61-16.45,16.61-28.74
				c0-14.25-8.98-26.39-21.59-31.1c2.5-2.77,4.02-6.43,4.02-10.45c0-7.74-5.64-14.17-13.04-15.39v154.78L160.61,426.13
				L160.61,426.13z"/>
		</g>
		<g>
			<path class="st44" d="M603.38,424.6c3.2-1.25,6.52-1.62,9.71-1.25c-5.23-13.92,1.69-29.49,15.58-34.91
				c10.04-3.91,20.99-1.46,28.39,5.4c1.98-5.15,6.04-9.47,11.58-11.64c4.16-1.62,8.54-1.78,12.55-0.72
				c-1.72-15.77,7.21-31.35,22.69-37.39c18.14-7.07,38.51,1.59,46.11,19.35v62.67H597.5C599.2,424.67,601.17,425.46,603.38,424.6z"
				/>
			<path class="st43" d="M475.84,422.52c1.57,0,3.04,0.39,4.34,1.08c0.08-6.79,5.61-12.27,12.42-12.27c4.92,0,9.17,2.86,11.18,7.01
				c1.7-1.86,4.14-3.03,6.86-3.03c2.04,0,3.93,0.66,5.46,1.78c1.88-6.99,8.27-12.14,15.86-12.14c9.07,0,16.42,7.35,16.42,16.42
				c0,1.66-0.25,3.26-0.71,4.77h-27.88h-3.55h-11.45h-3.3h-18.3h-2.78H468.5C470.19,423.93,472.85,422.52,475.84,422.52z"/>
			<path class="st43" d="M534.97,420.95c2.25,0,4.36,0.56,6.22,1.55c0.12-9.73,8.04-17.58,17.79-17.58c7.05,0,13.14,4.1,16.02,10.04
				c2.43-2.67,5.93-4.34,9.83-4.34c2.92,0,5.63,0.95,7.82,2.55c2.7-10.02,11.84-17.4,22.72-17.4c13,0,23.53,10.53,23.53,23.53
				c0,2.38-0.36,4.67-1.01,6.83h-39.95h-5.09h-16.4h-4.72H545.5h-3.99h-17.07C526.87,422.98,530.68,420.95,534.97,420.95z"/>
			<path class="st42" d="M750.04,397.26c-5.52-6.14-13.52-10.01-22.42-10.01c-13.92,0-25.64,9.45-29.09,22.28
				c-2.81-2.05-6.27-3.26-10.01-3.26c-4.98,0-9.47,2.14-12.58,5.56c-3.69-7.61-11.49-12.86-20.52-12.86
				c-12.49,0-22.63,10.05-22.78,22.51c-2.38-1.26-5.08-1.98-7.96-1.98c-5.49,0-10.37,2.6-13.48,6.64h21.86h5.11h33.58h6.05h21h6.51
				h44.75v-28.88H750.04z"/>
		</g>
		<g>
			<rect y="425.99" class="st41" width="750" height="74.02"/>
			<g class="st45">
				<path class="st46" d="M235.87,492.67h36.15c0.77,0,1.52,0.14,2.22,0.4c2.09,0.78,3.7,2.62,3.92,4.92V498
					c0.02,0.21,0.03,0.41,0.03,0.62c0,0.2-0.01,0.41-0.04,0.6c-0.03,0.26-0.1,0.52-0.16,0.77h170.25c-0.42-0.81-0.67-1.73-0.67-2.71
					c0-3.26-2.65-5.9-5.91-5.9H430.6c-2.91,0-5.26-2.35-5.26-5.25s2.36-5.25,5.26-5.25h35.49c3.09,0,5.85-2.25,6.14-5.32
					c0.04-0.41,0.03-0.82-0.01-1.21c0.18-3.09,2.75-5.55,5.9-5.55h12.13c0.77,0,1.52-0.14,2.22-0.4c0.7-0.26,1.34-0.64,1.9-1.11
					c0.56-0.47,1.02-1.04,1.37-1.69c0.35-0.64,0.58-1.36,0.65-2.13c0.34-3.52-2.43-6.48-5.89-6.48h-36.15
					c-0.77,0-1.52-0.14-2.22-0.4c-2.09-0.78-3.7-2.62-3.92-4.92v-0.01c-0.02-0.21-0.03-0.41-0.03-0.62c0-0.2,0.01-0.41,0.04-0.6
					c0.32-2.95,2.83-5.25,5.87-5.25h33.45c3.09,0,5.85-2.25,6.14-5.32c0.34-3.52-2.43-6.48-5.89-6.48h-43.04
					c-3.27,0-5.91-1.34-5.91-4.6l0,0c0-0.95-0.23-1.84-0.63-2.64h-94.9c0.33,0.63,0.54,1.32,0.62,2.06
					c0.02,0.21,0.03,0.42,0.03,0.62c0,0.2-0.01,0.4-0.04,0.6c-0.32,2.96-2.83,5.26-5.87,5.26h-22.38c-3.09,0-5.85,2.25-6.14,5.32
					c-0.34,3.52,2.43,6.48,5.89,6.48h31.97c3.27,0,5.91,2.64,5.91,5.9c0,3.26,2.65,5.9,5.91,5.9h9.03c2.91,0,5.26,2.35,5.26,5.25
					s-2.36,5.25-5.26,5.25h-79.61c-0.62,0-1.22,0.11-1.79,0.28H260c-3.3,0-5.77,2.73-5.83,6.02c-0.06,3.2-2.69,5.78-5.91,5.78
					h-12.13c-0.77,0-1.52,0.14-2.22,0.4c-0.7,0.26-1.34,0.64-1.9,1.11c-0.56,0.47-1.02,1.04-1.37,1.69
					c-0.35,0.64-0.58,1.36-0.65,2.13C229.65,489.71,232.41,492.67,235.87,492.67z"/>
				<path class="st46" d="M282.96,445.47c0.94,0.64,2.08,1.01,3.31,1.01h10.44c0.36,0,0.71-0.04,1.05-0.1
					c0.03,0,0.06-0.01,0.08-0.01c0.33-0.06,0.64-0.16,0.94-0.27c0.04-0.01,0.08-0.03,0.12-0.04c0.29-0.12,0.58-0.26,0.84-0.42
					c0.04-0.02,0.08-0.05,0.12-0.07c0.26-0.17,0.51-0.35,0.75-0.56c0.03-0.03,0.06-0.06,0.1-0.09c0.23-0.21,0.45-0.44,0.64-0.69
					c0.02-0.03,0.04-0.06,0.06-0.08c0.2-0.26,0.37-0.53,0.53-0.82c0.01-0.02,0.02-0.04,0.03-0.06c0.32-0.62,0.53-1.3,0.61-2.03l0,0
					l0,0c0.02-0.21,0.04-0.43,0.04-0.65c0-3.26-2.65-5.9-5.91-5.9h-5.48h-4.96c-1.02,0-1.98,0.26-2.82,0.71
					c-0.23,0.12-0.45,0.26-0.66,0.42c-1.47,1.07-2.43,2.81-2.43,4.77c0,1.27,0.4,2.45,1.09,3.42
					C281.86,444.57,282.37,445.07,282.96,445.47z"/>
				<path class="st46" d="M505.96,445.18h3.21h4.96c0.82,0,1.59-0.17,2.3-0.46c2.12-0.9,3.61-2.99,3.61-5.44
					c0-2.44-1.49-4.54-3.61-5.44c-0.71-0.3-1.49-0.46-2.3-0.46h-8.16c-0.36,0-0.71,0.04-1.05,0.1c-0.03,0.01-0.06,0.01-0.08,0.01
					c-0.33,0.06-0.64,0.16-0.94,0.27c-0.04,0.01-0.08,0.03-0.12,0.04c-0.29,0.12-0.58,0.26-0.84,0.42
					c-0.04,0.02-0.08,0.05-0.12,0.07c-0.26,0.17-0.51,0.35-0.75,0.56c-0.03,0.03-0.06,0.06-0.1,0.09c-0.23,0.21-0.45,0.44-0.64,0.69
					c-0.02,0.03-0.04,0.06-0.06,0.09c-0.2,0.26-0.37,0.53-0.53,0.82c-0.01,0.02-0.02,0.04-0.03,0.06c-0.32,0.62-0.53,1.3-0.61,2.03
					l0,0l0,0c-0.02,0.21-0.04,0.43-0.04,0.65C500.05,442.54,502.7,445.18,505.96,445.18z"/>
			</g>
			
				<radialGradient id="SVGID_25_" cx="663.3354" cy="-791.4306" r="26.3527" gradientTransform="matrix(8.776 0 0 -1.1013 -5446.4312 -445.6125)" gradientUnits="userSpaceOnUse">
				<stop  offset="0" style="stop-color:#02CBBE"/>
				<stop  offset="0.9583" style="stop-color:#02CBBE;stop-opacity:0"/>
			</radialGradient>
			<ellipse class="st47" cx="375" cy="425.99" rx="231.29" ry="29.02"/>
		</g>
	</g>
	<g id="lines" class="st4">
		<line class="st48" x1="576.26" y1="0" x2="341.72" y2="109.05"/>
		<line class="st49" x1="592.88" y1="0" x2="380.93" y2="98.55"/>
		<line class="st48" x1="750.39" y1="133.74" x2="595.44" y2="205.79"/>
		<line class="st49" x1="750.39" y1="143.45" x2="621.32" y2="203.46"/>
		<line class="st49" x1="170.05" y1="0" x2="64.07" y2="49.28"/>
		<line class="st48" x1="147.83" y1="0" x2="108.91" y2="18.1"/>
	</g>
</g>
</svg>
