<?xml version="1.0" encoding="utf-8"?>
<!-- Generator: Adobe Illustrator 25.3.1, SVG Export Plug-In . SVG Version: 6.00 Build 0)  -->
<svg version="1.1" id="star-lines" xmlns="http://www.w3.org/2000/svg" xmlns:xlink="http://www.w3.org/1999/xlink" x="0px" y="0px"
	 viewBox="0 0 690.37 379.19" style="enable-background:new 0 0 690.37 379.19;" xml:space="preserve">
<style type="text/css">
	.st0{opacity:0.6;fill:#FFFFFF;enable-background:new    ;}
</style>
<path class="st0" d="M340.79,358.1l-40.42,20.87c-0.98,0.51-2.19,0.12-2.7-0.86c-0.51-0.98-0.12-2.19,0.87-2.7l0.15-0.07l42-17.45
	c0.07-0.01,0.13,0.03,0.14,0.09C340.84,358.03,340.82,358.07,340.79,358.1L340.79,358.1z"/>
<path class="st0" d="M495.4,27.25l-40.42,20.88c-0.95,0.56-2.18,0.24-2.74-0.71s-0.24-2.18,0.71-2.74c0.06-0.04,0.13-0.07,0.2-0.1
	c0.05-0.03,0.1-0.05,0.15-0.07l42-17.45c0.05-0.03,0.12,0,0.15,0.05v0.01C495.47,27.17,495.45,27.22,495.4,27.25z"/>
<path class="st0" d="M341.86,0.14l-72.87,35.18c-0.6,0.33-1.36,0.12-1.7-0.49s-0.12-1.36,0.49-1.7c0.04-0.02,0.09-0.04,0.13-0.06
	l0,0l73.86-33c0.03-0.03,0.07-0.03,0.1,0l0,0C341.88,0.09,341.88,0.12,341.86,0.14z"/>
<path class="st0" d="M641.33,61.37l-72.87,35.18c-0.6,0.33-1.36,0.12-1.7-0.49c-0.33-0.6-0.12-1.36,0.49-1.7
	c0.04-0.02,0.09-0.04,0.13-0.06l0,0l73.86-33c0.02-0.02,0.06-0.03,0.08-0.01c0,0,0,0,0.01,0.01
	C641.34,61.32,641.34,61.35,641.33,61.37z"/>
<path class="st0" d="M288.43,33.39l-31.72,16c-0.62,0.31-1.37,0.06-1.69-0.55c-0.25-0.6,0.01-1.29,0.59-1.59h0.07l32.69-14
	c0,0,0.07,0,0.09,0c0.03,0.03,0.04,0.08,0.01,0.11C288.46,33.38,288.45,33.39,288.43,33.39z"/>
<path class="st0" d="M579.8,82.11l-31.73,16c-0.6,0.35-1.36,0.14-1.71-0.45c-0.35-0.6-0.14-1.36,0.45-1.71
	c0.04-0.03,0.09-0.05,0.13-0.07h0.07l32.72-13.91c0.03-0.02,0.06-0.02,0.09,0c0.03,0.03,0.04,0.08,0.01,0.11
	C579.83,82.1,579.82,82.11,579.8,82.11z"/>
<g>
	<path class="st0" d="M281.07,164.79l-61.46,29.89c-0.62,0.3-1.37,0.05-1.67-0.57s-0.05-1.37,0.58-1.68l0,0L281,164.68
		c0.03-0.02,0.07-0.02,0.1,0C281.11,164.72,281.11,164.76,281.07,164.79z"/>
	<path class="st0" d="M281.54,174.95l-30.19,16.13c-0.98,0.52-2.19,0.15-2.71-0.82c-0.52-0.98-0.15-2.19,0.82-2.71l0.2-0.09
		l31.79-12.7c0.06-0.02,0.12,0.01,0.15,0.06C281.62,174.87,281.59,174.93,281.54,174.95z"/>
</g>
<g>
	<path class="st0" d="M619.07,293.79l-61.46,29.89c-0.62,0.3-1.37,0.05-1.67-0.57c-0.3-0.62-0.05-1.37,0.58-1.68l0,0L619,293.68
		c0.03-0.02,0.07-0.02,0.1,0C619.11,293.72,619.11,293.76,619.07,293.79z"/>
	<path class="st0" d="M619.54,303.95l-30.19,16.13c-0.98,0.52-2.19,0.15-2.71-0.82c-0.52-0.98-0.15-2.19,0.82-2.71l0.2-0.09
		l31.79-12.7c0.06-0.02,0.12,0.01,0.15,0.06C619.62,303.87,619.59,303.93,619.54,303.95z"/>
</g>
<path class="st0" d="M153.37,301.92L94.02,331.6c-0.99,0.49-2.19,0.09-2.68-0.89c-0.49-0.99-0.09-2.19,0.9-2.68h0.11l60.93-26.25
	c0.04-0.04,0.11-0.04,0.15,0C153.45,301.82,153.43,301.89,153.37,301.92L153.37,301.92z"/>
<path class="st0" d="M84.82,51.8L48.93,70.57c-0.98,0.51-2.19,0.14-2.71-0.84c-0.51-0.98-0.14-2.19,0.85-2.71l0,0l0.17-0.08
	L84.72,51.6c0.05-0.03,0.12,0,0.15,0.05v0.01C84.89,51.71,84.87,51.77,84.82,51.8z"/>
</svg>
