<?xml version="1.0" encoding="utf-8"?>
<!-- Generator: Adobe Illustrator 25.3.1, SVG Export Plug-In . SVG Version: 6.00 Build 0)  -->
<svg version="1.1" id="Calque_1" focusable="false" xmlns="http://www.w3.org/2000/svg" xmlns:xlink="http://www.w3.org/1999/xlink"
	 x="0px" y="0px" viewBox="0 0 640 336.6" style="enable-background:new 0 0 640 336.6;" xml:space="preserve">
<style type="text/css">
	.st0{fill:#8B92BD;}
	.st1{fill:#242431;}
</style>
<ellipse class="st0" cx="320" cy="168.3" rx="320" ry="168.3"/>
<path class="st1" d="M247.3,110.6c-9.7-11.2-25.3-16.7-46.5-16.7h-70.7L97.4,262.6h36.7l8.7-44.8c41.1,0,66.6,3,90.2-19.1
	C259.1,174.7,265.9,132,247.3,110.6z M218.2,154.8c-7.9,40.5-35.8,36.3-70.1,36.3l13.7-70.6C199.8,120.5,225.6,116.4,218.2,154.8z"
	/>
<path class="st1" d="M283.1,49h36.5l-8.7,44.8c31.5,0,60.7-2.3,74.8,10.7c14.8,13.6,7.7,31-8.3,113.1h-37c15.4-79.4,18.3-86,12.7-92
	c-5.4-5.8-17.7-4.6-47.4-4.6l-18.8,96.6h-36.5L283.1,49L283.1,49z"/>
<path class="st1" d="M534.2,110.6c-9.7-11.2-25.3-16.7-46.5-16.7H417l-32.8,168.7H421l8.7-44.8c43.2,0,67.1,2.5,90.2-19.1
	C546,174.7,552.8,132,534.2,110.6z M505,154.8c-8,41.1-36.7,36.3-70.1,36.3l13.7-70.6C486.8,120.5,512.4,116.4,505,154.8z"/>
</svg>
